<?xml version="1.0" encoding="utf-8"?>
<!-- Generator: Adobe Illustrator 21.1.0, SVG Export Plug-In . SVG Version: 6.00 Build 0)  -->
<svg version="1.1" id="Слой_1" xmlns="http://www.w3.org/2000/svg" xmlns:xlink="http://www.w3.org/1999/xlink" x="0px" y="0px"
	 viewBox="0 0 20 20" style="enable-background:new 0 0 20 20;" xml:space="preserve">
<style type="text/css">
	.st0{fill:#BDBFC5;}
</style>
<path class="st0" d="M16.7,16.7h-3.3v-3.3h3.3V16.7z M11.7,8.3H8.3v3.3h3.3V8.3z M16.7,8.3h-3.3v3.3h3.3V8.3z M6.7,13.3H3.3v3.3h3.3
	V13.3z M11.7,13.3H8.3v3.3h3.3V13.3z M6.7,8.3H3.3v3.3h3.3V8.3z M20,1.7V20H0V1.7h2.5v0.8c0,0.9,0.7,1.7,1.7,1.7
	c0.9,0,1.7-0.7,1.7-1.7V1.7h8.3v0.8c0,0.9,0.7,1.7,1.7,1.7c0.9,0,1.7-0.7,1.7-1.7V1.7C17.5,1.7,20,1.7,20,1.7z M18.3,6.7H1.7v11.7
	h16.7V6.7z M16.7,0.8c0-0.5-0.4-0.8-0.8-0.8S15,0.4,15,0.8v1.7c0,0.5,0.4,0.8,0.8,0.8s0.8-0.4,0.8-0.8V0.8z M5,2.5
	C5,3,4.6,3.3,4.2,3.3C3.7,3.3,3.3,3,3.3,2.5V0.8C3.3,0.4,3.7,0,4.2,0C4.6,0,5,0.4,5,0.8V2.5z"/>
</svg>
