<?xml version="1.0" encoding="utf-8"?>
<!-- Generator: Adobe Illustrator 21.1.0, SVG Export Plug-In . SVG Version: 6.00 Build 0)  -->
<svg version="1.1" id="Слой_1" xmlns="http://www.w3.org/2000/svg" xmlns:xlink="http://www.w3.org/1999/xlink" x="0px" y="0px"
	 viewBox="0 0 76 66" style="enable-background:new 0 0 76 66;" xml:space="preserve">
<style type="text/css">
	.st0{fill:#F24F4B;}
</style>
<g>
	<g>
		<path class="st0" d="M37.9,65.1c-0.5,0-0.9-0.3-1.7-0.9c-0.3-0.2-0.6-0.5-1-0.8c-2.3-1.5-10.3-7.3-18.6-15.3c-0.3-0.3-0.3-0.7,0-1
			c0.3-0.3,0.7-0.3,1,0c8.1,7.9,16.1,13.6,18.4,15.1c0.4,0.3,0.8,0.6,1.1,0.8c0.4,0.3,0.7,0.6,0.8,0.6c0.1,0,0.5-0.3,0.8-0.5
			c0.3-0.2,0.6-0.4,1-0.7c3.3-2.3,32.7-22.9,34.5-41.3c0.5-5.1-1.3-9.7-5.2-13.6c-3.6-3.7-8.8-5.9-14.1-5.9
			c-12.8,0-14.2,6.4-15.1,10.7c-0.3,1.5-0.6,2.7-1.3,3.4c-0.3,0.3-0.7,0.3-1,0c-0.7-0.7-1-1.9-1.3-3.4C35.3,8.1,33.9,1.7,21.1,1.7
			C15.8,1.7,10.7,3.9,7,7.6c-6.9,6.8-7.1,15.5-0.6,26c0.2,0.3,0.1,0.8-0.2,1c-0.3,0.2-0.8,0.1-1-0.2C-1.6,23.4-1.3,13.8,6,6.6
			c3.9-4,9.4-6.3,15.1-6.3c14,0,15.6,7.4,16.5,11.8c0.1,0.6,0.2,1.2,0.4,1.6c0.1-0.5,0.3-1.1,0.4-1.6c0.9-4.4,2.5-11.8,16.5-11.8
			c5.7,0,11.2,2.3,15.1,6.3c4.2,4.2,6.1,9.2,5.6,14.8C73.8,40,46.1,59.9,40.5,63.7c-0.4,0.3-0.7,0.5-0.9,0.6
			C38.8,64.9,38.3,65.1,37.9,65.1z"/>
	</g>
	<g>
		<path class="st0" d="M37.4,51.6C37.4,51.6,37.4,51.6,37.4,51.6c-0.3,0-0.6-0.2-0.7-0.5l-4-11.2h-6.4c-0.3,0-0.6-0.2-0.7-0.6
			l-4.1-20.8l-3.5,20.8c-0.1,0.3-0.4,0.6-0.7,0.6H1c-0.4,0-0.7-0.3-0.7-0.7s0.3-0.7,0.7-0.7h15.6l4.1-24c0.1-0.3,0.4-0.6,0.7-0.6
			c0,0,0,0,0,0c0.3,0,0.6,0.2,0.7,0.6l4.8,24h6.3c0.3,0,0.6,0.2,0.7,0.5l3.5,9.9c3.5-8.9,5.9-15.2,9-25.4c0.1-0.3,0.4-0.5,0.7-0.5
			c0,0,0,0,0,0c0.3,0,0.6,0.2,0.7,0.5l4.5,15h13.6c0.4,0,0.7,0.3,0.7,0.7s-0.3,0.7-0.7,0.7H51.8c-0.3,0-0.6-0.2-0.7-0.5l-4-13.3
			c-3,9.5-5.4,15.7-9,24.9l0,0.1C38,51.4,37.7,51.6,37.4,51.6z"/>
	</g>
</g>
</svg>
