<?xml version="1.0" encoding="utf-8"?>
<!-- Generator: Adobe Illustrator 21.1.0, SVG Export Plug-In . SVG Version: 6.00 Build 0)  -->
<svg version="1.1" id="Слой_1" xmlns="http://www.w3.org/2000/svg" xmlns:xlink="http://www.w3.org/1999/xlink" x="0px" y="0px"
	 viewBox="0 0 32 40" style="enable-background:new 0 0 32 40;" xml:space="preserve">
<style type="text/css">
	.st0{fill:#558DD5;}
</style>
<g>
	<path class="st0" d="M16.5,18.8c0.6,0,1-0.2,1.4-0.6c0.4-0.4,0.6-1,0.6-1.9c0-0.8-0.2-1.4-0.5-1.8c-0.4-0.4-0.8-0.6-1.4-0.6
		c-0.6,0-1.1,0.2-1.4,0.6c-0.5,0.5-0.7,1.1-0.7,1.9c0,0.8,0.2,1.4,0.6,1.8C15.5,18.6,16,18.8,16.5,18.8z"/>
	<path class="st0" d="M10.2,18.4c0.2-0.1,0.3-0.4,0.4-0.7c0.1-0.3,0.1-0.8,0.1-1.3c0-0.6-0.1-1-0.1-1.3c-0.1-0.3-0.2-0.5-0.4-0.7
		c-0.2-0.2-0.4-0.3-0.7-0.3c-0.2,0-0.6-0.1-1.2-0.1l-0.7,0.1v4.7h1.1c0.4,0,0.7,0,0.9-0.1C9.8,18.6,10,18.5,10.2,18.4z"/>
	<path class="st0" d="M25.5,0H0v40h32V6.5L25.5,0z M13.3,14.7c0.2-0.4,0.4-0.7,0.7-1s0.6-0.5,0.9-0.6c0.4-0.2,1-0.3,1.5-0.3
		c1.1,0,1.9,0.3,2.5,1c0.6,0.7,1,1.6,1,2.7c0,1.2-0.3,2.1-0.9,2.7c-0.6,0.7-1.5,1-2.5,1c-1.1,0-1.9-0.3-2.5-1s-1-1.6-1-2.7
		C13,15.8,13.1,15.2,13.3,14.7z M6.1,12.8h2.6c0.6,0,1.1,0,1.4,0.1c0.4,0.1,0.8,0.3,1.1,0.7c0.3,0.3,0.5,0.7,0.7,1.2
		c0.2,0.5,0.2,1,0.2,1.7c0,0.6-0.1,1.1-0.2,1.5c-0.2,0.5-0.4,0.9-0.8,1.3c-0.3,0.2-0.6,0.4-1,0.6c-0.3,0-0.7,0.1-1.3,0.1H6.1V12.8z
		 M26.1,33H6v-1h20.1V33z M26.1,29H6v-1h20.1V29z M26,19.5c-0.5,0.4-1.1,0.6-1.9,0.6c-1,0-1.7-0.3-2.3-1c-0.6-0.6-0.9-1.5-0.9-2.7
		c0-1.2,0.3-2.1,0.9-2.8c0.6-0.7,1.4-1,2.4-1c0.9,0,1.6,0.3,2.1,0.8c0.3,0.3,0.6,0.7,0.7,1.3L25.6,15c-0.1-0.3-0.3-0.7-0.5-0.9
		c-0.3-0.2-0.6-0.3-1-0.3c-0.5,0-1,0.2-1.3,0.6c-0.3,0.4-0.5,1-0.5,1.9c0,0.9,0.2,1.5,0.5,1.9c0.3,0.4,0.7,0.6,1.3,0.6
		c0.4,0,0.7-0.1,1-0.4c0.3-0.1,0.5-0.5,0.6-1l1.4,0.4C26.9,18.6,26.5,19.2,26,19.5z"/>
</g>
</svg>
