<?xml version="1.0" encoding="utf-8"?>
<!-- Generator: Adobe Illustrator 21.1.0, SVG Export Plug-In . SVG Version: 6.00 Build 0)  -->
<svg version="1.1" id="Слой_1" xmlns="http://www.w3.org/2000/svg" xmlns:xlink="http://www.w3.org/1999/xlink" x="0px" y="0px"
	 viewBox="0 0 71 71" style="enable-background:new 0 0 71 71;" xml:space="preserve">
<style type="text/css">
	.st0{fill:#4689B9;}
</style>
<g>
	<g>
		<path class="st0" d="M46.4,70.2c-0.2,0-0.4-0.1-0.5-0.2L40,64.1l-5,5c-0.3,0.3-0.7,0.3-1,0L27.9,63c-0.1-0.1-0.2-0.3-0.2-0.5
			s0.1-0.4,0.2-0.5l34.5-34.5c0.3-0.3,0.7-0.3,1,0l6.1,6.1c0.3,0.3,0.3,0.7,0,1l-5,5l5.9,5.9c0.1,0.1,0.2,0.3,0.2,0.5
			s-0.1,0.4-0.2,0.5L46.9,70C46.8,70.1,46.6,70.2,46.4,70.2z M41.3,63.4l5.1,5.1L68.9,46l-5.1-5.1L41.3,63.4z M29.4,62.5l5.1,5.1
			L68,34.1L62.9,29L29.4,62.5z"/>
	</g>
	<g>
		<path class="st0" d="M58.4,70.4c-0.2,0-0.4-0.1-0.5-0.2l-6.1-6.1c-0.1-0.1-0.2-0.3-0.2-0.5s0.1-0.4,0.2-0.5l11.7-11.7
			c0.3-0.3,0.7-0.3,1,0l6.2,6.1c0.1,0.1,0.2,0.3,0.2,0.5c0,0.2-0.1,0.4-0.2,0.5L58.9,70.2C58.8,70.4,58.6,70.4,58.4,70.4z
			 M53.3,63.6l5.1,5.1L69.2,58L64,52.9L53.3,63.6z M43.2,49.1C43.2,49.1,43.2,49.1,43.2,49.1c-0.2,0-0.4-0.1-0.5-0.2L22.2,28.2
			c-0.3-0.3-0.3-0.7,0-1l6.1-6.1c0.1-0.1,0.3-0.2,0.5-0.2c0,0,0,0,0,0c0.2,0,0.4,0.1,0.5,0.2l20.5,20.7c0.3,0.3,0.3,0.7,0,1
			l-6.1,6.1C43.6,49,43.4,49.1,43.2,49.1z M23.7,27.7l19.5,19.7l5.1-5.1L28.8,22.6L23.7,27.7z"/>
	</g>
	<g>
		<g>
			<path class="st0" d="M8.5,43.3c-0.2,0-0.4-0.1-0.5-0.2L1.9,37c-0.1-0.1-0.2-0.3-0.2-0.5s0.1-0.4,0.2-0.5l5-5L1,25.1
				c-0.3-0.3-0.3-0.7,0-1L24.5,0.6c0.3-0.3,0.7-0.3,1,0l5.9,5.9l5-5c0.3-0.3,0.7-0.3,1,0l6.1,6.1c0.3,0.3,0.3,0.7,0,1L9,43.1
				C8.9,43.2,8.7,43.3,8.5,43.3z M3.4,36.5l5.1,5.1L42,8.1L36.9,3L3.4,36.5z M2.5,24.6l5.1,5.1L30.1,7.2L25,2.1L2.5,24.6z"/>
		</g>
		<g>
			<path class="st0" d="M7.4,19.4c-0.2,0-0.4-0.1-0.5-0.2l-6.1-6.1c-0.3-0.3-0.3-0.7,0-1L12.5,0.3c0.1-0.1,0.3-0.2,0.5-0.2
				c0.2,0,0.4,0.1,0.5,0.2l6.1,6.2c0.3,0.3,0.3,0.7,0,1L7.9,19.2C7.8,19.4,7.6,19.4,7.4,19.4z M2.3,12.6l5.1,5.1L18.1,7L13,1.8
				L2.3,12.6z"/>
		</g>
	</g>
</g>
</svg>
