<?xml version="1.0" encoding="utf-8"?>
<!-- Generator: Adobe Illustrator 21.1.0, SVG Export Plug-In . SVG Version: 6.00 Build 0)  -->
<svg version="1.1" id="Слой_1" xmlns="http://www.w3.org/2000/svg" xmlns:xlink="http://www.w3.org/1999/xlink" x="0px" y="0px"
	 viewBox="0 0 32 40" style="enable-background:new 0 0 32 40;" xml:space="preserve">
<style type="text/css">
	.st0{fill:#AC28DF;}
</style>
<g>
	<rect x="7" y="26" class="st0" width="18" height="8"/>
	<path class="st0" d="M16.1,16c0.1-0.1,0.3-0.2,0.5-0.4c0.2-0.2,0.2-0.3,0.2-0.6s-0.1-0.5-0.2-0.6c-0.1-0.1-0.3-0.3-0.6-0.3
		c-0.2,0-0.5,0-1,0h-0.8v2H15C15.6,16.1,16,16.1,16.1,16z"/>
	<path class="st0" d="M25.5,0H0v40h32V6.5L25.5,0z M19.7,14.4c0.3-0.6,0.8-1,1.4-1.3c0.5-0.2,1-0.4,1.7-0.4c0.9,0,1.6,0.2,2.1,0.6
		c0.5,0.4,0.8,0.9,1,1.5l-1.4,0.3c-0.1-0.4-0.3-0.6-0.6-0.8c-0.3-0.2-0.6-0.3-1-0.3c-0.6,0-1.1,0.2-1.5,0.6c-0.4,0.4-0.6,1-0.6,1.8
		c0,0.8,0.2,1.5,0.6,1.9c0.4,0.4,0.9,0.6,1.5,0.6c0.3,0,0.6-0.1,0.9-0.2c0.3-0.1,0.6-0.3,0.8-0.4v-0.9h-1.8v-1.2h3.1V19
		c-0.3,0.3-0.7,0.6-1.3,0.8c-0.6,0.2-1.2,0.3-1.7,0.3c-0.7,0-1.4-0.2-2-0.5c-0.6-0.3-1-0.8-1.3-1.3c-0.3-0.6-0.4-1.2-0.4-1.9
		C19.2,15.7,19.4,15,19.7,14.4z M12.8,12.8h2.3c0.9,0,1.5,0,1.7,0.1c0.4,0.1,0.8,0.3,1,0.7c0.3,0.4,0.4,0.8,0.4,1.4
		c0,0.4-0.1,0.8-0.2,1.1c-0.2,0.3-0.4,0.5-0.6,0.7c-0.2,0.2-0.5,0.3-0.7,0.3c-0.3,0.1-0.8,0.1-1.5,0.1h-0.9V20h-1.5V12.8z M8,17.6
		c0,0.4,0.1,0.7,0.2,0.9c0.2,0.3,0.4,0.4,0.7,0.4c0.3,0,0.6-0.1,0.7-0.3c0.1-0.2,0.2-0.6,0.2-1.1v-4.7h1.4v4.5c0,0.6-0.1,1-0.2,1.4
		c-0.1,0.4-0.4,0.8-0.8,1C10,20,9.5,20.1,8.9,20.1c-0.7,0-1.3-0.2-1.6-0.6c-0.4-0.4-0.6-1-0.6-1.7L8,17.6z M26,35H6V25h20V35z"/>
</g>
</svg>
