<?xml version="1.0" encoding="utf-8"?>
<!-- Generator: Adobe Illustrator 21.1.0, SVG Export Plug-In . SVG Version: 6.00 Build 0)  -->
<svg version="1.1" id="Слой_1" xmlns="http://www.w3.org/2000/svg" xmlns:xlink="http://www.w3.org/1999/xlink" x="0px" y="0px"
	 viewBox="0 0 75 74" style="enable-background:new 0 0 75 74;" xml:space="preserve">
<style type="text/css">
	.st0{fill:#82C3DF;}
</style>
<title>E59A74C1-6EDF-4494-9874-A4FD8FB19082</title>
<desc>Created with sketchtool.</desc>
<g id="Page-1_1_">
	<g id="Главная-страница" transform="translate(-319.000000, -994.000000)">
		<g id="Page-1" transform="translate(320.000000, 993.000000)">
			<g id="Stroke-1">
				<path class="st0" d="M16.7,23c-0.3,0-0.6-0.2-0.7-0.5l-1.2-4.7c-0.1-0.4,0.1-0.8,0.5-0.9c0.4-0.1,0.8,0.1,0.9,0.5l1.2,4.7
					c0.1,0.4-0.1,0.8-0.5,0.9C16.8,23,16.7,23,16.7,23z"/>
			</g>
			<g id="Group-12" transform="translate(0.000000, 0.924433)">
				<g id="Stroke-2">
					<path class="st0" d="M13.2,57.1c-0.2,0-0.5-0.1-0.6-0.3C2.9,40.6,9,31.5,13.1,25.4c1.3-2,2.5-3.7,2.5-5c0-0.3,0.2-0.6,0.5-0.7
						c0.3-0.1,0.6,0,0.8,0.2c1.1,1.5,2.5,2.5,3.8,3.5c4.6,3.4,8.9,6.6,5.3,28.6c-0.1,0.3-0.3,0.6-0.6,0.6c-0.3,0-0.6-0.2-0.7-0.5
						l-0.1-0.4c-0.1-0.3,0-0.6,0.3-0.8c3.2-20.4-0.7-23.3-4.8-26.4c-1-0.8-2.1-1.6-3.1-2.6c-0.5,1.3-1.4,2.6-2.5,4.2
						C10.4,32,4.6,40.7,13.8,56c0.2,0.3,0.1,0.8-0.2,1C13.4,57.1,13.3,57.1,13.2,57.1z"/>
				</g>
				<g id="Stroke-4">
					<path class="st0" d="M20.8,74c-1.3,0-2.5-0.2-3.7-0.6c-3.7-1.3-6.3-4.5-6.9-8.7c-1.3-8.1-3.4-13.3-5.5-18.4
						C3,42.1,1.4,38.2,0.3,32.9c-1.5-7.5,1-13,3.3-16.2c2.8-4,7.2-6.9,11.6-7.8c1.9-0.4,3.7,0,5.4,1.2c5.8,4,8.3,15.9,9.2,20.8
						c0,0,0,0.1,0,0.1c0.3,5.5,0.4,10.1,0.4,13.8c0.1,6.3,0.2,10.5,1.2,14.4c1.3,4.9,0.3,9.1-2.8,11.9C26.5,73,23.6,74,20.8,74z
						 M16.6,10.2c-0.4,0-0.7,0-1.1,0.1c-4.1,0.8-8.1,3.5-10.7,7.2c-2.2,3-4.4,8.1-3,15.1c1,5.2,2.6,9.1,4.3,13.2
						c2.1,5.1,4.3,10.4,5.6,18.7c0.6,3.7,2.7,6.4,6,7.6c3.4,1.2,7.4,0.4,10-2c2.7-2.5,3.5-6.2,2.4-10.5c-1-4-1.1-8.3-1.2-14.7
						c-0.1-3.8-0.1-8.2-0.4-13.7c-0.6-3.8-3.1-16.1-8.6-19.9C18.7,10.6,17.7,10.2,16.6,10.2z"/>
				</g>
				<g id="Stroke-6">
					<path class="st0" d="M57.9,13.3c-0.1,0-0.2,0-0.3-0.1c-0.4-0.2-0.5-0.6-0.4-0.9l1.9-4.5c0.2-0.4,0.6-0.5,0.9-0.4
						c0.4,0.2,0.5,0.6,0.4,0.9l-1.9,4.5C58.4,13.2,58.2,13.3,57.9,13.3z"/>
				</g>
				<g id="Stroke-8">
					<path class="st0" d="M55.9,48.5c-0.2,0-0.3-0.1-0.5-0.2c-0.3-0.3-0.3-0.7-0.1-1c11.5-13.7,7-23.3,4.1-29.5
						c-0.8-1.7-1.5-3.2-1.8-4.5c-1.2,0.9-2.3,1.5-3.5,2.1c-4.6,2.4-8.9,4.7-8.9,25.3c0.2,0.2,0.3,0.6,0.1,0.9l-0.2,0.4
						c-0.2,0.3-0.5,0.4-0.8,0.3c-0.3-0.1-0.5-0.4-0.5-0.7c-0.1-22.3,4.6-24.8,9.6-27.5c1.4-0.8,2.9-1.5,4.3-2.8
						c0.2-0.2,0.6-0.3,0.8-0.1c0.3,0.1,0.4,0.4,0.4,0.7c-0.2,1.3,0.7,3.1,1.7,5.3c3.1,6.6,7.8,16.6-4.3,31.1
						C56.3,48.4,56.1,48.5,55.9,48.5z"/>
				</g>
				<g id="Stroke-10">
					<path class="st0" d="M47.5,64.1c-3.4,0-6.9-1.6-9-4.2c-2.6-3.3-2.9-7.6-0.9-12.2c1.6-3.7,2.3-7.8,3.4-14
						c0.6-3.6,1.4-8.1,2.5-13.5c0,0,0-0.1,0-0.1c1.6-4.7,5.9-16.1,12.3-19.2c1.8-0.9,3.7-1,5.5-0.3c4.5,1.6,8.4,5.4,10.5,10
						c1.6,3.5,3,9,0.4,15.9c-1.9,5.1-4.1,8.8-6.4,12.6c-2.8,4.6-5.7,9.5-8.3,17.3c-1.3,4.1-4.3,6.8-8.2,7.5
						C48.8,64,48.1,64.1,47.5,64.1z M44.9,20.4c-1.1,5.4-1.9,9.7-2.5,13.4c-1.1,6.3-1.8,10.5-3.5,14.3c-1.8,4.1-1.5,7.9,0.7,10.8
						c2.2,2.8,6,4.2,9.5,3.5c3.4-0.6,5.9-2.9,7.1-6.5c2.6-8,5.5-12.9,8.4-17.6c2.3-3.8,4.5-7.4,6.3-12.4c2.4-6.4,1.1-11.6-0.4-14.8
						c-2-4.3-5.6-7.8-9.7-9.3c-1.5-0.5-2.9-0.4-4.4,0.3C50.4,5,46.1,16.8,44.9,20.4z"/>
				</g>
			</g>
		</g>
	</g>
</g>
</svg>
