<?xml version="1.0" encoding="utf-8"?>
<!-- Generator: Adobe Illustrator 21.1.0, SVG Export Plug-In . SVG Version: 6.00 Build 0)  -->
<svg version="1.1" id="Слой_1" xmlns="http://www.w3.org/2000/svg" xmlns:xlink="http://www.w3.org/1999/xlink" x="0px" y="0px"
	 viewBox="0 0 32 40" style="enable-background:new 0 0 32 40;" xml:space="preserve">
<style type="text/css">
	.st0{fill:#2E932F;}
</style>
<path class="st0" d="M25.5,0H0v40h32V6.5L25.5,0z M23.7,17.5c-0.1-0.1-0.3-0.2-0.5-0.3C23,17.1,22.6,17,22,16.9
	c-0.8-0.2-1.3-0.4-1.6-0.7c-0.4-0.4-0.7-0.9-0.7-1.4c0-0.4,0.1-0.7,0.3-1s0.5-0.6,0.9-0.7c0.4-0.2,0.9-0.2,1.4-0.2
	c0.9,0,1.6,0.2,2,0.6c0.4,0.4,0.7,0.9,0.7,1.6L23.6,15c-0.1-0.4-0.2-0.6-0.4-0.8S22.7,14,22.3,14c-0.4,0-0.7,0.1-1,0.3
	c-0.2,0.1-0.2,0.3-0.2,0.4c0,0.2,0.1,0.3,0.2,0.4c0.2,0.2,0.6,0.3,1.3,0.5c0.7,0.2,1.2,0.3,1.6,0.5c0.3,0.2,0.6,0.4,0.8,0.7
	s0.3,0.7,0.3,1.1c0,0.4-0.1,0.8-0.3,1.2c-0.2,0.4-0.6,0.6-1,0.8c-0.4,0.2-0.9,0.3-1.6,0.3c-0.9,0-1.6-0.2-2.1-0.6
	c-0.5-0.5-0.8-1.1-0.9-1.9l1.4-0.1c0.1,0.5,0.3,0.8,0.5,1c0.2,0.2,0.6,0.3,1,0.3c0.5,0,0.8-0.1,1.1-0.3c0.2-0.2,0.4-0.4,0.4-0.7
	C23.8,17.7,23.8,17.6,23.7,17.5z M13.7,12.9h1.4v5.9h3.6V20h-5V12.9z M6.5,12.9h1.7l1.4,2.3l1.4-2.3h1.7l-2.2,3.5l2.4,3.7h-1.7
	l-1.6-2.5L8,20H6.3l2.4-3.7L6.5,12.9z M26.1,33H6v-1h20.1V33z M26.1,29H6v-1h20.1V29z"/>
</svg>
