<?xml version="1.0" encoding="UTF-8" standalone="no"?>
<svg width="291px" height="177px" viewBox="0 0 291 177" version="1.1" xmlns="http://www.w3.org/2000/svg" xmlns:xlink="http://www.w3.org/1999/xlink">
    <!-- Generator: sketchtool 47 (45396) - http://www.bohemiancoding.com/sketch -->
    <title>C44A6DF8-345B-411A-89D4-1C126E54303D</title>
    <desc>Created with sketchtool.</desc>
    <defs></defs>
    <g id="Page-1" stroke="none" stroke-width="1" fill="none" fill-rule="evenodd">
        <g id="Главная-страница" transform="translate(-874.000000, -738.000000)" stroke="#BCCCD2" fill="#EAF2F5">
            <path d="M1163.36002,837.704969 C1163.18562,834.308384 1160.00571,832.147806 1157.13004,833.99111 C1155.51004,835.03247 1154.11484,835.040256 1152.01815,835.166776 C1150.93105,833.96386 1149.55522,832.56435 1148.32473,831.046106 C1146.91208,829.304018 1145.15063,828.099155 1143.04038,827.50159 C1139.65894,826.543928 1137.83354,823.661211 1135.37837,821.533723 L1127.82487,821.533723 L1127.82487,825.938577 C1125.57897,827.287479 1123.02884,826.615947 1120.63567,826.563393 C1118.29095,826.512785 1115.58386,827.635896 1113.66933,825.177509 C1110.90798,825.091864 1108.13307,824.975076 1105.36784,824.959504 C1104.39313,824.951718 1102.44566,827.406213 1102.43984,828.54295 C1102.41272,831.624207 1102.43209,834.70741 1102.43209,837.638789 C1100.58538,840.373575 1097.14581,840.595472 1095.23902,843.108361 C1093.55121,845.327333 1091.15804,846.997401 1089.40822,849.175498 C1088.11572,850.794958 1085.5714,850.041676 1084.69358,852.101037 C1082.75386,851.423667 1082.09307,853.835339 1080.37425,853.880108 C1078.47328,853.926823 1077.61484,855.70784 1076.64207,856.918543 C1075.18292,858.720971 1072.95252,859.034352 1071.22014,860.295663 C1070.09816,861.119018 1068.02085,860.628509 1066.1412,860.739457 C1063.91856,858.392018 1061.63197,855.978399 1059.59729,853.827553 C1056.67123,853.901519 1054.21411,853.403224 1052.12905,855.450907 C1051.60391,855.97256 1049.96842,855.612464 1048.94721,855.302975 C1047.97444,855.007112 1048.63328,853.568673 1048.20503,853.161862 C1046.88346,851.898605 1046.28275,850.530239 1046.57342,848.743382 L1046.57342,844.476727 C1048.54996,842.633423 1050.11182,840.219804 1053.0495,839.672847 C1053.26847,839.631971 1057.63819,835.170669 1057.73701,834.974076 C1059.16129,832.056322 1060.47511,829.401341 1064.1104,828.175067 C1067.35038,827.073367 1067.59842,824.733714 1065.95905,821.459757 C1063.55813,816.646144 1063.13181,815.38678 1063.56588,811.435453 C1063.69959,810.207232 1065.07929,809.076335 1065.10061,807.879258 C1065.15487,805.216491 1066.03462,802.253969 1063.49999,800.083658 C1064.68592,796.350335 1061.06419,793.333312 1061.8645,789.753759 C1062.49041,786.946954 1060.31815,785.239903 1059.63023,782.980055 C1059.21942,781.623367 1057.675,780.216072 1055.60157,780.720207 C1054.32651,781.027748 1053.59402,780.13432 1052.78403,779.346001 C1051.82482,778.40975 1051.12334,776.965472 1048.50927,777.543573 C1047.42992,778.9061 1045.87387,780.885656 1044.70345,782.372757 L1038.90365,782.372757 C1037.64603,781.115339 1036.34577,780.000014 1035.29743,778.676416 C1034.67152,777.89199 1034.52619,776.743575 1034.04562,775.809271 C1032.54189,772.910982 1032.72017,771.984464 1034.36341,769.977656 C1036.3574,767.53484 1039.15944,766.639466 1041.8239,765.432656 C1044.09886,764.406868 1045.24603,762.783515 1044.89917,760.198607 C1044.79065,759.379144 1044.87979,758.526592 1044.87979,757.639003 C1042.88387,756.083776 1041.61268,754.113952 1040.50039,751.832693 C1039.42879,749.627346 1035.91946,750.059461 1034.72966,747.564091 L1034.72966,739.918369 C1033.88672,739.918369 1032.62134,739.569952 1032.28223,739.986496 C1031.06142,741.467757 1029.62165,741.775299 1027.8602,741.644885 C1026.47468,741.541723 1025.08141,741.621528 1023.72496,741.621528 C1022.88977,740.786494 1022.07396,740.013746 1021.31241,739.190391 C1020.19237,737.979688 1019.03745,737.720808 1017.85152,739.03662 C1017.00858,739.968977 1015.99125,740.327127 1014.99522,739.595256 C1014.11934,738.945136 1013.48762,738.092583 1012.19124,738.18796 C1010.51699,738.312534 1008.73035,737.86874 1007.17625,738.312534 C1005.47099,738.808883 1004.00603,740.081873 1002.38604,740.932479 C1000.08976,742.143181 997.752785,743.279918 995.437128,744.447798 C992.881186,745.738305 990.007446,744.852663 987.280978,744.998648 C985.042833,745.117382 982.794999,745.025898 980.556854,745.025898 C980.863024,746.851684 982.942271,748.02735 982.333805,750.271626 C982.192347,750.779654 983.035285,751.641939 983.542985,752.239504 C984.240589,753.072592 985.052522,753.80641 985.790819,754.548014 C984.990513,756.476962 984.459559,758.263819 983.523607,759.803474 C982.814377,760.981087 981.591633,761.833639 980.556854,762.874999 C980.556854,767.910509 980.560729,772.983001 980.556854,778.05744 C980.556854,780.873977 980.549103,780.873977 978.865165,784.12847 C976.735536,784.424333 976.121257,786.740628 974.140838,787.626271 C970.414471,786.748414 966.122271,789.004369 962.337771,785.932845 C961.490957,785.239903 959.078411,785.239903 958.311047,785.940631 C956.142662,787.912401 953.722365,787.371284 951.321446,787.563984 C950.457192,787.63211 949.953368,788.321159 950.079324,789.333322 C950.199467,790.351324 949.591001,790.894389 948.656987,790.90996 C946.730826,790.939157 944.546939,790.499256 944.858923,793.629174 C943.455964,794.997541 942.12858,796.465177 940.588038,797.652521 C940.231485,797.932813 938.557236,797.368337 938.504916,797.023813 C938.280133,795.581481 937.654227,794.544014 936.683395,793.490975 C936.280335,793.056913 936.272584,791.920177 937.061264,791.246699 C937.698796,790.701688 938.289821,790.082712 938.85178,789.454003 C940.396197,787.73138 940.359379,787.122136 938.628934,785.370316 C937.640662,784.373725 936.685333,782.66862 935.615674,782.581029 C933.247697,782.398061 932.323372,780.644294 931.019241,779.346001 C929.713172,778.047708 927.759881,777.125082 927.938158,774.693945 C927.982727,774.043825 927.26187,773.960127 926.804552,774.347474 C923.886243,776.807808 920.41954,775.242849 917.214439,775.583481 C915.315407,775.783967 913.557833,775.536765 911.897149,777.195155 C910.996077,778.102209 908.870324,776.899292 907.364662,778.419483 C905.934575,779.863761 903.647985,778.764007 901.762517,779.040406 C900.51652,779.217534 899.816978,778.359142 898.861649,777.856954 C896.98587,776.873988 894.513252,777.160119 892.654914,778.069119 C890.786886,778.993691 888.951801,779.97471 886.909372,781.023855 C885.651748,779.764491 884.510391,778.557682 883.301211,777.424838 C882.681119,776.850631 880.956487,777.520215 880.737517,778.557682 C880.499169,779.663275 880.658068,780.858406 878.995446,780.727992 C878.995446,781.294414 878.993508,781.860836 878.995446,782.425312 C879.022575,785.732359 878.927623,785.775181 880.727828,789.329429 C881.706411,791.264217 882.814826,793.080271 882.553225,795.355691 C884.965771,796.928436 883.828289,799.390716 884.070513,801.504579 C884.167402,802.316256 883.934868,803.489975 884.382497,803.885108 C886.731096,805.94447 885.171176,808.667577 885.818398,810.956622 C886.465619,813.251506 887.713554,815.281671 887.535278,817.903562 C887.252361,822.125449 887.457766,826.374586 887.457766,830.61399 C887.457766,831.742941 886.98107,833.298168 887.537215,833.932716 C890.583418,837.397427 888.57587,841.446078 889.128139,845.171616 C889.288976,846.281102 889.137828,847.429517 889.153331,848.560414 C889.182398,850.183768 890.691934,851.209556 891.854607,850.16041 C893.495914,848.681095 895.565471,848.153603 897.390868,847.123922 C898.0284,846.75604 898.902342,846.787183 899.379038,845.810057 L899.379038,841.013962 C899.650328,840.74535 899.844107,840.544864 900.049513,840.348271 C902.713971,837.82565 902.746914,837.815918 904.72152,839.727348 C905.733045,840.706421 906.70969,841.722476 907.740593,842.757997 L907.740593,847.916134 C909.879911,849.646543 911.621983,851.606635 911.393324,854.812466 C911.341004,855.550177 912.862167,856.39689 913.429939,856.969151 C917.016785,858.123406 920.934992,855.509301 923.977319,858.882528 C924.291241,859.238731 925.556616,859.188123 926.190273,858.318052 C927.781197,856.13217 929.860444,855.046042 932.639232,855.517087 C933.456978,855.661125 934.332858,855.450907 935.166107,855.561855 C936.74928,855.758449 938.475849,854.911735 939.907874,856.340442 C941.239135,857.656254 943.34551,857.642628 944.645766,859.287393 C945.604971,860.498095 946.451785,862.205147 948.397324,862.339453 C948.397324,866.571072 948.397324,870.80853 948.395386,875.042095 C949.645259,876.011436 950.278916,878.04744 952.34266,877.619217 C954.419969,877.194888 955.819052,878.50486 956.390699,879.879065 C957.390598,882.273219 959.250874,884.496085 958.605591,887.460553 C958.384683,888.47077 958.353679,890.15641 958.940828,890.602151 C960.421298,891.736941 959.851589,893.73207 961.215792,894.825984 C962.488918,895.84204 963.560515,897.124761 964.477089,898.053226 C969.736245,898.053226 974.522582,898.222568 979.283727,897.973421 C981.711775,897.848847 983.019782,899.184123 983.820089,900.846406 C984.26578,901.786549 984.426616,902.827909 985.250176,903.635693 C988.03284,906.370479 990.761245,909.150033 993.307499,911.709637 C995.859566,911.402095 997.989195,912.217665 999.99093,910.240055 C1001.08384,909.165605 1003.44213,910.045408 1005.15126,908.46293 C1006.58328,907.131547 1009.36207,909.190909 1011.34055,907.20162 C1012.8249,905.70284 1015.05336,906.726682 1016.94076,906.580697 C1018.61695,906.448337 1020.31251,906.547607 1022.11659,906.547607 C1023.23276,905.399192 1024.86825,904.383136 1025.47478,902.938858 C1026.37004,900.784119 1028.57718,899.069282 1027.95321,896.350067 C1028.9938,896.575858 1030.18942,895.822575 1031.08661,896.939847 C1032.86163,899.11405 1035.26255,897.615271 1037.34373,897.965635 C1040.2601,895.168562 1045.09295,895.28535 1046.99585,891.503365 C1049.73589,891.246431 1052.38097,891.526723 1054.58423,890.664438 C1056.9619,889.73792 1059.21554,888.301427 1061.58546,887.199727 C1062.05828,886.973937 1062.42065,886.197297 1062.84115,886.197297 C1066.19546,886.142795 1069.56333,886.166153 1072.91183,886.353014 C1073.19669,886.368586 1073.57068,887.742791 1073.59006,888.494127 C1073.60362,888.898992 1073.02616,889.420646 1072.59791,889.730134 C1071.7259,890.351057 1071.75885,891.33013 1072.02045,891.999714 C1072.52621,893.264918 1073.86522,892.774408 1074.90388,892.97684 C1076.59557,893.311633 1077.0587,891.384631 1078.42678,891.254217 C1079.75804,891.127697 1080.99628,891.376845 1082.30235,890.343271 C1084.40679,888.688774 1087.11,889.823564 1089.53805,889.553005 C1090.6019,891.353487 1093.02995,890.818209 1094.29532,892.371489 C1095.00261,893.24156 1095.88043,893.911144 1095.66728,895.213331 C1095.25065,897.747631 1098.61659,899.370984 1097.35703,902.131074 C1099.98467,905.352476 1103.03087,907.954903 1107.38702,908.221568 C1109.90614,908.375339 1112.54735,907.830329 1114.95214,908.383125 C1116.90543,908.832759 1117.56428,912.03859 1120.29269,911.738834 C1122.41263,915.421549 1124.4473,911.77971 1126.51492,911.629832 C1128.01865,911.51499 1129.25883,911.830318 1130.12308,913.120825 C1131.38071,915.001112 1133.20417,915.279457 1135.99652,914.956344 C1137.08362,913.735909 1138.4517,911.933481 1140.10269,910.440541 C1141.6878,909.011834 1142.84272,907.20162 1145.17195,906.38605 C1147.06129,905.724252 1148.43712,903.606496 1150.2567,901.936427 C1148.9642,900.12232 1150.82447,898.035708 1149.01264,896.270262 C1148.12126,895.409924 1147.78215,893.994843 1147.17174,892.836695 C1145.66027,889.96371 1144.04803,887.129654 1144.74757,883.672729 C1145.01499,882.343292 1144.24568,880.928211 1145.2669,879.641596 C1146.56328,877.977367 1147.07292,875.87129 1148.14064,874.072755 C1148.54563,873.377866 1148.92157,872.642102 1149.46802,872.091252 C1151.03763,870.497095 1152.45222,868.461091 1154.36675,867.612431 C1155.82978,866.972044 1156.16114,866.48932 1156.7793,865.107329 C1157.43427,863.633853 1158.59307,862.442616 1158.29077,860.636294 C1158.29077,854.724875 1158.2869,848.809562 1158.31402,842.892303 C1158.31402,842.685977 1158.63376,842.475759 1158.89342,842.158485 C1160.12198,842.0125 1161.46681,841.924909 1162.76319,841.62126 C1163.05579,841.55508 1163.17012,840.7181 1163.36778,840.239269 C1163.36778,839.390609 1163.40459,838.545843 1163.36002,837.704969" id="Fill-125" transform="translate(1021.188324, 826.591010) rotate(-6.000000) translate(-1021.188324, -826.591010) "></path>
        </g>
    </g>
</svg>