<?xml version="1.0" encoding="UTF-8" standalone="no"?>
<svg width="197px" height="222px" viewBox="0 0 197 222" version="1.1" xmlns="http://www.w3.org/2000/svg" xmlns:xlink="http://www.w3.org/1999/xlink">
    <!-- Generator: sketchtool 47 (45396) - http://www.bohemiancoding.com/sketch -->
    <title>53E29477-F171-4BA9-ABE8-09972511BCF1</title>
    <desc>Created with sketchtool.</desc>
    <defs></defs>
    <g id="Page-1" stroke="none" stroke-width="1" fill="none" fill-rule="evenodd">
        <g id="Главная-страница" transform="translate(-507.000000, -553.000000)" stroke="#BCCCD2" fill="#EAF2F5">
            <path d="M699.962853,671.915394 C698.875754,669.750923 696.738374,668.113944 695.509816,666.745578 C692.994567,666.62879 691.335821,666.550931 689.671261,666.475019 C687.977634,663.818092 684.613634,663.41128 682.590584,661.122235 C680.563657,658.825405 678.294508,656.750471 676.193945,654.640501 L667.727749,654.640501 C666.039936,652.943182 664.532337,651.251702 662.836772,649.780173 C661.416374,648.544167 660.610254,646.611325 658.422491,646.196728 C656.050639,645.752933 655.219328,643.25367 653.444314,641.98652 L653.444314,637.737383 C652.888169,637.737383 652.30877,637.632274 651.781692,637.754901 C649.512542,638.278501 647.59607,637.126193 647.036049,635.372426 C646.200862,632.77 645.111825,631.31015 642.3311,630.644458 C640.949457,630.307719 639.966998,628.396289 638.750067,627.251766 C638.176482,626.712595 637.385865,625.813327 636.854911,625.912597 C633.783517,626.514055 632.49295,624.139366 630.677243,622.560781 C629.700597,621.708229 629.735478,620.69412 629.735478,619.584634 C629.735478,617.320893 628.336395,616.217246 626.359851,615.635252 L626.359851,607.987584 C628.574743,606.031385 630.037772,602.893681 633.924975,603.602195 C634.510187,603.705357 635.407383,602.060593 636.515798,600.834319 C636.515798,599.709261 636.465415,598.039193 636.5313,596.37107 C636.58362,595.002704 636.283263,593.204169 637.013809,592.378867 C638.474902,590.718531 638.387701,588.32827 640.422378,586.882045 C642.879494,585.139957 644.809531,582.650426 646.673683,580.777925 C646.673683,579.641188 646.718252,579.074766 646.663994,578.512238 C646.491531,576.781829 647.906116,576.042171 648.904077,575.230494 C650.250839,574.128794 650.074501,572.811036 650.057061,571.425152 C648.539772,571.31031 646.572918,572.145345 646.596171,569.23927 C646.60586,568.011049 644.615752,567.394019 644.933549,565.6967 C645.069194,564.958989 644.95874,563.728822 644.495609,563.415441 C643.313558,562.625175 643.121717,564.69427 642.044307,564.618357 C640.951395,564.548285 639.802286,564.631983 638.796574,564.293297 C637.808302,563.962398 638.583418,562.416903 638.137726,562.124933 C636.552616,561.103038 636.76771,559.224698 635.814319,557.943923 C634.35904,555.999402 633.688565,556.053903 631.103556,557.243195 C627.468266,558.90937 624.123643,560.60085 624.666224,565.472856 C622.639298,566.37991 623.302021,568.910317 621.730475,570.230021 C620.031035,571.648996 618.699775,573.515657 617.457653,574.909327 C615.738835,574.813951 614.343627,575.146796 613.601455,574.592053 C612.587991,573.838771 611.508643,573.015415 611.026134,571.47576 C610.314966,569.202287 609.23368,569.093285 607.671823,570.664083 C606.921899,571.421259 605.972383,572.003252 606.015014,573.377458 C606.115779,576.460661 606.046019,579.549704 606.046019,582.451886 C605.086814,583.429013 604.298134,584.232903 603.523019,585.025115 C601.614298,585.258691 599.616438,584.42755 597.82786,585.607109 C597.806544,587.824135 597.138008,589.743351 595.950143,591.641156 C594.696395,593.647963 592.973701,594.243582 590.890579,592.733124 C590.214291,592.242614 589.646519,591.60028 589.121378,591.101985 L589.121378,573.126364 C588.009088,573.126364 586.887109,573.040719 585.784508,573.143882 C584.030809,573.305439 582.501895,573.040719 581.476805,571.425152 C579.818058,571.892304 579.145646,570.216396 577.971346,569.821263 C576.725349,569.396933 575.223563,569.725886 573.832231,569.725886 L567.987862,569.725886 C565.957061,572.628068 562.920547,570.996929 560.343289,571.425152 C559.30851,571.203255 558.093517,571.96627 557.217637,570.839265 C556.36501,569.739512 555.500756,568.645597 555.231404,568.301073 C552.882805,567.74633 552.14257,568.565792 551.357766,569.381362 C549.999376,570.808122 548.590604,572.182327 546.803964,573.978916 C546.803964,574.642661 546.633438,575.752148 546.836906,576.781829 C547.311664,579.183769 545.577344,580.277683 544.218955,581.60712 C544.077496,581.751158 543.614365,581.521475 543.408959,581.644103 C541.389784,582.850912 539.122572,583.549694 537.165406,584.941417 C536.419358,585.472803 534.890443,585.085456 534.966017,583.432906 C535.033839,581.889357 534.123079,581.531208 532.888708,581.644103 C531.662088,581.755051 529.896763,581.005661 529.877385,583.32585 C529.474325,585.92633 530.776519,587.563308 533.03598,588.36136 C533.818846,588.635811 534.748984,588.666955 534.905945,589.5234 C535.105537,590.607582 534.958266,591.495171 536.48718,591.907822 C538.498604,592.452833 540.153475,594.288351 542.57571,593.509764 C544.120127,595.113653 545.678109,596.72922 547.443434,598.564739 L554.512484,598.564739 C554.847722,599.321914 555.229466,599.792959 555.237217,600.275683 C555.293413,603.088327 555.274035,605.906811 555.264346,608.725295 C555.260471,610.68928 555.248844,610.68928 553.574595,613.932094 C552.534003,614.161777 551.402335,613.468835 550.419876,614.510195 C548.329003,616.735006 546.127676,618.856655 544.151132,620.849837 C543.203554,620.604582 542.535017,620.637672 542.207531,620.318452 C538.386213,616.561771 534.619153,612.748642 530.83659,608.947193 C529.245667,608.939407 527.476466,608.209482 526.275037,609.916533 C525.647194,610.808015 524.319809,610.808015 524.062084,610.471276 C522.118482,607.993424 519.517971,608.978336 517.115114,608.894638 C516.32062,609.694636 515.229646,610.368113 514.811084,611.333561 C514.400272,612.283437 514.830461,613.570051 514.594051,614.644501 C514.373143,615.666396 512.780282,615.927223 512.925616,617.34425 C513.041883,618.461522 512.948869,619.602152 512.948869,620.733049 C512.948869,623.259563 512.855855,625.78997 512.974061,628.316484 C513.08839,630.691173 512.005167,633.42012 514.642496,635.193351 C514.876968,637.64006 513.741425,640.435186 515.289717,642.475083 C517.089922,644.853666 516.103588,647.28091 516.277989,649.659492 C516.506648,652.72907 516.334185,655.831739 516.334185,658.920781 C519.205987,660.984036 517.617001,664.032203 518.025874,666.646308 L521.41119,666.646308 L521.41119,675.981563 C523.151323,677.684721 524.649233,680.254058 527.373763,676.976208 C527.842708,676.413679 529.520832,676.836062 530.638936,676.847741 C533.968056,676.892509 535.983355,680.020482 534.493196,683.1504 C534.039754,684.102223 532.977846,684.760128 533.464231,686.745524 C534.638531,687.835546 536.390291,689.264252 537.905641,690.916803 C539.415178,692.557674 542.317984,692.012664 543.240372,694.589786 C543.283003,694.745503 543.405084,694.996597 543.408959,695.255477 C543.426399,696.952796 543.664747,698.700724 543.356639,700.339649 C542.947766,702.53137 544.511561,703.854968 545.085146,705.600948 C545.251796,706.110923 545.04639,706.733792 545.121964,707.288535 C545.309929,708.689991 543.870153,709.053981 543.476782,710.007749 C542.967143,711.241809 544.009673,712.754214 542.843125,713.998006 C540.814261,716.144959 541.818035,718.53522 542.064134,720.812587 C542.664849,720.939107 542.938077,721.073413 543.184176,721.03643 C544.600699,720.797015 546.631501,721.968788 546.869849,719.093856 C546.997743,717.573666 548.873521,716.616004 548.844455,714.813576 C548.840579,714.634501 549.733899,714.356156 550.235786,714.268565 C551.278316,714.073918 551.73951,714.731824 551.867404,715.642771 C551.942978,716.195567 551.880968,716.773668 551.880968,717.34009 L551.880968,729.285557 C555.10351,729.040302 556.093719,731.913287 558.438443,733.108417 L576.60133,733.108417 C578.48486,735.292353 581.401231,736.64904 580.65712,740.121537 C581.556254,741.131754 582.294551,742.418368 583.402966,743.076274 C584.443558,743.689411 585.288434,742.406689 586.23795,741.920073 C588.014902,741.00134 589.867427,740.991608 591.409906,742.834912 C592.293537,743.884058 593.551162,744.612036 594.196445,745.141475 C594.196445,747.352661 594.093743,748.775529 594.225512,750.178931 C594.380535,751.780873 593.537597,753.552158 594.952183,754.969186 C596.293132,756.302516 596.231123,758.433897 597.88018,759.739976 C599.29089,760.855302 601.141478,761.921966 601.052339,764.353103 C601.02521,765.112225 602.222763,765.299085 603.098643,765.267942 C604.191556,765.227066 605.307722,765.433392 606.115779,764.353103 C607.156372,762.971111 608.722104,763.498604 610.001044,763.62707 C611.400127,763.769163 610.884676,765.345801 611.309051,766.248961 C612.516293,768.798833 615.157498,772.654784 616.690289,773.297118 C619.352809,774.420229 622.005641,776.590539 625.071222,775.381784 C627.97209,774.233368 630.704372,772.580818 633.357203,770.908803 C635.262049,769.709779 635.41901,768.34336 633.835837,766.895188 C631.764342,764.989597 630.673367,762.503959 629.863372,760.033893 C629.218088,758.062122 630.194733,755.574537 628.053478,753.982327 C627.983717,751.553137 628.617374,748.939032 626.359851,747.047066 C626.443176,745.382837 626.466429,743.708876 626.671835,742.058272 C626.702839,741.799392 627.572906,741.653407 628.053478,741.452921 C630.17148,741.752676 630.797385,744.045614 632.384434,744.783325 L640.821563,744.783325 C641.689692,743.907415 642.482247,743.11131 643.284491,742.303527 C643.284491,740.905963 643.205042,739.492829 643.307745,738.091372 C643.422074,736.471912 642.800044,734.764861 643.767001,733.320582 C644.431662,732.650998 645.024625,732.053432 645.658282,731.418884 C648.853694,731.158058 651.919275,731.027644 655.019736,732.804769 C656.51377,733.661214 657.527233,734.840773 658.810049,735.802327 C660.054109,736.736632 660.993936,739.068499 662.825146,737.844171 C665.673694,735.928848 661.741922,734.760968 661.895008,733.007201 C662.042279,731.305989 660.486236,730.673387 659.528968,729.80721 C658.251966,728.647115 658.527132,727.313786 658.534883,725.970724 C658.542634,724.337638 659.788632,724.600411 660.860229,724.396032 C661.714793,724.232529 662.005461,723.366351 661.912448,722.455405 C661.807807,721.39458 662.239934,720.191664 661.114079,719.405291 C660.013415,718.63449 660.199443,717.493861 660.216883,716.394107 C660.22851,715.276835 661.846563,712.680248 662.923973,712.619908 C664.210664,712.553728 665.679508,711.987306 666.849931,713.240831 C668.190881,714.681216 669.401998,716.758096 671.054931,717.262231 C673.389966,717.968799 674.649528,719.617456 676.298586,721.050055 L684.660141,721.050055 C686.729699,723.921094 689.762337,722.363921 692.374475,722.747375 C692.103185,721.674871 693.238729,721.402366 693.533272,720.693852 C694.378148,718.659794 694.385899,716.242282 693.368561,714.437908 C691.550915,711.218452 690.448314,707.588291 687.489312,704.99949 C684.857796,702.694873 685.117459,700.937214 687.94663,699.191233 C688.5861,698.7961 689.648008,698.988801 690.173148,698.529435 C691.860961,697.04428 693.471263,695.450124 694.955609,693.764484 C696.604667,691.890036 699.648931,692.069111 700.836796,689.577634 C700.836796,687.621435 701.168157,685.575698 700.753471,683.695411 C700.247708,681.406366 702.239754,680.302719 702.557551,678.459415 C703.034247,675.720736 700.989881,673.955291 699.962853,671.915394" id="Fill-129" transform="translate(607.738372, 666.071539) rotate(-6.000000) translate(-607.738372, -666.071539) "></path>
        </g>
    </g>
</svg>