<?xml version="1.0" encoding="UTF-8" standalone="no"?>
<svg width="327px" height="253px" viewBox="0 0 327 253" version="1.1" xmlns="http://www.w3.org/2000/svg" xmlns:xlink="http://www.w3.org/1999/xlink">
    <!-- Generator: sketchtool 47 (45396) - http://www.bohemiancoding.com/sketch -->
    <title>C8621B61-FDC4-4F0B-B8EA-A276F46AE3A4</title>
    <desc>Created with sketchtool.</desc>
    <defs></defs>
    <g id="Page-1" stroke="none" stroke-width="1" fill="none" fill-rule="evenodd">
        <g id="Главная-страница" transform="translate(-536.000000, -321.000000)" stroke="#BCCCD2" fill="#EAF2F5">
            <path d="M863.338151,425.571302 C861.878996,424.448191 863.218008,422.5426 862.235549,420.940658 C860.472162,418.069619 859.26492,414.768412 857.571294,411.897373 C855.776902,408.835581 852.70357,406.530964 850.170881,403.912966 C848.996582,402.692532 847.903669,401.34363 846.558844,400.348986 C844.894284,399.120765 844.491224,397.244371 843.539771,395.644375 C843.030132,394.784037 841.960473,393.925645 841.012895,393.742677 C839.664195,393.483797 838.985969,393.03611 839.125489,391.679422 C839.31733,389.828332 838.348436,387.695005 840.466439,386.268245 C840.78036,386.058026 840.952824,384.931022 840.770671,384.792823 C838.174036,382.830784 840.233904,378.616684 836.962918,376.968026 C836.323448,376.646859 835.939766,375.879951 835.633595,375.004041 C835.009628,373.203559 832.500192,372.500885 831.194123,373.606478 C829.719466,374.852217 828.436651,376.325692 827.268165,377.497465 L827.268165,385.53832 L827.268165,392.800587 C827.92895,393.466279 828.335886,393.857519 828.727319,394.266277 C830.641853,396.284763 830.506208,396.226369 829.076121,399.603489 C828.673061,400.559204 828.624616,401.586938 827.853377,402.513457 C826.884483,403.691069 826.896109,403.9772 827.973519,405.328048 C828.973418,406.585465 829.500496,407.582056 828.202178,408.866724 C827.198404,409.857476 826.184941,410.848227 825.219923,411.872069 C824.528132,412.605887 823.493353,412.607833 822.964337,412.189343 C821.282337,410.85212 820.142918,408.78108 817.650923,408.578647 C817.435828,408.563075 817.114155,407.650183 817.14516,407.169405 C817.218796,406.116367 816.970759,405.117829 817.691616,403.996664 C819.086824,401.822461 818.648883,402.032679 816.468872,400.358718 C814.170655,398.595219 812.339446,397.984028 809.954029,399.912977 C809.403697,400.358718 808.438678,400.415165 807.655812,400.428791 C804.287936,400.483292 800.923936,400.454095 797.587065,400.454095 C796.197671,397.384517 794.909042,394.344135 791.171049,393.651193 C788.144224,390.626384 784.31128,392.535868 780.941466,391.833193 C779.662526,393.043896 778.474662,394.1709 777.263545,395.323208 C775.785012,389.880887 775.785012,389.880887 771.446305,387.677487 C772.149722,386.30912 774.548704,387.473108 774.715353,385.810825 C774.944012,383.490636 776.232642,382.507671 778.131674,381.721298 C779.966759,380.95439 782.495572,380.125195 784.202764,380.047337 C784.756971,380.022033 785.404192,380.171911 785.840195,379.928602 C786.22969,379.708651 786.537798,379.081889 786.595932,378.599165 C786.661817,378.114495 786.415718,377.166566 786.216125,377.143208 C783.824895,376.851238 782.230095,374.43178 779.486188,374.873628 C777.610409,375.173384 775.624176,374.776305 773.690264,374.688714 C771.71372,372.32181 769.202347,373.405992 766.944824,373.495529 C765.377153,374.860003 767.349821,377.012795 765.636817,378.196247 C764.222231,377.705737 764.685363,376.500874 764.65242,375.515962 C764.621416,374.667302 764.462517,373.232756 763.87343,373.405992 C761.555835,374.089202 760.949307,370.601133 758.641402,371.525705 C756.263736,372.473634 754.519727,370.66926 752.597441,369.822547 C748.975715,368.222551 749.000906,368.154424 746.530227,368.148585 C743.148787,368.140799 739.765409,368.136906 736.383969,368.152478 C735.531342,368.160264 734.731036,368.111602 734.190393,367.301872 C733.893911,365.001148 732.620784,363.994825 731.318591,365.086793 C730.456275,365.806986 729.638529,366.610876 728.938987,367.486786 C728.28789,368.306249 727.286054,368.413305 726.696966,368.076566 C725.54592,367.424499 724.807623,366.013311 723.133374,366.437641 C721.831181,366.76854 720.145305,365.680465 719.213229,367.099439 C718.306344,368.489217 716.692167,367.829365 715.632197,368.810384 C714.705934,369.670722 713.335918,370.021086 712.20425,370.671206 C709.888593,371.994804 707.708582,371.854658 705.305724,370.688724 C702.563754,369.357341 700.098888,367.856615 698.614542,365.121829 C698.87033,362.96709 697.725098,360.497024 700.172524,358.937904 C700.226782,357.332069 700.864314,355.689251 699.286955,354.313099 C697.851054,353.055681 698.59904,351.868337 699.765589,350.834763 C700.189964,350.464934 700.565895,350.040604 700.965079,349.639632 L711.810879,349.639632 C713.376612,351.340844 714.901651,352.993395 716.366618,354.581711 C717.831586,354.256651 719.339185,355.15008 720.337146,354.011397 C721.096759,352.380257 719.951526,350.573936 721.6219,349.209463 C723.350406,347.794382 721.164582,344.592444 723.968561,343.346705 C724.282483,343.206559 724.015068,341.744763 724.015068,340.896103 L724.015068,333.779821 C721.827305,331.446007 719.905019,329.396377 717.978858,327.340908 C715.260142,327.773024 715.546934,325.89663 715.529494,324.189579 C715.521743,323.679604 715.382222,323.095664 715.103181,322.68496 C714.550911,321.871337 711.413632,322.141896 710.510623,323.050896 L710.510623,329.355502 C707.136934,332.773497 703.991904,335.965703 700.767425,339.229928 C695.463699,338.690756 691.63463,341.429435 688.466347,345.363245 C688.466347,347.471268 688.474098,349.452771 688.456658,351.432328 C688.45472,351.689262 688.332639,351.942302 688.406275,351.652279 C687.340492,352.859088 686.695208,354.281956 685.830955,354.435726 C683.296328,354.88536 682.054206,356.160296 681.643395,358.649827 C681.503874,359.500433 680.53498,359.625007 679.649411,359.683401 C678.76578,359.743741 678.114683,360.269287 678.308462,361.343737 C676.930695,361.324272 675.47154,361.036195 674.56078,362.544707 C674.430948,362.756872 674.169347,362.969037 673.929061,363.03327 C670.698768,363.860519 672.012589,360.3452 670.518554,359.387538 C669.109782,358.48827 670.584439,358.272212 671.136708,357.964671 C671.355678,357.84399 671.766489,358.054208 671.95833,357.925741 C672.636556,357.474161 673.283777,356.971973 673.880616,356.426962 C675.23513,355.190956 675.318455,354.143756 674.15772,352.933054 C672.985358,351.708726 671.861441,350.408487 670.551496,349.351555 C668.923754,348.041583 670.762715,345.9939 669.18148,344.539889 C668.588517,344.485388 667.788211,344.323831 666.993718,344.358868 C664.042466,344.489281 661.058273,343.728212 658.285298,345.914095 C657.217577,346.756915 654.991059,346.28587 653.931089,344.518478 C653.830324,344.353028 647.875501,340.942818 647.792176,340.942818 C644.40686,340.942818 641.019607,340.940872 637.638167,340.942818 C635.940665,340.942818 635.297319,343.011913 633.307211,342.936001 C632.202671,342.891232 632.929342,344.896093 632.568913,345.869326 C631.834492,347.868347 630.15443,349.577345 630.91598,351.969553 C629.513022,353.376848 628.115877,354.780251 626.656722,356.243994 C625.612254,356.243994 624.482524,356.335478 623.372171,356.220636 C622.035098,356.084384 620.577881,356.779272 619.388079,355.765163 C618.426936,352.919429 616.576349,350.389022 617.349526,347.167619 C617.928925,344.754001 616.107404,343.632836 614.433155,342.71021 C613.799499,342.361793 612.830605,342.562279 612.305464,341.775906 C612.989503,340.360825 615.101692,341.559848 615.624895,340.090266 L615.624895,328.13312 C615.171453,327.677647 614.749015,327.29614 614.375022,326.87181 C613.377061,325.738966 612.253144,324.829966 610.912195,326.233369 C610.044065,327.140422 609.14687,327.350641 607.964819,327.385677 C606.647123,327.426553 605.16084,326.764754 603.996229,327.97935 C604.339218,331.206592 602.314229,333.528726 601.010098,336.111688 C600.275676,337.565699 600.304743,338.001707 601.052729,339.029442 C601.99837,340.327735 604.00398,340.880532 603.790824,343.531619 C602.341358,344.991469 600.502397,346.694628 598.8359,348.55545 C597.67904,349.845958 596.152063,349.705812 594.985515,349.343769 C593.487605,348.872724 592.074957,347.776863 591.987757,345.836236 C591.950939,344.98563 592.030388,344.131131 591.968379,343.288311 C591.886992,342.155467 589.776741,338.638202 588.596628,337.542341 C586.249966,338.525307 584.011821,340.93114 581.382243,337.999761 C581.089637,337.672754 580.405598,337.555966 579.909524,337.569592 C578.855367,337.596842 577.681068,337.168619 576.845881,338.285891 C575.076681,340.645009 571.863828,341.910212 571.509213,345.353512 C569.924102,346.943776 568.338992,348.535986 566.792637,350.091212 L566.792637,357.474161 C568.604469,357.847883 570.013241,358.511628 571.067397,359.868315 C571.801819,360.808459 571.989784,362.095073 571.079024,362.733514 C568.658727,364.43278 567.724713,368.076566 564.071983,368.148585 C562.781416,369.912084 560.494826,370.807459 559.814662,373.119861 C558.9756,375.961703 556.357648,377.337855 554.522563,379.342716 C553.472282,380.491131 551.460858,380.150499 550.408639,381.690155 C550.139287,382.083341 548.811902,381.748549 547.970902,381.748549 C547.740305,382.795748 548.170494,383.804018 547.441886,384.940754 C545.174674,388.475538 543.700017,392.459956 541.46381,396.041454 C540.942545,396.874542 541.219648,398.205926 541.11307,399.576238 C543.407411,401.86139 545.740508,404.286688 548.195685,406.583519 C549.311851,407.622932 549.782734,408.70906 549.720724,410.23509 C549.691658,410.943604 550.088904,411.848711 550.590791,412.380097 C553.121542,415.040917 555.784063,417.57327 558.310939,420.237983 C559.035671,421.004891 559.915427,421.063285 560.589777,420.804405 C562.905434,419.922656 563.558469,423.548923 565.804365,422.612673 C565.808241,422.610726 568.280858,428.345018 568.284734,428.372268 C568.726549,430.743065 568.726549,430.743065 571.183665,431.056446 C573.113701,431.301701 573.233844,431.299754 573.313294,433.614103 C573.355925,434.832592 573.52645,435.817504 574.561229,436.506553 C577.006718,438.141585 579.409575,439.899245 582.604987,439.564452 C583.165008,439.506058 583.730842,439.560559 584.279236,439.560559 C585.083418,440.058855 585.362459,440.817977 585.199685,441.684155 C584.449761,445.697769 586.893312,447.982921 589.860065,449.64715 C590.755324,450.143499 591.716466,450.55615 592.607849,451.169287 C593.631001,451.871962 594.714224,451.521598 595.458335,450.503596 C596.04936,449.693866 597.09189,449.436932 597.648036,449.828172 C598.727383,450.587294 600.056706,451.618921 600.326059,452.767337 C600.767874,454.643731 600.444264,456.701146 600.444264,459.110872 C601.794902,460.469506 603.31219,462.096752 604.945745,463.595532 C605.999902,464.564872 605.294547,465.719127 605.523206,466.76438 C606.93004,466.970705 607.284655,465.604285 608.127593,464.969737 C608.780628,464.48312 609.338711,463.87193 609.811531,463.432028 C611.695061,462.968769 612.377162,464.411101 613.36931,465.292851 C614.198683,466.034454 615.020305,466.783844 615.681091,467.381409 L615.681091,475.2646 C615.590015,477.421285 616.326374,479.8096 613.985526,481.329791 C614.733512,483.503994 612.041925,484.278688 612.105872,486.559947 C612.19501,489.639257 610.561455,490.501542 607.214895,490.563829 C606.375833,490.579401 605.529019,490.565776 604.709335,490.565776 C603.546662,491.330737 603.83733,492.512242 603.83733,493.590585 C603.83733,494.840217 603.56604,495.708341 602.031312,495.692769 C600.40357,495.673305 599.886181,497.302497 598.874655,498.186193 C598.587863,498.431448 598.533605,499.457236 598.793268,499.758938 C600.432637,501.639225 602.188273,503.414403 604.114434,505.444568 C602.831618,507.793953 601.451913,510.211465 602.161144,513.053307 C602.283224,513.534084 602.67272,514.250384 603.027335,514.306831 C603.781135,514.429459 604.664766,514.649409 605.310049,513.769606 C605.804185,513.096129 606.64131,512.644549 607.030805,511.934088 C607.393171,511.282022 607.360229,510.408058 607.571448,509.269375 C610.693224,509.269375 613.749116,509.44845 616.772065,509.207088 C618.872628,509.041639 619.688436,511.819247 621.992466,511.013409 C623.994201,510.314628 625.482423,512.146253 627.205116,512.531654 C629.131277,512.961823 629.305678,513.831893 629.235918,515.346245 C629.201038,516.148189 628.999508,517.055242 630.385026,517.882491 C631.799612,516.056705 633.305273,514.110238 634.380745,512.720461 L640.405328,512.720461 C642.083453,516.381765 643.585238,520.132606 646.852349,522.772015 C648.158418,523.825054 649.210637,525.191474 650.464386,526.322371 C651.183305,526.968598 651.229812,527.716041 651.229812,528.556915 C651.235625,530.238662 648.625425,535.647893 647.232155,536.157868 C645.726494,536.706771 644.211144,536.763219 642.635722,535.614804 C640.868459,534.32235 640.116598,534.51505 639.23878,535.811397 C638.054791,537.547645 636.810731,539.320876 636.091812,541.26345 C635.67325,542.392401 635.518227,544.058577 636.930874,545.070739 C638.06448,545.878523 637.554842,547.087279 637.690487,548.14421 C637.814506,549.084354 637.434699,549.899923 636.578197,550.038123 C633.045609,550.61817 632.34413,552.969502 632.596042,556.037133 C632.665803,556.8819 632.605731,557.732506 632.605731,558.579219 C632.605731,559.427878 632.568913,560.274592 632.613483,561.117412 C632.78207,564.531514 636.105377,566.799148 638.849284,564.80402 C641.164941,563.124219 642.205533,563.758767 643.629807,565.393799 C643.999925,565.822022 644.420425,566.19769 644.97657,566.750487 C646.065607,567.550484 647.49957,566.937347 648.840519,567.056082 C649.958623,567.159245 651.098042,567.174816 652.210333,567.056082 C653.469895,566.917883 654.146183,567.799632 655.089886,568.299874 C657.386165,569.502791 658.90539,568.889654 660.843178,566.826399 C661.565973,566.059491 661.565973,565.183581 661.290807,564.531514 C660.895499,563.583585 659.612683,563.200131 659.657252,561.806461 C659.738639,559.272161 654.824409,558.900386 656.706001,555.778253 C657.7931,553.979718 659.568114,552.644442 660.267655,550.454666 C660.573826,549.497005 662.211257,548.955887 662.486423,548.004065 C663.141395,545.734484 665.207077,544.015754 664.821457,541.312112 C664.546291,539.394842 664.765261,537.409446 664.765261,535.626482 C665.929872,534.456656 666.916206,533.452279 667.918042,532.46542 C668.311413,532.078073 668.770669,531.398756 669.150476,531.4299 C671.588213,531.6226 672.231559,529.290733 673.799229,528.296088 C674.663483,527.749131 675.903667,527.690737 676.612897,527.025045 C677.595356,526.10242 678.65145,526.425534 679.701731,526.254245 C681.527128,525.956435 682.100713,528.350589 684.077257,528.060566 C685.582918,527.842562 687.121522,527.790007 688.774455,528.909225 C690.747123,530.238662 693.301128,530.396326 695.576091,528.558861 C696.928667,527.46884 698.527342,527.723827 700.13183,528.580272 C702.197512,529.674187 704.375586,530.616277 706.410264,531.71603 C708.23566,532.704836 709.632805,534.339868 711.68686,535.307262 C717.283192,537.938885 717.182427,538.149103 722.321441,538.174407 C722.594669,538.174407 723.036485,538.287302 723.121747,538.156889 C724.170091,536.58609 725.658312,536.235726 727.39457,536.473195 C727.214356,534.166632 729.423434,535.244975 730.264434,534.421619 C732.250667,532.492671 734.184579,530.509221 735.860766,528.821634 C735.860766,526.312639 735.438328,524.206562 735.996411,522.404133 C736.445978,520.965694 738.098911,519.910709 739.180197,518.657185 C739.321655,518.489789 739.230579,518.11996 739.248019,517.847454 C739.38754,515.196367 743.197231,514.733108 742.856181,511.677155 C742.796109,511.153555 743.956844,510.487863 744.551745,509.890298 C745.148584,509.290786 745.656284,508.333125 746.353888,508.157943 C749.533798,507.363784 751.155727,504.665981 753.405499,502.729247 C755.097188,501.269397 755.885867,499.266482 757.075669,497.497144 C758.377863,495.564302 757.901167,493.691801 757.771335,491.877694 C757.602747,489.442664 758.957261,487.85824 760.621821,487.336587 C762.069349,486.890846 763.071185,486.236833 763.981946,485.244135 C765.065169,484.074309 766.822743,483.260686 766.377052,481.168234 C768.0513,479.083568 769.932893,477.650968 773.103114,479.342448 L773.103114,483.225649 C773.103114,483.507887 773.054669,483.799857 773.108927,484.074309 C773.519738,486.23878 776.379913,487.811525 777.910766,486.433427 C779.18583,485.283065 781.216632,485.839754 782.061508,484.124917 C783.007148,482.201808 785.636727,482.633923 786.661817,481.090375 C787.99889,479.069943 790.277729,478.814956 792.00236,477.565324 C794.004095,476.117153 796.341068,477.376517 798.490075,476.965812 L806.109457,476.965812 C808.857241,474.178472 811.618589,471.377506 814.488453,468.461699 C817.769128,468.461699 821.121501,468.436395 824.468061,468.481163 C825.258678,468.492842 826.372906,468.451966 826.770153,468.921065 C828.591674,471.068018 830.942211,469.851476 833.899275,470.297217 C835.69948,468.12496 837.83686,465.55757 839.656443,463.363902 C842.867358,463.363902 845.394234,463.319133 847.921109,463.377527 C849.715501,463.41451 851.000254,463.455386 851.137837,460.854906 C851.209536,459.509898 854.01739,460.025711 855.073485,458.491896 C855.743959,457.512823 856.612089,456.393604 855.817595,455.626696 C854.213107,454.069523 854.33325,451.482669 852.321826,450.262234 C850.940183,449.419414 850.85492,448.054941 850.949872,446.602876 C851.023508,445.536212 850.963436,444.461763 850.963436,443.850572 C852.833402,441.79705 855.110303,440.648634 854.348752,437.857401 C856.081135,438.085138 857.631365,437.795114 858.577006,436.146457 C859.468388,434.595123 860.82484,433.053521 860.999241,431.400971 C861.287971,428.627255 863.057171,429.514844 864.506637,429.355234 C864.522139,427.973242 864.723669,426.632127 863.338151,425.571302" id="Fill-117" transform="translate(702.819263, 445.555853) rotate(-6.000000) translate(-702.819263, -445.555853) "></path>
        </g>
    </g>
</svg>