<svg xmlns="http://www.w3.org/2000/svg" width="192" height="151" viewBox="0 0 192 151">
    <path fill="#EAF2F5" fill-rule="evenodd" stroke="#BCCCD2" d="M189.647 62.125c-.058-.48-.487-.908-.9-1.626l-7.028.738c-1.95-1.64-3.667-3.084-5.371-4.52-2.328 1.03-4.165-.625-6.223-.956-1.564-.251-1.51-1.15-1.821-2.205-.246-.835-1.174-.769-1.982-.96-2.33-.557-3.796-2.05-3.667-4.678-1.454-.005-3.161 1.072-3.698-1.662-.281-1.435-1.748-2.633-3.57-2.701.134-2.633-1.764-5.503.875-7.85l-.793-7.545c-.277.03-.556.05-.832.092-1.081.149-2.341.488-2.637-1.046-.318-1.615-.38-3.278-.542-4.819-2.225-.72-3.996-.818-5.353 1.125-.76 1.084-2.032.646-3.073.794-1.375.192-2.4.857-3.598 1.522-2.678 1.483-5.772 2.055-8.198-1.525-.126-1.204-.313-2.871-.471-4.542-.185-1.92-.088-3.887-2.167-5.08-.348-.198-.567-1.553.254-2.248.945-.802 1.455-2.067.704-2.91-.848-.95-1.756-2.158-3.33-2.237-1.841-.098-3.63 1.092-5.583-.368-1.444-1.076-1.348-2.943-2.723-3.858-.184-.121-.547.036-.825.065-1.374 4.032-2.632 8.047-7.125 9.956-1.07.457-1.61 2.183-2.145 2.967-2.96.415-5.558.052-7.242 2.453-.185.262-1.28.293-1.533.026-1.488-1.568-3.487-2.423-4.743-4.455-2.336-3.78-4.81-3.98-8.707-1.498-.433.274-.842.612-1.307.826-.71.325-1.867-.246-1.95-.944-.253-2.203-.471-4.411-.674-6.337-.815-1.085-1.692-.862-2.466-.7-3.412.723-5.94-.002-6.842-3.83-.057-.248-.932-.3-1.429-.448-.457.251-1.292.476-1.308.752-.08 1.374-.064 2.782.156 4.137.221 1.345-.457 2.322-1.311 2.856-2.445 1.521-4.493 3.801-7.838 3.68-1.817-.068-3.501 2.258-3.398 3.91.052.847.172 1.69.26 2.537.267 2.534.537 5.068.794 7.605.028.26-.037.53-.06.785-1.161 1.608-2.238 3.337-4.652 2.916-1.677.247-2.687-1.34-4.426-1.53-1.631-.174-3.06-2.242-4.595-3.49l-.927-8.827c-1.07-.772-2.327-1.932-3.793-2.674-1.669-.846-1.629-2.708-2.729-3.85-1.902-1.993-3.903-2.025-6.371-.053-.396.315-.899.497-1.354.743l-4.18.44c-1.186 1.455-.781 3.689-2.445 4.952-.924.698-1.093 1.704-1.07 2.932.05 2.455-.099 2.465-2.463 2.997-.274.062-.566.03-.835.098-1.015.263-1.852 1.974-1.11 2.528 2.28 1.708 2.418 3.155.482 5.388-1.91 2.207-4.6 4.083-4.632 7.517-2.262 2.097-2.866 5.046-3.949 7.757-1.115 2.796-3.895 6.212-6.04 7.442-.446.256-1.097.144-1.654.203.088.832-.12 2.16.314 2.427 2.016 1.22 2.041 3.109 2.185 5.053.098 1.395.278 2.789.424 4.179l.355 3.382c2.46.972 4.874 1.913 7.177 3.36 3.49 2.19 7.494 2.897 11.519 1.124.696-.306 1.197-1.385 1.842-1.439 2.18-.19 4.35-.974 6.772-.373l1.312 12.48c-.66.82-1.367 1.698-2.076 2.573-1.235 1.535-3.309 2.978-3.482 4.629-.185 1.76-1.6 2.779-1.57 4.492.03 1.821-2.064 3.29-1.081 5.375-1.162 1.78-.931 4.174-2.505 5.78-.557.573-.886 1.303-1.923 1.386-3.64.295-7.267.73-10.88 1.11-.829 1.39-2.499 2.242-2.17 4.317.126.77-1.006.957-1.766 1.292-1.551.678-1.654 1.982-.553 3.115 1.284 1.335 3.233 1.909 3.455 4.41.173 1.906-1.788 2.733-1.437 4.555.115.597-.941 1.336-1.084 2.085-.304 1.6-.55 3.354 1.083 4.468 2.302 1.58 3.378 4.072 4.832 6.285 2.128-.315 4.574.171 5.833-2.325 1.324.121 2.782-.966 3.963.274.884.925 2.253.396 2.953.937 2.456 1.886 4.357 1.786 6.442-.586.94-1.07 1.637-.626 2.894 1.192.447.655.906 1.331 1.478 1.86 1.656 1.535 1.789 1.634 4.004-.297 1.022-.9 2.085-.53 3.094-.858.15-.501.196-1.371.457-1.445 1.326-.365 2.734-.41 4.057-.765 1.807-.494 2.676 2.032 4.54 1.268 1.988-.813 3.044.835 4.35 1.798.45.326 1.018 1.055 1.311.952 3.754-1.267 5.562 1.791 7.97 3.502l.621 5.915c.557-.058 1.198.033 1.664-.208 1.153-.59 2.153-1.57 3.357-1.961 1.297-.42 2.75-.356 4.108-.499 1.02-2.037 3.615-3.032 3.568-5.536-.029-1.369 1.392-1.812 1.408-2.847.021-1.668-.299-3.343-.464-4.914.798-.992 1.505-1.867 2.258-2.8 3.856-.405 7.765-.79 11.665-1.251.771-.093 1.832-.25 2.2-.77 1.396-1.994 3.519-1.266 5.317-1.707.84-.089 1.773-.455 2.5-.204 1.272.435.9 1.84 1.215 2.862.508 1.646-1.488 2.269-1.34 3.703.456 4.446.93 8.896 1.403 13.397 4.646.547 8.312-.725 11.552-3.432l-.886-8.434c2.545-2.979 2.562-2.822 5.395-3.188 2.324-.3 4.04 1.141 6.018 1.75 3.518 1.07 3.885 1.202 6.289-1.415 2.318-2.524 3.932-2.594 6.971-.28.448.346.878.715 1.51 1.234 2.038-.214 4.26-.418 6.468-.705.784-.102 1.804-.172 2.265-.677 2.131-2.326 4.148-2.082 6.476-.283.482.372 1.628-.105 2.466-.193-.68-2.557.582-5.756-2.49-7.506-.322-3.072-.475-6.178-1.023-9.205-.423-2.35.304-4.866-1.734-7.042-1.753-1.866-.916-4.767-1.405-7.176-2.809-1.488-2.014-4.313-2.378-6.664-.382-2.5-.554-5.025-.818-7.538-.118-1.125-.145-2.269-.377-3.368-.293-1.394 1.264-1.822 1.377-2.859.123-1.093-.44-2.328-.13-3.315.315-1.004 1.33-1.788 2.036-2.667 2.398-.168 4.882-1.42 7.074.84.291.31 1.611.171 2.143-.781 1.016-1.823 2.852-1.284 4.435-1.44 4.159 3.382 8.304 6.78 12.497 10.12.36.283 1.02.178 1.988.323 1.758-2.187 3.725-4.527 5.572-6.96.868-1.139 2.066-.566 3.077-.903 1.326-3.4 1.338-3.401 1.137-5.355-.285-2.804-.561-5.611-.91-8.4"/>
</svg>
