<?xml version="1.0" encoding="UTF-8" standalone="no"?>
<svg width="278px" height="329px" viewBox="0 0 278 329" version="1.1" xmlns="http://www.w3.org/2000/svg" xmlns:xlink="http://www.w3.org/1999/xlink">
    <!-- Generator: sketchtool 47 (45396) - http://www.bohemiancoding.com/sketch -->
    <title>FF8FE665-7190-4263-B068-F6A1A96DA798</title>
    <desc>Created with sketchtool.</desc>
    <defs></defs>
    <g id="Page-1" stroke="none" stroke-width="1" fill="none" fill-rule="evenodd">
        <g id="Главная-страница" transform="translate(-736.000000, -342.000000)" stroke="#BCCCD2" fill="#EAF2F5">
            <path d="M949.916413,475.858202 C950.645021,475.124384 951.319371,474.589106 951.815445,473.917575 C952.451039,473.049451 953.334671,473.24799 954.084595,473.372564 C954.448899,473.429012 954.933346,474.155044 954.954661,474.594945 C955.0438,476.843114 955.099995,479.101016 954.962413,481.345292 C954.855834,483.067915 956.02432,484.28251 957.076539,484.599785 C959.903772,485.45623 961.519887,487.624594 963.455737,489.489309 L963.455737,493.711196 L963.455737,494.577373 C964.382,493.524335 964.928456,494.092703 965.110608,494.820682 C965.29276,495.540875 965.15324,496.342819 965.15324,497.109727 C965.164866,497.119459 965.172618,497.127245 965.184244,497.136977 C965.312138,497.012403 965.738452,497.00851 965.887661,497.133084 C966.211272,497.391964 966.441869,497.775418 966.70347,498.098532 C966.387611,497.997316 966.104694,497.899992 965.850843,497.804615 C966.385673,498.44111 966.219023,498.651328 966.172516,498.626024 C965.804336,498.423592 965.438095,498.174444 965.174555,497.851331 C965.112546,497.779311 965.083479,497.63138 965.083479,497.487341 C963.969251,496.977367 963.630138,496.52968 963.498369,496.000241 C963.318154,495.281994 963.455737,494.478104 963.455737,493.711196 C960.826159,491.930179 958.969758,490.205609 957.299385,488.317536 C956.264606,487.157442 955.092244,487.013403 953.666032,486.842114 C951.208917,486.542358 949.959044,484.846986 949.920288,482.421688 C949.904786,481.294684 949.916413,480.169626 949.916413,479.044568 L949.916413,475.858202 Z M1004.95541,565.152367 L998.113076,565.152367 C996.83026,563.750911 995.493187,562.298847 994.028219,560.708583 C993.973961,556.90908 993.96621,556.905187 995.626894,553.228311 C996.496961,551.279898 997.95224,549.54365 997.357339,547.118352 C997.097675,546.061421 997.310832,544.887701 997.310832,543.826877 C994.440968,540.944159 991.650553,538.143194 988.852387,535.326656 C989.020975,532.936395 988.288491,530.452703 990.431684,528.290179 C991.137039,527.577772 990.511134,525.563179 990.551827,524.15199 C990.60221,522.649318 988.358251,522.295061 988.943463,520.375845 C989.939486,517.995316 992.946933,516.916973 993.987525,514.479997 C993.71236,512.01577 990.877376,511.435722 990.683597,509.660545 C990.460751,507.605076 988.976406,506.898508 988.015263,505.627466 C986.821585,504.064453 986.837088,501.970054 988.094712,500.426506 C988.276864,500.208502 988.505523,500.03332 988.689613,499.823101 C991.044025,497.121406 991.082781,496.611431 989.406595,493.413386 C988.681862,492.013877 988.414447,490.421667 987.207205,489.203179 C986.532855,488.525808 987.649021,487.00951 988.707053,486.898562 C990.89094,486.674718 993.148463,487.412429 995.359479,486.49759 C995.51644,485.082508 995.669525,483.743339 995.818735,482.421688 C997.36509,481.281059 999.091659,482.034341 1000.7039,481.810498 C999.899717,479.165249 1002.5448,477.520485 1002.57193,474.884969 C1002.59906,472.220256 1000.07024,470.705904 1000.6012,467.939975 C1001.07014,465.485481 1000.76203,462.865536 1000.67096,460.32929 C1000.62057,459.005692 1001.25229,457.506913 999.971415,456.397427 C994.685129,456.10935 989.391092,456.543412 984.12806,456.161904 C984.112558,454.096703 982.087569,452.887947 982.229028,451.616904 C982.579767,448.469468 980.452076,447.128352 978.698378,445.246119 C978.698378,443.659748 978.671249,441.974108 978.700316,440.294307 C978.737134,437.861224 979.979256,436.381909 982.570078,435.936168 C983.628111,435.755146 984.695832,435.97899 985.571712,434.984346 C987.424237,432.876322 989.387217,430.879247 990.960701,429.203339 C993.435256,428.800421 995.473809,429.867084 997.264325,428.341054 C996.237297,425.674395 999.058717,423.982915 999.016085,421.505063 C998.967641,418.68074 999.004459,415.85447 999.004459,412.903626 C995.97182,410.941588 995.421489,406.933812 992.57294,404.625303 C991.989666,404.148418 992.179569,402.51144 992.280334,401.438937 C992.357846,400.564973 993.19497,400.43456 993.999152,400.117286 C996.456267,399.140159 999.000583,398.176658 1000.7039,395.924596 L1000.7039,388.2925 C999.934597,388.2925 999.13429,388.436538 998.421184,388.25357 C997.692576,388.070603 997.12868,387.519752 997.310832,386.595181 L995.619143,386.595181 C994.49135,386.028759 993.365495,385.460391 992.233827,384.892022 C991.106035,384.327547 989.98018,383.759179 988.852387,383.194703 C987.172325,383.062343 986.693691,384.609785 987.244023,385.328031 C989.100424,387.765007 989.131429,390.277896 988.524901,393.394189 C987.323472,393.394189 986.249938,393.407815 985.172528,393.384457 C984.91674,393.380564 984.511742,393.329956 984.432293,393.174239 C983.986601,392.232149 983.876148,390.867675 983.159166,390.365487 C981.787212,389.413665 982.519696,387.685202 981.504295,386.79956 L973.613622,386.79956 C973.629125,390.601009 973.601995,394.200027 973.629125,397.660845 C975.173542,399.210232 976.545495,400.635046 977.973645,402.011198 C979.529689,403.508031 980.74662,405.489534 983.242491,405.688074 C983.455648,405.703645 983.74244,406.612645 983.74244,407.105101 C983.738565,408.522129 983.730813,409.781493 985.011691,410.869568 C986.375894,412.029663 987.790479,413.248151 989.387217,415.838898 C986.6685,415.159581 984.744277,416.319675 983.26962,414.170776 C982.213525,412.633067 980.643917,411.706549 980.101336,409.503149 C979.552942,407.303641 977.045445,406.416052 974.677468,406.968849 C972.028512,404.337226 969.433813,401.760104 966.951507,399.297823 C966.951507,397.505127 966.306224,395.336763 967.108468,394.250635 C968.228509,392.740176 968.596689,391.402954 968.548244,389.690063 C968.497862,387.737757 968.53468,385.785451 968.53468,383.932414 C970.141106,382.451153 971.487869,381.002982 973.051664,379.856513 C973.594244,379.463326 975.035959,379.907121 975.158039,378.994228 C975.417703,377.073065 975.611482,375.007864 975.225862,373.117845 C974.758855,370.848264 976.735399,369.701795 977.002813,367.856545 C977.153961,366.793774 976.529993,366.291585 975.628922,366.213727 C974.555387,366.116403 973.470226,366.190369 972.425758,366.190369 C971.670021,375.605429 971.485931,376.020027 965.639625,381.586922 L957.444719,381.586922 C955.754968,383.282294 954.414019,385.561607 952.489795,386.299318 C950.538442,387.046761 948.577401,387.856491 948.406876,389.656973 C948.257666,391.258915 949.608304,393.0302 950.393108,394.68275 C950.617892,395.163528 951.402696,395.443819 951.507336,395.914864 C951.681737,396.664254 951.883267,397.532378 951.07521,398.219481 C950.466744,398.731401 949.858279,399.225804 949.88347,400.274949 C949.970671,403.949879 949.916413,407.626755 949.916413,411.249129 C949.46297,411.704603 949.065724,412.103628 948.664601,412.506547 C946.273371,414.910433 943.882141,417.312373 941.483159,419.718206 C942.407484,421.980001 938.905901,422.639853 939.58994,424.954202 C939.702332,425.339603 938.539659,426.188262 937.882749,426.713808 C936.696823,427.659791 936.183309,428.804313 936.353834,430.345915 C936.473977,431.46708 936.212376,432.642746 936.415843,433.738607 C936.725889,435.437872 934.753221,435.914757 934.712528,437.292855 C934.687336,438.367305 934.712528,439.560489 935.158219,440.485061 C935.371376,440.921069 936.640627,441.022286 937.406053,440.963892 C938.681118,440.862675 939.518242,441.421311 940.242975,442.338097 C941.828085,444.342958 943.360876,445.516678 945.610648,442.939555 C946.128037,442.349776 947.736401,442.719605 949.005652,442.637853 C950.534567,444.173615 952.059606,445.81838 953.712539,447.334678 C955.344157,448.83151 956.32274,450.68844 957.40015,452.595977 C958.452369,454.460692 960.421161,455.803755 961.767924,457.156549 C961.767924,460.712744 962.06053,463.869913 961.630341,466.927812 C961.432687,468.303964 960.254512,469.713206 959.53753,471.10493 C959.244924,471.657727 957.528044,471.552618 956.458385,471.566243 C955.999129,471.568189 955.535998,471.099091 955.18332,470.900551 C954.262871,467.66163 956.094081,464.305922 953.972203,461.082573 C952.119678,458.258249 954.067154,454.55023 952.95874,451.385275 L938.210235,451.385275 C935.729866,453.187703 934.148631,454.338065 932.828998,455.291834 L932.828998,468.782795 C930.796258,472.292275 927.680295,473.586675 924.771675,474.871343 C923.407472,475.472802 921.870807,476.23387 921.638272,477.228515 C921.086002,479.628508 919.40594,480.942373 917.906092,482.4976 C916.371364,484.085917 914.79788,485.631412 913.203081,487.233354 C909.707311,485.52241 907.39553,488.961817 904.349327,488.60172 C902.95412,488.432378 902.36697,490.351594 901.696495,490.188091 C899.382777,489.633348 898.704551,492.92677 896.489659,492.120932 C895.179714,494.153044 892.709035,494.483943 891.45141,493.341367 C889.945749,491.976894 887.622341,492.486868 886.539118,490.542348 C886.314334,490.145269 884.981136,490.38663 884.161452,490.302932 C883.866908,490.271789 878.743396,487.620701 878.553493,487.492234 C874.960834,485.07083 874.685668,480.498579 872.114224,477.395911 C871.730542,476.936545 871.839058,475.727789 872.734316,475.174992 C873.544311,474.678643 875.363894,475.169153 875.352267,476.119029 C875.323201,478.207588 877.016827,478.847975 878.014788,480.070356 C879.450689,479.466952 878.076797,477.283016 879.811118,476.847007 C880.838145,478.083014 882.295362,478.871333 882.293424,480.952106 C882.293424,483.564264 883.938606,485.061097 886.229072,485.199296 C887.354926,485.265476 888.486595,485.210975 890.218977,485.210975 C892.212961,483.093219 894.50924,480.662082 896.520664,478.526808 C899.18706,478.384716 901.67518,478.8616 903.562585,478.003209 C906.085585,476.85674 906.351062,473.625605 907.595122,471.29763 C907.715265,471.069894 907.664883,470.702012 907.829595,470.55408 C909.036836,469.502988 909.792574,467.945815 911.941581,468.11905 C913.782479,468.270875 915.832659,468.907369 917.754945,467.431947 C917.754945,465.861149 917.278249,463.976969 917.886714,462.563834 C918.518433,461.098144 919.473763,459.934157 919.543523,458.114211 C919.621035,455.996455 921.128634,454.439281 923.360966,454.672857 C925.856836,454.931737 926.734654,453.220793 928.265507,451.278219 C927.500081,449.917639 926.139754,448.51229 925.831645,446.624217 C925.715378,445.909864 924.622466,445.310352 924.587585,444.629089 C924.444189,441.518635 924.527514,438.396502 924.527514,435.282155 C926.279274,434.176562 925.740569,431.69287 927.36056,430.513311 C928.226751,429.884603 927.953523,428.967817 927.881825,428.193123 C927.759744,426.937652 928.802274,426.184369 929.038684,425.275369 C929.88356,422.034502 932.611966,420.46565 934.836546,417.830134 L934.836546,410.342076 C936.933233,408.237945 939.103555,406.057902 941.454092,403.702678 C941.454092,402.371294 941.500599,400.668136 941.446341,398.970817 C941.341701,396.006348 941.880406,393.055504 939.876733,390.238967 C938.741189,388.640917 940.153836,385.826326 942.659396,385.022436 C945.312228,384.167937 946.490403,382.06186 948.224724,380.387898 C947.893362,378.281821 949.77883,377.581093 950.815546,376.378176 C951.922023,375.093508 953.648592,374.155311 954.270622,372.703247 C955.09612,370.79571 956.824627,369.287198 956.723862,366.908615 C956.578528,363.527603 956.687044,360.129072 956.687044,356.999153 C955.162005,355.393318 953.803615,353.960718 952.501422,352.588459 C948.125896,352.541744 948.129772,352.539797 944.624313,350.889194 C942.95394,350.10866 941.465719,348.436645 939.419415,349.234697 C937.72385,349.894549 936.049601,350.786031 934.615638,351.89941 C933.332823,352.896001 931.997687,354.180669 931.429915,355.63468 C931.011353,356.707183 930.555972,357.5792 929.784733,358.353894 C926.597072,361.561671 923.417161,364.779181 920.204309,367.965547 C919.446634,368.716883 918.621136,369.259947 917.549539,369.717367 C915.650507,370.525151 913.662336,371.282326 911.964834,372.687675 C911.075389,373.421493 909.362385,373.09838 908.06988,373.427333 C907.598998,373.544121 907.292827,374.480371 906.854887,374.534872 C904.973295,374.752877 903.062636,374.78402 900.884562,374.900808 L900.884562,387.387393 C899.586244,388.685686 898.592159,389.688116 897.520562,390.768406 L897.520562,394.307082 C894.881295,396.008294 893.677929,399.61899 889.963189,400.24186 C889.581445,400.308039 889.135754,400.958159 889.005922,401.421418 C887.971143,405.146956 891.096795,408.056924 891.098733,411.613119 C891.098733,411.772729 892.042436,411.903142 892.523007,412.101682 C894.255389,412.82966 894.672014,413.915789 893.579101,415.095348 C892.627648,416.126975 891.517295,417.008725 890.744118,417.715292 L890.744118,424.921112 C893.643048,427.3795 891.920355,430.620367 892.375735,433.290919 C889.939936,436.422785 886.031417,436.615485 883.421217,438.93178 C883.029783,439.278251 882.142277,438.943459 882.305051,438.495772 C883.376648,435.447605 879.793678,433.600408 880.477717,430.667082 C880.793576,429.302609 880.270373,428.148354 879.334422,426.885097 C878.125242,425.259797 877.921774,422.896787 876.762977,421.2092 C875.505353,419.371735 873.650889,417.950815 872.052214,416.348872 L872.052214,412.095842 C870.604687,412.257399 868.835486,411.36981 868.546756,414.141579 C868.372355,415.794129 867.015903,417.335731 866.124521,418.887065 C865.17888,420.537669 863.62865,420.825746 861.896267,420.598009 C862.657818,423.389243 860.380917,424.537658 858.510952,426.591181 C858.510952,427.202371 858.569085,428.276821 858.497387,429.345431 C858.400498,430.795549 858.48576,432.161969 859.869341,433.002842 C861.878827,434.223277 861.760622,436.810131 863.365111,438.367305 C864.159604,439.136159 863.291475,440.253431 862.621,441.232504 C861.564906,442.76632 858.757051,442.250506 858.685353,443.595515 C858.54777,446.197941 857.263016,446.155119 855.468625,446.118136 C852.941749,446.059742 850.412936,446.10451 847.203959,446.10451 C845.384376,448.300125 843.246995,450.867515 841.444853,453.037825 C838.489726,452.592084 836.139189,453.808626 834.317668,451.66362 C833.920422,451.194521 832.804256,451.233451 832.015576,451.223718 C828.669016,451.178949 825.316643,451.202307 822.035968,451.202307 C819.164166,454.120061 816.404756,456.91908 813.656972,459.706421 L806.03759,459.706421 C803.888583,460.119072 801.551611,458.859707 799.547938,460.305932 C797.825244,461.555564 795.546406,461.810551 794.207394,463.830984 C793.184242,465.376478 790.554664,464.942416 789.607085,466.865525 C788.764148,468.580363 786.733346,468.02562 785.458281,469.174035 C783.927429,470.552134 781.067254,468.981335 780.656442,466.814917 C780.602184,466.540466 780.648691,466.248495 780.648691,465.966258 L780.648691,462.083057 C777.480408,460.393523 775.598816,461.824176 773.924567,463.908842 C774.370258,466.001294 772.612684,466.814917 771.527523,467.98669 C770.618701,468.977442 769.616864,469.631455 768.169336,470.077196 C766.504777,470.598849 765.148325,472.183273 765.31885,474.618303 C765.448682,476.43241 765.925378,478.304911 764.623184,480.237752 C763.433383,482.007091 762.642765,484.010005 760.951076,485.469855 C758.703242,487.408536 757.081313,490.106339 753.901403,490.900498 C753.201862,491.073733 752.696099,492.031395 752.09926,492.632853 C751.502422,493.228472 750.343625,493.894164 750.403696,494.41971 C750.744747,497.473716 746.935055,497.936975 746.795535,500.588063 C746.778095,500.860568 746.869171,501.232343 746.727712,501.397793 C745.646426,502.653264 743.991555,503.708249 743.543926,505.144742 C742.985843,506.949116 743.408281,509.055194 743.408281,511.562243 C741.730157,513.24983 739.796244,515.233279 737.811949,517.164174 C736.969012,517.98753 734.761871,516.907241 734.942085,519.213804 C734.942085,520.628885 734.71924,522.094575 735.023472,523.437637 C735.240505,524.393352 736.50588,524.798217 736.717099,526.1296 C737.085279,528.50429 739.596652,529.364628 740.91241,531.116448 C743.966364,530.984089 744.73179,534.05172 746.774219,535.326656 C749.242961,536.870204 749.781666,539.787958 751.533426,541.831748 C751.267949,545.148528 754.244392,547.675042 753.632051,551.167003 C753.259995,553.321742 753.566166,555.589376 753.566166,557.469663 C752.240719,558.801046 751.244696,559.799583 750.18085,560.872086 C750.18085,567.005403 749.833986,573.236044 750.333936,579.406343 C750.558719,582.207309 748.334138,583.855967 748.485286,586.337712 C746.867233,587.39075 746.636636,588.947924 746.772281,590.721155 C746.876922,592.118718 746.795535,593.5338 746.795535,594.925523 C748.004714,595.5445 749.244899,596.027224 750.304869,596.762988 C751.217567,597.401429 751.97718,598.283179 752.701913,599.137678 C753.575855,600.175144 754.976876,600.794121 755.356682,602.625746 C755.213286,603.398493 755.120272,604.490461 754.78891,605.508463 C754.548625,606.242281 753.64174,606.853472 753.620424,607.540575 C753.504157,611.491902 753.612673,615.454909 753.533224,619.402343 C753.511908,620.424239 754.066115,620.95757 754.678456,621.473384 C755.773307,622.399902 755.033072,623.59114 755.257855,624.6325 L761.164233,624.6325 C763.131088,624.6325 765.171578,624.303547 767.049295,624.720091 C769.326196,625.222279 770.407482,623.005254 772.271634,622.958538 C775.645323,622.87484 779.022887,622.937127 782.396576,622.937127 C784.64441,622.937127 786.956191,622.608174 789.126514,623.020825 C791.606883,623.487977 792.874196,620.727887 795.193728,621.226183 C796.445539,621.500635 797.298166,620.850515 798.028712,619.927889 C799.078993,618.604292 800.425756,617.917189 802.070938,617.430573 C802.983636,617.160014 803.69868,615.678752 804.871042,616.194566 C805.828309,616.615003 806.6945,617.485074 807.330095,618.353198 C807.926933,619.170714 807.965689,620.869979 808.605159,621.076305 C809.636062,621.413044 810.725099,621.385793 811.449832,622.411581 C812.048608,623.254401 813.375993,623.1999 813.655035,622.80866 C815.077371,620.815478 817.065542,621.267059 818.964574,621.239808 C820.627196,621.214504 822.297569,621.232022 823.869115,621.232022 C825.339896,622.779463 826.692472,624.196491 828.041173,625.617412 C827.364885,627.558039 829.486763,628.336626 829.895636,629.956086 C830.321949,631.635887 832.029141,632.986735 833.120115,634.407656 C833.120115,637.344875 832.560095,640.322969 833.271263,642.954592 C834.046378,645.835363 835.067592,648.544845 834.854436,651.614423 C834.738168,653.272812 836.404666,654.697626 838.596304,655.232904 C841.923486,656.058206 844.461989,657.311731 846.275758,659.110266 C848.480961,661.286416 850.614466,663.538478 852.860362,665.673752 C853.893203,666.664504 853.209164,667.797348 853.432009,668.836761 L856.821201,668.836761 C858.638846,668.533112 859.807332,666.4465 862.037726,667.059637 C862.549302,667.197836 863.368986,666.319979 864.006519,665.85672 C864.332067,665.615358 867.031406,659.912211 866.953894,659.480095 C866.58959,657.403215 868.337475,656.628521 869.424574,655.31271 L877.619479,655.31271 C880.140542,653.424637 881.94656,651.184254 883.227438,648.375502 C883.86497,646.979885 883.940544,645.261155 885.490774,644.198384 C886.845288,643.271866 887.88588,641.882089 888.969104,640.794014 C889.07762,639.005211 888.707502,637.463609 890.18991,635.986241 C891.308014,634.867022 892.720661,635.17651 893.774818,634.308386 C895.009189,633.290384 895.654472,631.394525 897.632954,631.449027 C899.138615,631.495742 899.40603,629.113266 902.231325,630.296718 C902.36697,630.429078 903.535456,631.250487 904.231122,632.377491 C905.500373,634.434907 907.848972,634.649018 909.542599,635.93174 C911.302111,637.265069 913.344539,635.999866 915.757085,637.012029 C916.0245,637.286481 916.772486,638.129301 917.586357,638.902048 C918.584318,639.848031 919.636537,640.731727 920.66744,641.632941 C923.364841,640.552652 924.973205,643.700089 927.550463,643.382815 C929.490189,643.149239 931.476422,643.336099 933.443277,643.336099 C933.679687,643.443155 933.970355,643.49571 934.144756,643.663106 C935.747307,645.243637 937.326604,646.855311 938.896212,648.439735 L944.042977,648.439735 C944.595247,649.01005 945.155267,649.642652 945.773422,650.21686 C947.856544,652.149701 949.050221,652.276221 951.532528,651.088877 C953.476129,650.156519 955.493366,649.370146 956.789747,647.491806 C957.578426,646.343391 958.812797,646.939009 959.841763,646.713219 C961.516012,646.347284 961.820244,648.511755 963.360786,648.478665 C964.403316,648.463093 965.659002,647.904457 966.500002,648.965281 C968.01729,650.874765 970.088786,649.88596 971.921933,650.139001 L976.101742,650.139001 C977.586088,647.770151 979.956002,648.511755 982.083694,648.445575 C983.195984,648.406645 984.321839,648.336573 985.426378,648.470879 C986.478597,648.58572 986.784767,647.663095 987.472682,647.306892 C989.391092,646.314194 988.334998,643.497656 990.396804,642.631478 C990.443311,640.973089 990.912256,639.174553 990.420058,637.693292 C989.954989,636.295729 988.769062,635.046097 986.860341,634.76386 C985.366307,634.541962 984.240452,633.243669 982.705724,632.706444 C981.413219,632.249024 980.132341,630.880658 980.320307,628.760956 C980.585783,625.705003 980.386191,622.608174 980.386191,619.532757 L984.622196,619.532757 C986.013528,618.131301 987.408735,616.729845 988.807818,615.328388 C987.885431,613.064648 991.509095,612.381438 990.596396,610.12159 C992.346219,607.71965 993.365495,604.725984 995.997012,603.028665 C997.826283,601.854945 997.219756,600.081714 997.351525,597.876367 C995.979572,596.626735 994.235562,595.190243 992.710523,593.555211 C992.291961,593.105577 992.346219,592.042806 992.481864,591.314827 C992.536122,591.015072 993.365495,590.649136 993.820876,590.670547 C994.840152,590.713369 995.42924,590.261789 995.603641,589.380039 C996.163661,586.386373 997.989058,585.091973 1000.88218,585.566911 C1003.26953,585.958151 1004.4012,584.354262 1005.77703,582.968378 C1005.77703,580.161573 1005.75571,577.32557 1005.79641,574.499301 C1005.80416,573.703196 1005.6065,572.936288 1006.32736,572.159648 C1008.955,569.308074 1007.17224,567.180585 1004.95541,565.152367 L1004.95541,565.152367 Z" id="Fill-115" transform="translate(871.249803, 508.930434) rotate(-6.000000) translate(-871.249803, -508.930434) "></path>
        </g>
    </g>
</svg>