<?xml version="1.0" encoding="UTF-8" standalone="no"?>
<svg width="186px" height="134px" viewBox="0 0 186 134" version="1.1" xmlns="http://www.w3.org/2000/svg" xmlns:xlink="http://www.w3.org/1999/xlink">
    <!-- Generator: sketchtool 47 (45396) - http://www.bohemiancoding.com/sketch -->
    <title>DF0A794A-D44E-4F8E-8F22-51E9AD8CFADD</title>
    <desc>Created with sketchtool.</desc>
    <defs></defs>
    <g id="Page-1" stroke="none" stroke-width="1" fill="none" fill-rule="evenodd">
        <g id="Главная-страница" transform="translate(-475.000000, -462.000000)" stroke="#BCCCD2" fill="#EAF2F5">
            <path d="M658.354413,540.986354 C657.100664,539.855457 656.048445,538.489037 654.742376,537.435998 C651.473328,534.796589 649.97348,531.045748 648.293418,527.38639 L642.268835,527.38639 C641.193362,528.776167 639.689639,530.722634 638.275054,532.546474 C636.887597,531.719225 637.089127,530.812172 637.124007,530.010227 C637.193768,528.495876 637.021305,527.627752 635.093206,527.195636 C633.370512,526.810236 631.882291,524.978611 629.880556,525.677392 C627.576526,526.48323 626.760717,523.705621 624.662093,523.873018 C621.639143,524.114379 618.581314,523.933358 615.459537,523.933358 C615.248319,525.073988 615.281261,525.946005 614.920832,526.598071 C614.529399,527.308532 613.692275,527.760112 613.200077,528.433589 C612.552855,529.313392 611.671162,529.095388 610.915425,528.970814 C610.562747,528.914367 610.173252,528.200013 610.049233,527.719236 C609.341941,524.875448 610.719708,522.457936 612.004461,520.108551 C610.0783,518.078386 608.322664,516.303208 606.681358,514.422921 C606.421694,514.121219 606.47789,513.095431 606.764683,512.850176 C607.776208,511.96648 608.293597,510.337287 609.919401,510.356752 C611.456067,510.372324 611.727358,509.506146 611.727358,508.254568 C611.727358,507.176225 611.436689,505.99472 612.599362,505.229758 C613.419047,505.229758 614.263922,505.243384 615.102984,505.227812 C618.449544,505.165525 620.0831,504.30324 619.995899,501.225876 C619.931952,498.942671 622.62354,498.167977 621.875554,495.993773 C624.216401,494.473583 623.480042,492.085268 623.56918,489.928583 L623.56918,482.045392 C622.910332,481.447827 622.08871,480.698437 621.257399,479.956833 C620.267189,479.075084 619.585088,477.632752 617.701558,478.096011 C617.228738,478.535913 616.670655,479.147103 616.015683,479.63372 C615.174683,480.268268 614.820067,481.634688 613.413233,481.428362 C613.583759,484.04636 610.587938,482.438579 609.983348,484.021056 C605.220266,486.506694 605.218328,486.405478 601.02883,486.567035 C598.941832,486.654626 596.672683,485.817645 594.793028,487.367033 L594.793028,492.470669 C597.719088,494.498887 596.040964,497.549 596.484717,500.130015 C594.878291,499.904225 593.15366,500.661401 591.659625,499.557754 C591.239125,498.600093 591.719696,497.107152 590.407814,496.787932 C589.361408,496.532945 588.173544,496.684769 587.086445,496.879416 C586.633003,496.96506 586.165996,497.564572 585.898581,498.041457 C584.524689,500.497898 582.207095,500.176731 579.984452,500.120283 C579.457374,500.102765 578.936109,499.931476 578.414844,499.832206 C575.02759,496.425889 571.619021,493.03709 568.255021,489.611309 C566.896632,488.223478 564.985973,486.942703 564.464708,485.259009 C563.526819,482.218628 560.627888,479.993816 560.957312,476.519373 C561.050325,475.516943 560.449611,475.006968 559.879901,474.407457 C557.422786,471.847853 554.593616,469.644452 553.231351,466.129133 C552.739153,464.865876 551.328443,463.910161 549.772399,464.457118 C546.774641,465.50821 544.91824,462.19727 541.986367,462.569045 C541.062042,462.68778 539.856738,461.025497 538.876217,460.085354 C537.946079,459.191926 536.742713,458.798739 536.045109,459.799223 C535.087842,461.165643 533.483353,460.630364 532.489268,461.55299 C531.464178,462.500919 530.547604,464.110647 529.421749,464.268311 C527.794007,464.501887 526.902625,465.350546 526.036434,466.376335 C525.03266,467.563679 523.885489,468.007474 522.385641,467.851756 C521.881816,467.797255 521.253973,467.904311 520.848975,468.178763 C519.314247,469.233748 518.59339,471.402112 516.171155,471.316467 C515.585943,471.295056 514.87865,472.320844 514.369012,472.970964 C512.582372,475.267795 510.425613,476.523266 507.3891,476.688716 C506.017146,476.764628 504.125865,477.887739 503.521275,479.073138 C502.569821,480.945639 504.893229,481.805977 505.875687,483.061448 C506.393077,483.723247 506.991853,484.322758 507.429793,484.809375 C509.278443,484.943681 510.863554,484.501833 512.305268,486.006452 C513.76636,487.536375 514.925157,489.447806 517.382272,490.062889 C518.769729,490.411307 520.569934,491.19184 521.465192,492.202056 C522.39533,493.245362 522.794514,494.98745 523.678146,496.316887 C524.102521,496.959221 524.305989,497.749487 524.594719,498.479412 C524.83113,499.088656 528.231948,501.621009 528.985747,501.833174 C530.85765,502.35872 531.983505,504.180613 532.163719,506.934863 C531.334346,506.934863 530.303443,506.621482 529.716293,507.001043 C528.600127,507.71345 527.87927,508.896902 526.216648,508.676951 C524.581155,508.46284 522.554229,508.048242 521.333422,508.78206 C519.893646,509.648238 518.715471,510.644829 516.965648,510.319769 C515.919242,510.127069 515.490991,510.923174 514.956162,511.489596 C514.2043,512.287647 513.541577,513.17329 513.078445,513.733872 L505.081194,513.733872 C505.081194,517.348461 505.088945,520.96305 505.059878,524.579585 C505.057941,524.797589 504.784713,525.011701 504.362275,525.63457 C503.032952,525.63457 501.409086,525.486639 499.822037,525.675446 C498.002454,525.889557 496.715763,525.134328 495.537588,523.933358 L480.585616,523.933358 C479.550837,525.496371 478.056802,525.891504 476.305042,525.63457 C476.316669,526.964007 476.159708,528.200013 477.351448,529.360108 C478.405604,530.383949 478.343595,530.973729 477.407643,532.083215 C476.655782,532.976643 476.351549,533.786373 476.217842,534.932842 C476.109325,535.874932 474.396321,536.161063 474.609477,537.535268 C474.888519,537.535268 475.266388,537.416534 475.434975,537.554733 C476.708102,538.607771 476.417434,540.456915 477.740943,541.675403 C479.531459,543.333793 481.434367,542.335255 483.255888,542.627225 C484.811931,542.868587 485.588984,544.164934 486.333095,545.200454 C486.991943,546.11724 486.352473,547.320157 485.329321,548.018938 C484.439876,548.626236 484.51545,549.994602 484.840998,550.230125 C486.7846,551.633527 486.482305,553.578048 486.464865,555.508943 C486.447425,557.184851 486.457113,558.864651 486.457113,560.075354 C488.497604,563.888482 491.634883,563.643227 494.452427,562.44615 C495.713927,561.912818 496.802964,561.358075 498.19042,561.309414 C499.240701,561.272431 500.45957,561.840799 501.329636,560.840315 C502.881805,559.049566 504.633565,559.33375 506.770945,560.281679 C506.770945,561.833013 506.658554,563.493349 506.803888,565.130328 C506.939533,566.687502 508.228162,566.483123 509.319136,566.44614 C509.598178,566.434461 509.877219,566.442247 510.154323,566.442247 L510.154323,574.029574 C507.286397,576.08699 508.873445,579.140996 508.464572,581.743422 C510.27059,582.002302 511.603789,583.349257 511.73362,584.805215 C511.981657,587.57893 513.791551,586.687448 515.237141,586.845112 C515.256519,584.522977 517.021844,585.272367 518.248464,585.161418 C519.482835,585.050469 520.393595,585.406673 520.325772,586.950221 C520.250199,588.602771 521.779113,588.990118 522.525162,588.460679 C524.482328,587.067009 526.74954,586.368227 528.768715,585.161418 C528.97412,585.038791 529.437252,585.268474 529.57871,585.126382 C530.9371,583.794998 532.67142,582.70303 532.196662,580.299144 C531.993194,579.269463 532.163719,578.161923 532.163719,577.496232 C533.95036,575.699643 535.359132,574.325437 536.717521,572.900624 C537.502325,572.085054 538.24256,571.265591 540.59116,571.818388 C540.860512,572.164859 541.724766,573.256827 542.577392,574.358527 C543.453272,575.485532 544.668266,574.72057 545.703044,574.942467 C548.280302,574.516191 551.316816,576.145384 553.347618,573.243202 L559.191987,573.243202 C560.583319,573.243202 562.085104,572.914249 563.331102,573.338579 C564.505401,573.733711 565.177814,575.411566 566.83656,574.942467 C567.86165,576.558035 569.390565,576.822754 571.144263,576.661197 C572.246865,576.558035 573.368844,576.643679 574.481134,576.643679 L574.481134,594.621247 C575.006275,595.119542 575.574047,595.761876 576.250335,596.252386 C578.333457,597.760898 580.05615,597.165279 581.309899,595.158472 C582.497763,593.260666 583.1663,591.34145 583.187616,589.124424 C584.976194,587.944866 586.974054,588.777953 588.882775,588.544377 C589.65789,587.750219 590.44657,586.946328 591.405775,585.969202 C591.405775,583.06702 591.475535,579.977977 591.37477,576.894773 C591.332139,575.520568 592.281655,574.938574 593.031579,574.183345 C594.593436,572.6106 595.674722,572.721549 596.38589,574.995022 C596.868399,576.534677 597.947747,577.358033 598.96121,578.109369 C599.703383,578.664112 601.09859,578.333212 602.817408,578.426643 C604.05953,577.034919 605.390791,575.168257 607.090231,573.747337 C608.661777,572.427632 607.999054,569.899172 610.02598,568.992118 C609.483399,564.118165 612.828021,562.428632 616.463312,560.76051 C619.048321,559.571219 619.718795,559.518664 621.174074,561.463185 C622.127466,562.74396 621.912372,564.6223 623.497482,565.642249 C623.943173,565.934219 623.168058,567.479714 624.15633,567.810613 C625.162042,568.149298 626.31115,568.0656 627.404063,568.135673 C628.481473,568.211585 628.673314,566.142491 629.855365,566.932756 C630.318496,567.246138 630.42895,568.476305 630.293305,569.214015 C629.975507,570.911335 631.965616,571.528364 631.955927,572.756585 C631.932673,575.66266 633.899528,574.829572 635.416816,574.942467 C635.690044,574.942467 636.133798,575.053416 636.217123,574.926896 C637.267404,573.356097 638.759501,573.00184 640.495759,573.243202 C640.495759,572.398435 640.553892,571.545883 640.48607,570.703063 C640.232219,567.633484 640.935636,565.282152 644.468224,564.704052 C645.322789,564.563906 645.704533,563.748337 645.580514,562.808193 C645.444869,561.751262 645.95257,560.542506 644.818964,559.734722 C643.406316,558.722559 643.561339,557.056384 643.979901,555.927433 C644.698821,553.986806 645.944819,552.213574 647.126869,550.475379 C648.006625,549.179033 648.756549,548.986332 650.525749,550.278786 C652.099233,551.429148 653.616521,551.370754 655.120245,550.823797 C656.515452,550.311876 659.123715,544.904591 659.119839,543.220898 C659.119839,542.380024 659.071395,541.634527 658.354413,540.986354" id="Fill-135" transform="translate(566.855490, 528.154237) rotate(-6.000000) translate(-566.855490, -528.154237) "></path>
        </g>
    </g>
</svg>