<?xml version="1.0" encoding="UTF-8" standalone="no"?>
<svg width="352px" height="486px" viewBox="0 0 352 486" version="1.1" xmlns="http://www.w3.org/2000/svg" xmlns:xlink="http://www.w3.org/1999/xlink">
    <!-- Generator: sketchtool 47 (45396) - http://www.bohemiancoding.com/sketch -->
    <title>77F138F7-8502-453A-B389-B7D7EAA658F9</title>
    <desc>Created with sketchtool.</desc>
    <defs></defs>
    <g id="Page-1" stroke="none" stroke-width="1" fill="none" fill-rule="evenodd">
        <g id="Главная-страница" transform="translate(-1406.000000, -405.000000)" stroke="#BCCCD2" fill="#EAF2F5">
            <path d="M1656.63662,617.13248 C1657.27803,616.749026 1658.31862,616.28382 1658.80695,616.562165 C1660.23703,617.366056 1660.26223,620.659478 1658.83989,621.515923 C1658.36319,621.794268 1657.1172,621.436118 1656.69088,620.957287 C1656.25294,620.451206 1656.37502,619.440989 1656.2917,618.927122 C1656.43122,618.115446 1656.34402,617.311555 1656.63662,617.13248 M1744.36416,771.594353 L1744.36416,762.261045 C1741.76365,759.781246 1742.93408,756.56763 1742.62984,753.628465 C1742.58527,753.174938 1741.92061,752.812895 1741.67645,752.337957 C1740.83158,750.699032 1740.67462,750.537476 1741.54081,749.492223 C1742.31592,748.571544 1742.72867,747.767653 1742.70154,746.545272 C1742.61822,742.868396 1742.6686,739.189574 1742.6686,735.506859 C1742.6686,734.936544 1742.82944,734.315621 1742.63759,733.829004 C1742.17446,732.616356 1741.25789,731.512709 1741.04667,730.27281 C1740.76569,728.629992 1740.80251,726.876225 1741.01373,725.211996 C1741.42841,722.041201 1739.62627,718.459703 1742.6686,715.754114 C1742.1919,712.308867 1743.95917,708.4899 1740.98272,705.455358 C1741.64932,702.594052 1740.53316,700.04418 1739.22127,697.727885 C1737.78925,695.213049 1736.87849,692.406244 1735.30307,690.070484 C1734.21403,688.456863 1734.32642,687.016478 1734.13458,684.484124 C1732.73356,683.355174 1730.78221,681.788268 1729.1254,680.460777 C1729.1254,679.059321 1728.98782,678.193144 1729.15834,677.375628 C1729.56721,675.386338 1728.55763,673.718216 1727.08297,673.235493 C1723.40311,672.040362 1721.60484,668.817013 1718.95589,666.654488 C1719.37445,663.62384 1717.65951,661.437957 1716.49877,659.073 C1715.6849,657.434075 1714.45634,655.925563 1713.9874,654.206833 C1713.55333,652.634088 1713.87113,650.845285 1713.90407,649.155752 C1713.93508,647.472058 1713.77618,646.074495 1712.46236,644.626323 C1710.94313,642.965987 1713.92733,642.02779 1713.89632,640.404437 C1713.86726,639.04775 1714.23931,637.603471 1712.79953,636.620506 C1711.62524,635.816615 1712.42554,634.533893 1712.20076,633.48864 L1712.20076,631.789375 L1712.20076,628.388897 C1711.03421,628.433666 1710.46256,627.871137 1710.51101,626.685739 C1709.33865,626.730508 1708.77475,626.167979 1708.81932,624.98842 C1708.25155,624.98842 1707.65665,624.877471 1707.12763,625.007885 C1704.79453,625.570413 1703.42452,624.1456 1702.2289,622.557283 C1701.79484,621.965557 1702.02737,620.645852 1701.5468,620.355829 C1700.07214,619.50133 1700.87245,617.044889 1699.78535,616.90669 C1696.46979,616.495985 1696.78953,614.298424 1697.00656,612.155364 C1697.21003,610.064859 1695.51447,609.321309 1694.51457,608.073623 C1694.24134,608.04248 1693.97586,607.991872 1693.70263,607.991872 C1690.03634,607.987979 1686.37198,607.987979 1682.70569,607.987979 C1680.88998,606.894064 1680.16331,604.309156 1677.33026,604.519375 C1674.95647,604.686771 1673.16596,602.284831 1670.40073,602.777287 C1667.69171,603.267797 1664.83347,602.888236 1662.26784,602.888236 C1661.44815,603.707698 1660.85325,604.313049 1660.25447,604.906722 C1658.48527,606.652703 1656.94279,608.838585 1653.88497,608.046373 C1653.69119,607.999658 1653.04784,608.79187 1653.00521,609.23761 C1652.86763,610.413276 1653.06334,611.501351 1654.69302,611.392349 C1656.3634,611.285294 1656.77808,612.795752 1656.25294,613.560713 C1655.09027,615.226889 1654.31903,616.824938 1654.63683,618.878461 C1654.72403,619.433204 1654.8868,620.313007 1654.61745,620.525171 C1652.2049,622.45412 1653.14279,625.111047 1652.95095,627.596685 C1651.58675,628.945587 1650.22642,630.389865 1648.74595,631.693998 C1648.42622,631.980129 1647.59297,631.939253 1647.13371,631.738767 C1646.71903,631.559692 1646.3586,630.981591 1646.22295,630.510546 C1646.06793,629.986947 1646.18613,629.391328 1646.18613,628.821013 C1646.18613,626.83951 1646.20551,624.854114 1646.17838,622.87261 C1646.16288,621.819572 1644.65722,621.079914 1643.61663,621.658015 C1643.13993,621.922735 1642.86089,622.531979 1642.39388,622.818109 C1641.1847,623.571392 1639.77012,623.419568 1639.54533,622.531979 C1639.35156,621.761178 1639.14421,620.904732 1639.91158,620.233201 C1640.33401,619.85948 1640.9793,619.476026 1641.051,619.026392 C1641.17308,618.269216 1641.48894,617.243428 1640.49873,616.760705 C1640.03366,616.534914 1639.33993,616.336375 1638.93687,616.527129 C1636.5127,617.648294 1634.86751,620.895 1636.37124,622.522246 C1637.76451,624.021026 1637.41958,626.144621 1639.15196,627.462379 C1640.2972,628.334396 1639.22172,630.053126 1637.49128,630.068698 C1636.43131,630.078431 1635.22407,630.471617 1634.38113,629.258968 L1634.38113,625.204478 C1632.81733,623.943167 1630.85242,622.358743 1629.25762,621.079914 C1629.25762,619.571403 1629.35644,618.705225 1629.22468,617.877977 C1629.14523,617.389413 1628.68597,616.558272 1628.44181,616.579683 C1627.11442,616.67506 1625.38592,615.703773 1624.5081,617.101336 C1623.07414,619.398167 1620.1442,619.347559 1618.58622,621.282347 C1616.9236,623.343655 1615.33849,624.314942 1613.22824,621.749499 C1612.86781,621.313491 1611.65281,621.307651 1610.99978,622.082345 C1609.46118,623.91397 1607.67647,623.618107 1605.56041,622.631249 C1605.56041,620.466777 1605.3957,618.214715 1605.63986,616.009368 C1605.74837,615.059493 1606.94205,614.27312 1607.20365,613.295994 C1607.99039,610.358775 1610.9649,609.305737 1612.33298,606.917422 C1612.33298,604.36755 1612.31166,601.813786 1612.34073,599.263914 C1612.35042,597.874137 1611.88147,595.958814 1612.60814,595.191906 C1613.95297,593.749574 1613.65261,592.16515 1614.14093,590.656638 C1614.71646,588.910658 1615.68147,587.404092 1615.90626,585.393392 C1616.05353,584.098992 1617.16001,582.547658 1617.95644,581.222114 C1618.52809,580.256666 1619.25669,579.53258 1619.11911,578.281002 C1618.91371,576.311178 1619.04935,574.537947 1620.7081,572.947683 C1621.4619,572.231383 1620.50463,570.880535 1619.5338,570.160343 C1616.87515,568.173 1617.11544,565.45184 1617.68321,562.656713 C1619.51442,561.58421 1619.08811,559.789568 1619.09973,558.150643 C1619.11524,556.447484 1619.10361,554.746272 1619.10361,553.0509 C1619.10361,551.349688 1618.56103,549.372077 1619.23732,548.01539 C1620.11126,546.269409 1620.83018,544.73754 1620.929,542.711268 C1620.97551,541.588156 1622.9695,540.84266 1622.48505,539.153126 C1624.13023,538.103981 1624.38021,536.529289 1624.18836,534.759951 C1624.13023,534.197422 1624.20387,533.623214 1624.17674,533.058739 C1624.10116,531.639765 1624.50035,530.540011 1625.31616,529.253396 C1626.1029,528.021283 1625.73859,526.053405 1625.88005,524.410587 C1623.1032,521.015949 1624.57786,517.070461 1624.15155,513.648572 C1625.46537,512.330814 1626.46333,511.33033 1627.56593,510.220844 C1627.56593,506.946887 1627.595,503.560034 1627.54655,500.171236 C1627.53299,499.392649 1627.47485,498.431094 1627.03885,497.86078 C1624.80652,494.925508 1625.26577,492.270527 1627.56593,489.681726 C1626.89545,487.735259 1629.56766,487.110443 1629.27312,485.284658 C1629.03671,483.824807 1629.43977,482.639409 1630.62376,481.582478 C1632.52085,479.896837 1634.23773,478.002925 1636.02825,476.202443 C1635.73758,473.41121 1638.46405,472.691017 1639.62866,470.896375 C1644.07007,469.403435 1646.41673,465.364516 1649.69159,462.472067 C1650.96278,461.350902 1652.07895,460.060394 1653.292,458.880835 C1654.33453,457.874512 1655.54565,458.267698 1656.34402,459.832658 C1658.20429,463.47839 1658.712,463.809289 1661.83571,463.460872 C1662.92668,463.342137 1663.58941,461.97961 1663.06039,460.872071 C1662.94606,460.634602 1662.69027,460.447741 1662.46549,460.268666 C1660.50639,458.736797 1661.38421,456.56454 1661.53148,454.762111 C1661.66131,453.148491 1662.98869,451.88718 1664.80634,451.560174 C1664.50792,449.964071 1665.65315,447.966996 1664.16881,446.803009 C1662.87243,445.786953 1663.72312,443.785985 1662.41317,443.334405 C1661.11873,442.880878 1660.06845,442.073094 1658.91934,441.590371 C1657.27803,440.897428 1655.1891,441.660443 1653.71056,439.756799 C1653.28813,439.205949 1651.579,439.663368 1650.46283,439.657529 C1649.35829,442.869199 1645.81214,440.276506 1643.97899,442.503264 C1642.79694,443.933917 1640.34176,442.999613 1638.42529,442.937326 C1636.95645,441.224435 1637.88465,439.188431 1637.75482,437.313983 C1637.63274,435.418124 1637.27037,433.339298 1639.35156,432.074094 L1639.35156,421.374366 C1638.24508,420.36415 1636.58827,419.209895 1635.40622,417.689705 C1633.66027,415.439589 1631.30005,414.055651 1628.86618,413.055167 C1626.73074,412.177311 1624.9131,410.269773 1622.23314,410.703835 C1620.86118,410.925732 1620.41355,408.708707 1618.72186,409.014302 C1617.6367,409.212842 1616.48566,409.055178 1615.0982,409.055178 C1613.31931,410.766122 1611.26719,412.245437 1610.33706,415.137887 C1609.40692,418.010872 1606.36847,417.60406 1603.87259,417.553452 C1603.81059,419.272182 1605.3705,419.834711 1606.29677,420.767069 C1607.73654,422.213294 1607.29085,423.80745 1606.99825,425.389927 C1606.94205,425.687737 1606.12043,425.991386 1605.63986,426.01085 C1605.15541,426.030315 1604.5547,425.814257 1604.19427,425.489197 C1601.87861,423.431782 1601.84373,423.490176 1597.60191,424.348568 C1595.76101,424.720343 1593.67595,423.472658 1592.02108,425.193334 C1592.02108,426.606469 1592.10635,428.025443 1591.99783,429.432739 C1591.87769,431.052199 1592.52878,432.776769 1591.26922,434.573358 L1567.42474,434.573358 C1566.99455,435.069707 1566.65544,435.274086 1566.64962,435.486251 C1566.61668,437.461914 1566.60893,439.445364 1566.638,441.426867 C1566.66319,443.595231 1566.16712,445.930992 1568.32387,447.513469 C1567.55845,452.064309 1570.0737,457.023906 1566.63218,461.239953 C1567.31816,464.724129 1565.59741,467.536773 1563.95997,470.306595 C1563.51041,471.067664 1563.23912,471.723623 1563.24299,472.564497 C1563.25074,475.108529 1563.32244,477.660347 1563.21199,480.204379 C1563.15579,481.578585 1564.23514,482.061309 1564.83585,482.945004 C1565.57221,484.025294 1566.95579,483.511426 1567.69797,484.175171 C1568.89165,485.22821 1570.36436,486.143049 1570.09307,488.286109 C1569.92449,489.549366 1569.42647,491.085129 1570.71123,492.229651 C1572.15488,493.50264 1571.97467,495.688523 1573.65279,496.986816 C1576.08471,498.869049 1578.17753,501.189238 1580.23933,503.161009 C1579.88084,505.450054 1580.90981,507.491897 1579.50491,509.224253 C1578.92939,509.270968 1578.38681,509.341041 1577.84616,509.366345 C1577.27452,509.387756 1576.71256,509.348827 1576.15254,509.374131 C1573.6993,509.494812 1571.80026,511.083129 1571.72663,513.195045 C1571.65106,515.129833 1571.70919,517.070461 1571.70919,518.724957 C1564.87461,525.586253 1563.98517,526.065084 1556.86186,526.814473 C1556.42004,528.389165 1555.91234,529.958017 1557.25135,531.406189 C1558.8229,533.109347 1558.74926,534.843649 1557.29786,536.585737 L1548.71152,536.585737 C1547.05859,538.933176 1544.98903,540.609084 1541.78199,539.997893 C1541.27623,539.902516 1540.598,539.958964 1540.21238,540.235362 C1539.8442,540.496189 1539.55741,541.157987 1539.5826,541.621246 C1539.64849,542.670392 1539.13497,543.260171 1538.25328,543.339977 C1536.86001,543.46455 1535.3059,543.014917 1534.07153,543.478176 C1532.90305,543.92197 1531.90315,545.109315 1531.14935,546.199336 C1530.75985,546.765758 1531.06215,547.762349 1531.81982,548.398844 C1533.35843,549.687405 1533.21309,551.6183 1532.41279,552.908807 C1531.65124,554.133135 1531.01952,555.129726 1531.0544,556.626559 C1531.1416,560.54285 1531.08734,564.461088 1531.08734,568.028962 C1532.41666,569.372024 1533.41268,570.370561 1534.41065,571.371045 C1534.01146,571.672747 1533.63553,572.202186 1533.21697,572.239169 C1532.02523,572.348171 1530.89356,572.427977 1531.10284,574.031865 C1531.25786,575.250353 1530.28703,577.048889 1532.47092,577.364216 C1535.7264,577.837208 1536.33293,580.015304 1536.17597,582.808484 C1536.09652,584.186583 1536.15853,585.57636 1536.15853,586.734508 C1536.7825,587.363216 1537.19137,587.74667 1537.57893,588.157375 C1540.17556,590.938876 1540.25889,592.529139 1537.92579,595.15103 C1537.36577,595.783632 1536.63135,596.29166 1536.20891,596.996281 C1535.95894,597.406985 1535.93956,598.356861 1536.22248,598.613795 C1537.40259,599.66878 1538.08663,601.422546 1540.21626,601.247364 C1541.53395,601.12863 1542.99117,600.733497 1544.7565,601.969503 C1543.86124,605.332998 1546.11295,609.329094 1542.9311,612.675071 L1542.9311,617.350484 C1544.82432,619.248289 1546.41912,620.842446 1548.01198,622.430762 L1548.01198,626.685739 C1548.01198,626.97187 1548.13018,627.355323 1547.99454,627.52272 C1546.91713,628.78403 1544.77006,628.242912 1543.93294,629.936338 C1541.76068,629.284272 1540.96618,632.458959 1538.78617,631.789375 C1537.70876,633.336816 1536.19147,633.778664 1534.42227,633.484747 C1533.35843,633.307619 1532.9825,634.199101 1532.40503,634.736326 C1530.74823,636.252623 1529.12436,637.811743 1527.77178,639.082786 C1527.41329,641.438011 1528.39769,643.470122 1526.92497,645.395178 C1523.66949,645.395178 1520.31711,645.369874 1516.96086,645.408803 C1516.16831,645.416589 1514.95913,645.395178 1514.6704,645.854544 C1513.66662,647.464272 1511.67845,646.855028 1510.44215,648.129964 C1508.97136,649.642368 1506.35341,647.9723 1504.95045,648.945533 C1503.47192,649.961589 1502.23368,650.553315 1500.47998,650.564994 C1499.81338,650.568887 1499.06539,651.269615 1498.49762,651.802947 C1497.05203,653.153795 1495.52505,654.46182 1494.343,656.02094 C1493.04662,657.733831 1491.37625,657.192713 1489.69619,657.299769 C1488.53351,656.18055 1487.32821,655.026296 1486.22367,653.969364 L1479.37553,653.969364 C1478.11209,656.805366 1474.39929,654.399533 1473.00989,656.96303 C1470.25048,657.572274 1467.72555,657.726045 1465.49709,655.281283 C1463.70464,653.309512 1460.49953,653.06815 1459.25547,650.537743 L1447.25282,650.537743 C1444.84027,653.529463 1441.56928,651.66864 1438.14715,652.410244 C1437.30034,651.127523 1436.4884,649.159645 1435.8218,649.01366 C1432.37448,648.293467 1429.35347,649.879837 1427.15795,647.269625 C1424.6989,647.092497 1421.67983,646.1543 1419.93776,647.662812 C1417.62597,649.661833 1414.79293,647.567435 1412.98885,649.358184 C1411.27391,651.05745 1409.35937,650.239934 1407.52041,650.491028 C1407.29175,651.534334 1408.08818,652.801484 1406.92163,653.628732 C1405.17181,654.868632 1405.43923,656.889064 1406.03994,658.162054 C1406.81893,659.839908 1408.43892,661.262775 1410.78946,660.713872 C1411.32041,660.589298 1411.92113,660.776159 1412.46758,660.676889 C1413.4888,660.493921 1413.94999,661.247204 1414.54489,661.8 C1416.44199,663.575178 1416.52337,664.628216 1415.04097,667.586846 C1413.70583,670.241827 1414.04494,670.804356 1417.07952,670.891947 C1418.17437,670.919197 1419.27891,670.89584 1420.20905,670.89584 C1421.9705,669.130394 1423.48972,667.448647 1425.20273,666.000476 C1425.5961,665.669576 1426.89635,665.879795 1427.38661,666.308017 C1428.37295,667.162516 1429.68483,667.886602 1429.54725,669.617011 C1429.42129,671.298758 1429.46586,673.001917 1429.54337,674.695343 C1429.58213,675.723077 1431.76989,677.593632 1433.07983,677.671491 C1434.7037,677.768814 1436.51553,678.136696 1436.38182,675.345463 C1436.33338,674.39948 1438.19753,674.099724 1439.04628,674.463713 C1441.4162,675.487555 1441.15847,678.162 1442.52655,679.851533 C1443.78418,681.404814 1443.6214,683.964418 1442.75909,685.360034 C1441.91033,686.724508 1441.78632,688.489953 1440.54807,689.539099 C1439.22844,690.664156 1439.74776,692.106488 1439.70513,693.428139 C1439.66056,694.45782 1441.21079,695.162441 1442.25914,694.642735 C1442.48973,694.525947 1442.66801,694.263174 1442.85791,694.054902 C1443.91788,692.850039 1445.12512,692.355636 1446.31105,693.753199 C1447.53767,695.191638 1449.57816,695.997476 1449.87852,698.356593 C1447.57061,702.430548 1444.91391,706.580416 1447.13461,711.699623 C1448.12288,711.699623 1448.97938,711.795 1449.80682,711.684052 C1452.39764,711.333688 1453.89749,712.63782 1454.91871,714.843167 C1456.01937,717.212017 1457.16848,719.55167 1458.29433,721.903002 C1460.83477,721.903002 1463.37909,721.832929 1465.91178,721.936092 C1467.14227,721.990593 1467.9387,721.032932 1468.83396,720.828553 C1472.33361,720.011037 1473.74044,716.550219 1476.48241,715.059225 C1479.04223,715.508859 1481.53422,714.352658 1483.8867,716.063602 C1486.04152,717.632454 1488.73698,716.524914 1491.17278,716.822724 C1491.40532,716.853867 1491.6456,717.11664 1491.80838,717.319073 C1493.19196,719.043643 1494.62011,719.051428 1495.88354,717.274304 C1497.8659,714.48891 1500.60593,714.911294 1503.36922,715.321998 C1505.11129,718.050944 1508.06835,716.067495 1510.56229,717.28209 C1511.89936,718.664082 1513.47091,720.287435 1515.04052,721.903002 C1517.17983,721.391082 1517.92201,723.296673 1519.10018,724.357497 C1520.35006,725.482555 1521.44878,726.765276 1522.62502,727.975979 C1522.19871,730.728283 1524.10161,730.284488 1525.77005,730.440206 C1527.95394,730.648478 1529.18637,731.99154 1529.39177,734.224137 C1529.47122,735.031921 1529.31039,736.053816 1529.74058,736.608559 C1530.76373,737.937996 1531.9981,739.152591 1533.29448,740.227041 C1534.83308,741.503923 1534.24787,744.055741 1536.27092,744.955009 C1537.22044,745.383231 1538.45868,745.521431 1539.08847,746.224105 C1539.92753,747.168141 1540.14068,748.57933 1540.78791,749.753049 C1541.56302,751.154506 1541.97771,752.789538 1543.35741,753.749146 C1545.05298,754.926758 1544.45614,757.350109 1546.28735,758.54524 C1547.63799,759.425043 1548.79678,760.805088 1549.66104,762.196812 C1552.9204,767.419182 1552.92621,767.349109 1559.26471,769.858105 C1560.19485,770.22988 1560.79169,771.465887 1562.09195,771.216739 C1563.43096,773.603107 1566.3919,772.098488 1567.88593,773.476587 C1569.92061,775.356874 1572.14519,774.187047 1574.70113,774.712593 C1575.57701,773.599214 1576.61179,772.281456 1577.44504,771.216739 C1580.15988,771.216739 1582.50848,770.811874 1584.64974,771.319902 C1587.21924,771.923306 1588.62608,769.719906 1590.74796,769.529152 C1591.8273,769.433775 1592.92797,769.342291 1593.77478,770.391437 C1594.48401,771.27124 1595.35602,772.007004 1596.25321,772.910165 C1599.23741,772.910165 1602.32818,772.976345 1605.41314,772.888754 C1607.17265,772.83036 1608.64924,773.013328 1609.86811,774.54909 C1610.20335,774.969527 1611.48423,774.609431 1612.33298,774.609431 C1612.55195,775.648844 1611.86985,776.789473 1612.89687,777.764653 C1615.12727,779.897981 1617.19295,782.208437 1619.4776,784.273638 C1620.66547,785.355874 1620.74491,786.541272 1620.8418,787.968032 C1620.99101,790.146129 1622.36103,791.65464 1624.52748,791.539799 C1626.51371,791.421064 1627.5233,792.493568 1628.75961,793.622518 C1631.16246,795.820079 1633.82692,795.495019 1635.64263,792.810842 C1636.21428,791.969968 1636.49332,790.070216 1636.84406,790.083842 C1638.49312,790.146129 1639.2101,788.623992 1640.36696,788.31061 C1644.17665,787.278983 1647.08527,785.10478 1649.5792,782.175347 L1649.5792,775.473662 C1650.77482,772.976345 1653.65631,772.951041 1655.53209,771.4036 C1656.40409,770.693139 1657.59002,770.94618 1658.19654,769.192413 C1659.02398,766.794366 1660.25835,764.386587 1661.54698,762.18124 C1662.91506,759.83964 1665.27528,758.095606 1667.18594,756.063495 C1668.46101,754.702914 1669.9221,753.58175 1670.27284,751.415332 C1670.46662,750.181272 1672.23776,751.035771 1673.26866,750.809981 C1673.26866,753.320923 1673.38493,755.843544 1673.23765,758.344754 C1673.10782,760.676621 1674.64449,762.331118 1675.64245,764.030383 C1676.70629,765.834758 1678.83592,767.016264 1680.0858,768.104338 C1679.88039,771.985593 1679.99472,772.110167 1678.68865,773.365638 C1676.70048,775.273176 1675.92537,777.772439 1674.90609,780.343722 C1677.28957,782.535443 1679.71762,784.771934 1681.73098,786.628863 L1681.73098,791.615711 C1681.78136,795.000617 1681.52364,795.158281 1683.50599,798.50815 C1685.32751,801.591353 1685.31976,804.680396 1684.93027,807.958246 C1682.81226,809.264326 1683.44592,811.387921 1683.4498,813.272101 C1683.4498,815.504698 1683.61257,817.725617 1683.70752,819.946535 C1686.42624,822.821467 1684.55821,826.364037 1685.11823,829.548456 C1681.86275,833.174724 1684.04857,837.581525 1683.44592,841.581514 C1683.15913,843.477373 1683.87224,845.472501 1683.00411,847.313859 C1680.08192,848.830156 1678.30303,847.126998 1676.6501,845.090994 C1677.06091,843.389782 1675.82266,842.527497 1674.78982,841.636015 C1673.6504,840.658889 1672.99737,839.553296 1673.26866,838.015587 C1673.56902,836.291017 1672.15443,835.574717 1671.20879,834.644306 C1670.27671,833.719735 1669.24581,833.877398 1668.33505,834.821435 C1667.74984,835.434572 1666.56004,836.129461 1666.64724,836.608291 C1667.06968,839.018017 1665.23265,840.699765 1664.95749,842.718251 C1664.70364,844.516786 1664.21919,845.770311 1663.01388,847.064711 C1661.75626,848.425291 1659.49486,849.145484 1659.75646,852.01263 C1661.51597,853.770289 1663.57778,855.664201 1665.43031,857.744974 C1667.37197,859.93475 1667.59288,863.097758 1669.54423,865.408214 C1670.30578,866.29775 1670.15657,868.000908 1671.42195,868.824264 C1670.84836,870.780463 1673.54576,871.551264 1673.18727,873.135688 C1672.67376,875.411107 1675.09793,876.577041 1674.8809,878.377523 C1674.53403,881.291383 1677.71201,883.181403 1676.79156,886.112782 C1678.38248,890.375544 1678.4038,890.375544 1677.5221,893.612518 C1674.36351,894.032955 1670.65071,892.283082 1668.35055,896.03587 C1668.63347,896.415431 1668.86794,896.892315 1669.22837,897.201803 C1671.10609,898.825156 1672.36565,901.162863 1674.79951,902.118578 C1676.94077,902.965291 1678.21196,900.814446 1680.01022,900.438777 C1680.27764,900.386223 1680.57606,900.469921 1680.84929,900.427099 C1682.17473,900.193523 1683.64551,900.99352 1685.11823,899.662137 C1685.11823,897.635865 1684.98065,895.399375 1685.16086,893.184296 C1685.33139,891.039289 1684.27917,888.639296 1686.0445,886.792099 C1687.8602,884.888454 1685.91273,882.396977 1687.37576,880.234452 C1688.53068,880.127396 1689.99371,880.314257 1691.16026,879.798443 C1692.53221,879.202825 1693.10386,877.345895 1694.73935,876.925458 C1694.94863,877.20575 1695.2238,877.400396 1695.25674,877.633972 C1695.31875,878.192608 1695.21217,878.766816 1695.28581,879.327398 C1695.73344,882.866075 1698.48509,884.399891 1701.73089,882.85245 C1702.43431,882.519604 1702.76179,881.649533 1703.81014,881.696249 C1706.33314,881.807197 1708.86582,881.729338 1711.29387,881.729338 C1713.86338,880.4836 1713.58434,877.293341 1715.58607,875.810133 C1717.52968,874.369747 1718.3978,871.448101 1721.43238,871.527906 C1723.22871,869.787765 1725.02698,868.047623 1726.94539,866.190694 C1729.72224,866.190694 1732.50684,866.206266 1735.29144,866.167336 C1735.49491,866.167336 1735.68869,865.795561 1736.17895,865.295319 C1733.58425,864.808703 1734.33805,862.84861 1734.18884,861.211632 C1734.04932,859.634994 1732.8382,859.222343 1731.23177,860.037912 C1730.66013,860.335722 1730.54192,861.783893 1729.09052,860.505064 C1729.18353,859.440347 1728.79404,857.495827 1729.50714,856.921619 C1731.16783,855.588289 1730.31908,852.976131 1732.39832,852.092435 C1732.46033,849.661298 1735.29532,847.958139 1734.20628,845.207782 C1736.82811,843.405353 1735.74876,840.674461 1735.87859,838.270574 C1735.98904,836.298803 1735.94254,834.311461 1735.87084,832.328011 C1735.85534,831.84918 1735.53948,831.317795 1735.22556,830.914876 C1733.24514,828.419506 1733.94468,826.385448 1736.14988,824.499321 C1737.00638,823.76745 1737.71949,822.868182 1738.56243,822.112953 C1739.84718,820.972323 1739.70572,818.959677 1739.15733,818.268681 C1737.81444,816.590827 1737.49471,814.942169 1737.55284,812.923683 C1737.61291,810.959698 1737.32999,808.982088 1739.28716,807.687688 C1739.00037,805.669201 1739.31235,803.837576 1740.98272,802.451692 C1741.25789,799.51642 1740.02352,796.281392 1742.6686,793.815219 C1742.6686,791.555371 1743.07941,789.188467 1742.56783,787.0493 C1741.93805,784.452713 1744.30603,783.090186 1744.34866,780.935448 C1744.40873,777.828887 1744.36416,774.712593 1744.36416,771.594353" id="Fill-15" transform="translate(1574.981925, 655.649845) rotate(-6.000000) translate(-1574.981925, -655.649845) "></path>
        </g>
    </g>
</svg>