<?xml version="1.0" encoding="UTF-8" standalone="no"?>
<svg width="260px" height="245px" viewBox="0 0 260 245" version="1.1" xmlns="http://www.w3.org/2000/svg" xmlns:xlink="http://www.w3.org/1999/xlink">
    <!-- Generator: sketchtool 47 (45396) - http://www.bohemiancoding.com/sketch -->
    <title>36EAC238-41ED-4B3E-9C79-2CB2175642BE</title>
    <desc>Created with sketchtool.</desc>
    <defs></defs>
    <g id="Page-1" stroke="none" stroke-width="1" fill="none" fill-rule="evenodd">
        <g id="Главная-страница" transform="translate(-970.000000, -252.000000)" stroke="#BCCCD2" fill="#EAF2F5">
            <path d="M1111.13148,298.877724 C1110.38543,297.355587 1109.64519,295.823718 1108.91465,294.326885 C1106.61837,294.326885 1104.40542,294.293795 1102.20021,294.375546 C1101.95993,294.383332 1101.6867,295.047077 1101.5588,295.44805 C1101.52199,295.570677 1101.91148,295.9989 1102.10526,296.000846 C1104.18644,296.03199 1106.58543,295.446103 1106.6455,298.827116 C1106.64937,299.033441 1107.53882,299.420788 1107.9942,299.389645 C1109.03479,299.321519 1110.20134,299.897673 1111.13148,298.877724 M999.633092,389.637579 C999.73192,392.12711 1000.10979,394.190364 998.078986,395.420531 C998.33865,397.018581 996.867869,397.810793 996.458996,398.96894 C996.081127,400.041444 995.662565,401.73487 996.918251,402.893017 C997.617793,403.541191 999.17965,402.80348 1000.41983,401.645332 C1001.34028,400.783047 1001.22402,399.700812 1001.60576,398.733418 C1001.98944,397.766024 1003.04554,397.952885 1003.81096,398.104709 C1004.18883,398.176728 1004.73723,398.867724 1004.72947,399.270643 C1004.69266,400.586454 1005.36313,402.18645 1003.92142,403.124647 C1001.94875,404.403476 1001.24921,406.509553 1000.42371,408.45018 C999.557519,410.49397 998.460731,412.239951 996.831051,413.736784 C995.879597,414.610748 996.077251,415.687144 997.015141,416.601983 C997.98791,417.555752 998.939364,418.534825 999.832685,419.432146 L999.832685,426.647698 C1001.64258,429.121658 1002.80525,430.704135 1003.78965,432.049144 C1005.04921,432.049144 1005.89409,432.115324 1006.73121,432.031626 C1007.76018,431.928463 1008.73294,430.244769 1008.15742,429.61606 C1006.45798,427.786381 1004.7256,425.993686 1003.17149,424.3606 L1003.17149,415.811718 C1004.25278,414.731429 1006.04911,413.74457 1006.06461,412.732407 C1006.1053,410.595187 1008.28532,409.742634 1008.22524,407.615146 C1008.05278,401.752388 1008.16517,395.877951 1008.16517,389.701812 C1005.36701,389.429307 1002.90602,389.542202 999.633092,389.637579 M1202.81986,352.136949 C1202.62026,353.567602 1203.95152,353.966628 1204.62975,354.770519 C1206.51134,356.975865 1206.86402,358.038636 1205.34286,360.535953 C1204.4941,361.945195 1204.43016,362.717943 1205.33898,364.121345 C1207.10043,366.832773 1208.71654,369.725223 1207.81547,373.096504 C1210.93725,377.651236 1216.84556,378.756829 1219.69024,384.419101 L1219.69024,391.983071 C1221.91869,394.10472 1224.15684,396.230262 1226.52288,398.482324 C1226.52288,399.648257 1226.3601,400.763583 1226.55388,401.812728 C1227.00345,404.239973 1225.39509,405.475979 1223.80416,406.513446 C1217.72532,410.474506 1215.73327,412.243844 1213.09594,418.153317 C1212.35571,419.796135 1211.49339,421.487615 1210.12919,421.691994 C1208.13521,421.997589 1207.34071,423.399045 1206.17998,424.473495 C1204.14918,426.361568 1203.78487,427.661808 1205.35254,430.186375 C1206.3757,431.829193 1206.49971,433.345491 1205.90288,434.81702 C1204.93786,437.211174 1202.19783,437.946938 1199.64963,436.389765 C1198.30868,435.574195 1197.38242,434.945486 1196.11317,436.232101 C1194.53194,437.845722 1192.72592,439.284161 1191.40241,441.082696 C1190.28818,442.598994 1188.20506,441.79121 1187.21679,443.406778 C1186.51337,444.543514 1185.1511,443.879769 1184.0892,443.926484 C1182.13591,444.017968 1180.16518,443.951788 1178.27583,443.951788 C1177.61117,444.625266 1177.0279,445.236456 1176.41168,445.820396 C1174.33437,447.8019 1173.42361,447.879758 1170.64482,446.484142 C1168.33692,445.324047 1168.14701,445.250082 1167.34671,447.539127 C1166.83319,449.018441 1165.51356,449.573184 1164.79658,450.756636 C1164.21718,450.756636 1163.66103,450.750797 1163.09714,450.756636 C1157.88255,450.758583 1157.95812,450.58924 1150.94527,447.457375 C1148.86021,446.526964 1146.81003,445.152758 1144.06806,445.542052 C1140.78545,446.007257 1137.38657,445.651054 1134.20859,445.651054 C1132.85021,444.249598 1133.20094,442.608726 1133.55362,441.479776 C1133.91793,440.315788 1135.99911,439.237446 1134.92945,438.030636 C1133.8036,436.753754 1131.84643,436.070544 1130.12568,435.535266 C1129.22654,435.253028 1128.01736,435.120668 1126.96514,435.934292 C1125.0603,437.399981 1122.52761,437.997546 1120.9018,440.551311 C1118.3633,440.551311 1115.58064,440.740118 1112.8251,440.516274 C1107.01562,440.031604 1102.43275,442.725514 1098.31301,446.240833 C1096.98756,447.371731 1095.13891,446.927936 1094.10413,448.504574 C1093.21275,449.851529 1091.8408,450.58924 1090.12586,451.107 C1088.87792,451.490454 1087.39551,452.886071 1087.66293,455.060274 C1087.93422,457.285086 1087.71718,459.572184 1087.71718,461.775585 C1086.913,462.970716 1085.7232,462.645656 1084.65548,462.641763 C1083.35522,462.633977 1082.7235,463.064146 1082.59755,464.520103 C1082.37664,467.161459 1082.26425,467.151726 1080.10168,469.456343 C1078.73554,469.456343 1077.3287,469.376538 1075.92768,469.481647 C1074.87159,469.561452 1073.53645,468.858778 1072.80784,470.034444 C1071.82539,471.622761 1069.92829,471.145876 1068.61253,472.31181 C1065.86669,474.735161 1064.34165,477.960456 1062.12482,480.708868 C1060.04751,483.291829 1056.88892,484.911289 1055.55959,488.159943 C1053.4164,488.24948 1051.03873,487.502037 1049.5292,489.859208 C1048.22894,489.592542 1046.57794,490.587187 1045.63037,489.179891 C1044.17509,487.017367 1041.01456,489.467968 1039.82475,486.832452 C1039.74143,486.649484 1039.38875,486.470409 1039.15815,486.476249 C1037.50328,486.515178 1035.6275,486.137564 1034.2633,486.805202 C1033.058,487.396928 1032.08329,488.492788 1030.60863,488.138531 C1028.7096,487.685005 1028.17283,490.493756 1025.74285,489.689865 C1024.61118,488.426608 1023.15978,486.803255 1021.70644,485.177955 C1022.39823,482.316649 1019.32102,480.340985 1019.97987,477.425178 C1020.54376,474.920075 1017.19139,473.333705 1018.19323,470.48797 C1018.36763,469.989675 1016.9918,468.560968 1016.06747,468.144424 C1014.30215,467.348319 1012.18996,467.30939 1010.49827,468.126906 C1009.46543,468.625202 1008.69031,469.898191 1008.03147,471.223735 C1006.53356,474.260223 1004.94069,477.316176 1003.52417,480.352664 C1002.408,482.737086 1000.80545,484.377958 999.119579,486.085009 C998.733959,486.474302 997.613917,486.316638 996.908562,486.121992 C996.612081,486.036347 996.245839,485.150705 996.360168,484.747786 C997.075212,482.088913 993.922431,480.496703 994.544461,477.816418 C994.66848,477.2753 993.523247,476.541482 993.397291,475.821289 C992.936097,473.141005 990.947927,471.616921 989.167099,469.979943 C987.461846,468.403304 987.101417,466.258298 988.37842,464.864628 C991.015749,461.976071 988.841551,459.91087 987.859092,457.555645 C987.05491,454.910396 989.699991,453.265632 989.72712,450.630116 C989.754249,447.965403 987.225436,446.449105 987.75639,443.685122 C988.225334,441.230628 987.917226,438.610683 987.82615,436.074437 C987.775768,434.75084 988.407486,433.25206 987.126609,432.142574 C981.838385,431.854497 976.546286,432.288559 971.283254,431.907052 C971.267751,429.84185 969.240825,428.633095 969.386159,427.362052 C969.734961,424.214615 967.60727,422.873499 965.851634,420.991266 C965.851634,419.404895 965.826443,417.719255 965.855509,416.039454 C965.892327,413.606371 967.132512,412.127056 969.723334,411.681315 C970.783304,411.500294 971.851026,411.724137 972.726906,410.729493 C974.579431,408.621469 976.54241,406.622448 978.113956,404.948486 C980.59045,404.545568 982.629003,405.612232 984.417581,404.086202 C983.392491,401.419542 986.21391,399.728062 986.171279,397.25021 C986.122834,394.427833 986.159652,391.599617 986.159652,388.648773 C983.125076,386.686735 982.576682,382.67896 979.726196,380.37045 C979.14486,379.893566 979.332825,378.256587 979.435528,377.184084 C979.513039,376.31012 980.350164,376.179707 981.154346,375.862433 C983.609523,374.885307 986.155777,373.921805 987.859092,371.667797 L987.859092,364.037647 C989.699991,364.452244 990.827784,365.585088 991.240533,367.442017 C991.192088,368.611844 991.75986,369.184105 992.932221,369.139337 C994.038698,370.093105 996.358231,373.55003 996.263279,374.877521 C996.092754,377.289193 997.555784,378.499895 999.309482,379.292107 C1001.96231,380.493077 1004.5512,382.211808 1007.29898,380.86096 C1009.11275,383.360223 1007.0742,385.931506 1009.01005,387.846829 C1009.5972,386.682842 1010.16497,385.557784 1010.71724,384.428833 C1012.0485,381.705726 1011.93417,380.627384 1009.98282,378.634202 C1008.80077,377.431285 1007.51989,376.329585 1006.43667,375.327155 L1006.43667,368.269266 C1004.37292,365.532534 1000.61361,365.158812 998.658385,362.254683 C997.922026,361.15493 998.03248,360.164178 998.03248,359.103354 C998.036355,357.203602 1000.30744,356.142778 999.790053,353.840107 C999.359864,351.953981 999.596274,349.88294 999.735795,347.913116 C999.832685,346.57784 999.160272,345.166651 1000.259,343.88393 C1001.64645,342.262523 1001.70846,339.702919 1003.99893,338.535039 C1007.53152,338.535039 1011.19394,338.474698 1014.84667,338.560343 C1016.71469,338.605112 1017.81148,340.820191 1020.09032,340.318002 C1021.97385,339.903405 1024.02015,340.234304 1025.99282,340.234304 L1031.07177,340.234304 L1036.99365,340.234304 L1042.85352,340.234304 C1044.65372,341.452793 1042.91553,343.545244 1044.14602,344.929182 C1045.05872,345.748645 1046.28921,345.474193 1047.2833,345.275653 C1050.12216,344.72091 1051.22864,341.758388 1049.89156,338.793919 C1048.53511,335.778842 1048.16499,332.919482 1049.56214,330.227519 C1050.71512,327.989082 1051.14144,326.1886 1049.09126,324.384225 C1049.17846,322.607101 1047.60303,321.600778 1047.14184,320.101998 C1047.0062,319.673776 1047.21935,318.951636 1047.54296,318.61879 C1047.85495,318.287891 1048.58743,318.04069 1048.98662,318.184728 C1049.71522,318.453341 1050.29075,319.093728 1050.99223,319.475236 C1052.56765,320.327788 1053.84853,319.714651 1053.86403,318.124388 C1053.88534,316.138992 1053.87372,314.159435 1053.87372,312.172092 C1055.14103,310.25093 1057.69697,312.349221 1059.09412,310.402754 C1060.2316,308.814437 1061.7547,307.500572 1062.97938,306.198386 L1069.97674,306.198386 C1070.80417,305.365298 1071.62386,304.584765 1072.40091,303.757516 C1073.55971,302.513724 1074.7185,302.402776 1075.88505,303.703015 C1076.73962,304.654838 1077.9798,305.059703 1078.71422,304.10788 C1080.03579,302.412508 1081.75849,302.628566 1083.29903,302.901071 C1085.71545,303.323454 1087.44202,302.046572 1089.38368,301.141465 C1091.48618,300.156553 1091.67996,299.936602 1090.12586,297.694272 C1089.4205,296.670431 1089.83906,296.03199 1090.50372,296.09817 C1093.44529,296.409604 1095.4509,294.391118 1097.87507,293.429564 C1097.43132,290.762904 1099.18889,290.778476 1100.95421,290.940032 C1103.07415,291.132733 1105.32974,290.210107 1107.16483,292.432973 C1108.02908,293.486011 1110.89119,291.54733 1111.28069,293.836375 C1111.54616,295.385763 1112.84254,296.03199 1113.1119,297.35948 C1113.21654,297.879187 1113.25142,298.439769 1113.46845,298.908868 C1113.85019,299.720544 1115.84224,299.584292 1116.32669,298.731739 C1116.45264,298.511788 1116.45264,298.215925 1116.49721,297.951206 C1116.91577,295.286493 1118.54933,294.217883 1121.14209,294.315206 C1122.79502,294.379439 1124.44602,294.326885 1126.004,294.326885 C1127.03103,292.598422 1124.98085,292.547814 1124.96341,291.564848 C1124.94984,290.453416 1124.96341,289.341983 1124.96341,288.298677 C1125.57187,287.995028 1126.02919,287.601842 1126.5117,287.55902 C1127.63174,287.45975 1128.77116,287.488947 1129.89508,287.533716 C1132.04602,287.617414 1134.45276,286.819362 1135.96229,289.225195 C1137.37494,289.225195 1138.78565,289.225195 1140.97341,289.719598 C1141.48111,289.88894 1141.25633,289.511326 1140.92884,289.246606 C1140.78545,289.122032 1140.34944,289.125925 1140.22543,289.252446 C1140.09753,289.380913 1140.09366,289.818868 1140.22155,289.966799 C1140.48121,290.287966 1140.84746,290.53906 1141.21176,290.739546 C1141.27377,290.774583 1141.54894,290.41254 1140.97341,289.719598 C1140.19248,288.942958 1140.30681,288.577022 1140.17698,288.390161 C1138.92711,286.665591 1136.30528,285.848075 1136.78973,282.982876 C1137.15791,280.882638 1135.87703,278.480698 1138.15781,276.703574 C1138.60931,276.349317 1138.64225,275.08606 1138.4601,274.352242 C1137.76056,271.613564 1139.80299,270.375611 1141.13812,268.619898 C1142.26592,267.144476 1144.9827,267.576591 1145.08734,266.241315 C1145.24817,264.137184 1146.64532,263.364437 1147.69366,262.171253 C1148.80401,260.904103 1150.0597,259.763474 1151.17393,258.642309 C1153.31518,258.40484 1155.18903,258.500217 1156.46409,260.483666 C1157.28377,261.768334 1158.52008,262.282202 1160.04706,262.025268 C1161.76588,261.735244 1162.44217,263.195095 1163.40525,264.119666 C1164.21718,264.900199 1164.02728,266.907007 1163.16496,266.922579 C1160.10519,266.97708 1159.28745,269.86369 1157.27215,271.202859 C1162.19994,273.900662 1162.19994,273.906501 1165.14344,273.922073 C1167.36415,273.931805 1169.5771,273.92402 1171.54008,273.92402 C1173.02636,275.409174 1171.89857,276.913793 1172.45278,278.075833 C1171.5207,279.01403 1170.68358,279.784831 1169.93365,280.623758 C1168.44543,282.272416 1168.53263,282.877767 1170.41035,284.721071 C1171.98577,286.264619 1172.60199,286.239315 1174.49327,284.522531 C1174.90989,284.14297 1175.29164,283.726426 1175.73927,283.274846 C1175.73927,281.914266 1175.71795,280.505024 1175.74702,279.091889 C1175.77609,277.853936 1177.08215,276.709414 1177.81464,277.373159 C1180.95579,280.228626 1184.70541,278.554664 1188.15468,279.021816 C1189.38517,277.855883 1190.69318,277.20187 1192.53795,277.264157 C1196.08992,277.386784 1197.2991,278.344446 1197.74866,282.081662 C1197.81455,282.605262 1197.9812,283.115236 1198.1711,283.930805 L1203.35468,283.930805 C1204.91654,285.050024 1204.4069,286.264619 1204.51542,287.329337 C1204.68207,289.05196 1204.97855,289.330304 1206.13153,288.374589 C1207.46086,287.278728 1208.5092,287.165833 1209.65637,288.440769 C1210.20864,289.055853 1211.31899,289.844172 1211.19691,290.28602 C1210.38498,293.273846 1213.67341,295.208634 1213.00681,298.112763 C1212.75683,299.185266 1211.47983,299.998889 1210.43536,299.381859 C1209.7397,298.967262 1209.27656,298.066047 1208.55183,297.793542 C1207.84648,297.517144 1206.81364,297.544394 1206.36794,298.465073 C1206.14704,298.928332 1206.0017,299.757527 1206.24974,300.059229 C1207.26708,301.281611 1208.017,302.97893 1210.05362,302.832945 C1210.61364,302.795962 1211.22017,302.700585 1211.74143,302.854356 C1213.01068,303.230024 1214.65393,305.287439 1214.66555,306.484516 C1214.69268,309.005191 1214.67524,311.531705 1214.67524,314.007611 C1213.34204,314.749214 1212.97193,316.477677 1211.24342,316.462105 C1210.7706,316.460159 1209.87728,316.849452 1209.87728,317.063564 C1209.86371,319.325358 1208.09839,320.380343 1206.81751,321.766227 C1205.49206,323.200773 1204.15305,324.625587 1202.81986,326.054294 C1203.24229,329.378859 1199.47911,328.018279 1198.44239,330.021193 C1197.56651,331.697101 1195.75468,332.882499 1194.35753,334.282009 L1194.35753,341.935516 C1193.32663,342.165199 1192.1659,341.445007 1191.21638,342.511671 C1189.42393,344.543782 1186.69552,346.030883 1187.52877,349.49754 C1187.58303,349.701919 1186.62576,350.480506 1186.3816,350.381236 C1183.86635,349.374913 1182.46727,352.000696 1180.31826,352.177825 C1179.45982,352.249844 1178.94631,352.999234 1179.12846,353.982199 C1179.75049,357.536448 1176.41168,358.509681 1174.84789,360.63717 C1171.30367,360.216733 1172.6485,362.916482 1172.30744,364.833752 C1170.7359,366.472677 1168.92988,368.210872 1167.34671,370.135928 C1167.06573,370.476559 1167.57924,371.675583 1167.99393,372.308184 C1168.17802,372.596262 1169.23411,372.738354 1169.50153,372.498938 C1171.69898,370.544686 1174.74518,369.067317 1174.05145,365.263921 C1174.98934,363.950056 1175.7257,362.365632 1177.68287,362.344221 C1180.1923,362.318917 1182.69593,362.340328 1185.05034,362.340328 C1185.80026,361.585099 1186.43973,361.020623 1186.98425,360.380236 C1187.64116,359.603596 1190.64086,357.474161 1191.44116,357.228906 C1192.30542,356.964187 1192.81312,356.425015 1192.68329,355.422585 C1192.60577,354.863949 1192.62128,354.289741 1192.67941,353.729159 C1192.78599,352.627459 1194.04361,351.73403 1194.94662,352.15836 C1195.41944,352.380257 1195.76631,352.866874 1196.22362,353.143272 C1198.27768,354.385118 1198.47727,354.33451 1199.42485,351.769067 C1199.7349,350.93014 1200.07013,350.243037 1201.13398,350.435737 C1201.08747,351.613349 1201.65524,352.177825 1202.81986,352.136949" id="Fill-3" transform="translate(1096.236000, 374.252364) rotate(-6.000000) translate(-1096.236000, -374.252364) "></path>
        </g>
    </g>
</svg>