<?xml version="1.0" encoding="UTF-8" standalone="no"?>
<svg width="301px" height="185px" viewBox="0 0 301 185" version="1.1" xmlns="http://www.w3.org/2000/svg" xmlns:xlink="http://www.w3.org/1999/xlink">
    <!-- Generator: sketchtool 47 (45396) - http://www.bohemiancoding.com/sketch -->
    <title>D0835966-633A-4380-A9E3-3FBB8B2A77B6</title>
    <desc>Created with sketchtool.</desc>
    <defs></defs>
    <g id="Page-1" stroke="none" stroke-width="1" fill="none" fill-rule="evenodd">
        <g id="Главная-страница" transform="translate(-737.000000, -622.000000)" stroke="#BCCCD2" fill="#EAF2F5">
            <path d="M1034.83726,695.277624 C1033.21727,695.277624 1031.53527,695.361322 1029.85909,695.262052 C1027.95811,695.14721 1025.98157,695.793437 1023.83256,694.611932 C1023.83256,692.823129 1023.63491,690.86693 1023.88101,688.963285 C1024.25306,685.965726 1022.16994,683.972544 1021.09253,681.613427 C1020.44919,680.210024 1018.85826,679.230951 1018.16453,678.536062 C1012.94607,677.553097 1008.04734,679.772069 1003.82103,676.577917 C1001.56932,676.577917 999.311795,676.626579 997.063961,676.562345 C994.754117,676.502005 992.556666,673.366247 993.407355,671.176471 C994.064265,669.479152 995.141675,667.951176 995.961359,666.302519 C997.106592,663.984277 997.54647,661.516157 995.686193,659.462634 C994.356871,657.989159 995.96911,656.017388 994.533209,654.837829 C992.649679,653.286495 993.616636,651.219347 993.364723,649.374097 C991.529638,649.121056 989.458143,650.109861 987.940855,648.200377 C987.099855,647.141499 985.844168,647.700135 984.803576,647.713761 C983.261097,647.746851 982.958802,645.584326 981.282615,645.948315 C980.25365,646.174105 979.019279,645.580433 978.230599,646.728848 C976.934219,648.605242 974.916981,649.393561 972.97338,650.323973 C970.491073,651.513264 969.297396,651.384797 967.216212,649.451955 C966.59612,648.877748 966.036099,648.245146 965.483829,647.674831 L960.337064,647.674831 C958.767456,646.090407 957.188159,644.478733 955.587546,642.900148 C955.413145,642.730806 955.120539,642.680197 954.884129,642.571195 C952.919212,642.571195 950.931041,642.384334 948.991315,642.61791 C946.414057,642.935185 944.805693,639.787748 942.108292,640.869983 C941.077389,639.966823 940.02517,639.083127 939.029147,638.13909 C938.215276,637.364397 937.465352,636.521576 937.197938,636.249071 C934.785391,635.234962 932.742963,636.502112 930.983451,635.166836 C929.289825,633.884114 926.941226,633.671949 925.671974,631.612587 C924.978246,630.487529 923.807822,629.664174 923.672177,629.533761 C920.846882,628.348362 920.579467,630.732784 919.073806,630.684122 C917.095325,630.629621 916.450041,632.527427 915.217608,633.543482 C914.163451,634.411606 912.748866,634.102118 911.630762,635.221337 C910.148355,636.698705 910.518472,638.240307 910.409956,640.02911 C909.326732,641.119131 908.28614,642.508908 906.931626,643.43348 C905.381396,644.496251 905.305822,646.214981 904.66829,647.612544 C903.387412,650.419349 901.581394,652.659733 899.062269,654.547806 L890.865426,654.547806 C889.780265,655.863617 888.030442,656.638311 888.394746,658.717137 C888.472258,659.147307 885.772919,664.850454 885.447371,665.091816 C884.809838,665.555075 883.990154,666.434878 883.480516,666.294733 C881.248184,665.681596 880.079698,667.768208 878.262053,668.071857 L874.872861,668.071857 C874.650016,667.032444 875.334055,665.8996 874.301214,664.908848 C872.055318,662.775521 869.923751,660.523459 867.71661,658.345362 C865.902841,656.548773 863.364338,655.293302 860.037156,654.468 C857.845518,653.934668 856.180958,652.507908 856.295288,650.851465 C856.510382,647.781887 855.48723,645.070459 854.712115,642.191634 C854.002885,639.558065 854.560967,636.581917 854.560967,633.642752 C853.469993,632.221831 851.762802,630.870983 851.338426,629.193129 C850.927615,627.573668 848.805737,626.793135 849.483963,624.852508 C848.133325,623.433534 846.780749,622.014559 845.309967,620.467118 C843.738421,620.467118 842.068048,620.451546 840.405426,620.474904 C838.508332,620.502155 836.518223,620.052521 835.095887,622.043756 C834.816845,622.434996 833.489461,622.489497 832.890684,621.646677 C832.165951,620.622836 831.078852,620.64814 830.046011,620.311401 C829.406541,620.107022 829.367785,618.407756 828.770947,617.588294 C828.135352,616.722116 827.269161,615.850099 826.313832,615.431609 C825.139532,614.915795 824.424488,616.397056 823.51179,616.665668 C821.868546,617.152285 820.519845,617.841334 819.469564,619.162985 C818.739018,620.085611 817.886391,620.735731 816.63458,620.461279 C814.315048,619.96493 813.047735,622.72502 810.569304,622.255921 C808.398981,621.84327 806.085262,622.172223 803.837428,622.172223 C800.463739,622.172223 797.088113,622.109936 793.712486,622.193634 C791.848334,622.242296 790.767048,624.457375 788.490147,623.955187 C786.612431,623.540589 784.573878,623.867596 782.605085,623.867596 L776.698707,623.867596 C776.216198,624.070028 775.334504,624.235478 775.313189,624.478786 C775.072903,627.503596 774.958573,630.543977 774.813239,633.510392 C768.387534,636.112818 768.387534,636.099193 760.89217,635.781919 C758.919502,635.702114 756.942958,635.733257 754.968352,635.781919 C753.313481,635.820848 751.348564,637.827656 751.319497,639.534707 C751.274928,642.047596 751.309809,644.566324 751.309809,646.822279 C750.255652,647.88505 749.348767,648.605242 748.68023,649.498671 C747.370285,651.250491 745.037189,652.091364 744.479106,654.551698 C744.260136,655.530771 743.023827,656.317144 742.921124,657.268966 C742.680838,659.489885 742.843613,661.749733 742.843613,663.824666 L747.197822,668.196431 C748.395375,669.399347 749.461159,670.781339 750.819548,671.760412 C752.518988,672.982793 752.677887,675.011011 753.795991,676.496165 C754.297878,677.163803 755.053615,678.249932 755.57488,678.181806 C757.745203,677.899568 758.396299,679.748711 759.655861,680.716105 C758.95632,682.707341 761.459942,683.328264 761.481258,685.062566 C761.533578,689.442116 763.872488,691.70975 768.158875,691.83627 C769.55602,691.881039 770.147046,692.858165 770.780703,693.658163 C772.592534,695.939422 772.70105,699.201701 775.007018,701.233812 L775.007018,707.182215 C776.146438,707.752529 777.334302,708.863962 778.417525,708.772478 C780.700239,708.568099 782.634152,709.537439 783.095345,711.240598 C783.882087,714.164191 786.108606,715.528664 787.858428,717.385594 L797.012539,717.385594 L797.012539,721.626945 C794.617433,723.147135 795.375108,725.558808 795.330539,727.715493 C795.276281,730.253686 795.318912,732.791878 795.318912,735.238587 C793.836504,736.727634 792.493617,738.183591 791.02865,739.511082 C789.749709,740.673122 789.955115,742.28869 790.360113,743.39623 C790.883315,744.832722 791.99173,746.269215 793.960523,746.300358 C795.340228,746.325662 797.010601,745.988923 798.016313,746.642936 C799.223555,747.425416 800.268023,747.882836 801.700048,748.079429 C803.25803,748.295486 803.633961,746.317876 805.075675,746.642936 C806.282917,749.85266 804.523405,753.352407 806.16665,756.499844 C806.647221,756.063836 807.120041,755.767973 807.430087,755.347536 C808.073433,754.481358 809.263235,754.508609 809.683735,754.880384 C812.321064,757.188893 814.276292,760.536816 818.502608,760.281829 C818.646004,760.274043 818.998682,761.220026 818.975428,761.698857 C818.944424,762.185474 818.570431,763.055544 818.335958,763.055544 C815.718007,763.080848 814.723921,765.369893 813.055486,766.714902 C812.311375,767.308574 812.080779,768.100786 812.278433,768.920249 C812.485776,769.790319 813.150438,770.152362 814.121269,770.115379 C816.070684,770.041414 818.029788,770.093968 819.862935,770.093968 C820.783385,771.01854 821.597256,771.80102 822.372371,772.622429 C823.567986,773.893471 824.719032,773.833131 825.858451,772.565981 C826.72658,771.608319 827.784613,771.366958 828.716689,772.254546 C829.575129,773.06233 830.348306,773.582037 831.602055,773.527536 C834.13862,773.418534 836.723629,773.183011 839.196246,773.582037 C841.659175,773.969384 843.060196,771.917808 845.238269,771.600534 C846.559841,771.405887 847.617873,769.418544 848.639087,768.392756 L857.399827,768.392756 C859.930578,768.392756 862.471018,768.353827 865.003707,768.429739 C865.466838,768.441418 866.214825,768.854069 866.300087,769.212219 C866.482239,769.961609 866.728338,770.880341 865.864085,771.497371 C865.639302,771.664767 865.462963,771.896397 865.261433,772.100776 C863.534864,773.837024 863.534864,773.837024 861.180451,772.492015 C859.27173,771.398101 859.194219,771.505157 857.671117,772.867683 C856.506507,773.90515 856.099571,775.043833 856.235216,776.542613 C856.335981,777.619009 856.256532,778.707084 856.256532,779.442848 C858.39585,781.599534 860.135984,783.454516 862.005949,785.173247 C862.95159,786.039424 863.00391,787.02239 863.060106,788.16302 C863.131804,789.527493 865.311815,792.949382 866.410541,793.895364 C868.073163,794.025778 867.914265,792.830647 868.152613,791.727 C868.371583,790.689534 870.096214,790.019949 870.716306,790.594157 C871.925486,791.727 873.066843,792.93381 874.324467,794.191227 C876.366896,793.142082 878.201981,792.161062 880.070009,791.238437 C881.928348,790.327491 884.400965,790.043307 886.276744,791.024326 C887.232073,791.526514 887.931615,792.386853 889.177613,792.209724 C891.06308,791.931379 893.34967,793.03308 894.779758,791.586855 C896.285419,790.066664 898.411173,791.269581 899.312244,790.364474 C900.972928,788.704137 902.730502,788.953285 904.629534,788.750853 C907.834636,788.412167 911.301338,789.97518 914.219647,787.516793 C914.676965,787.127499 915.397822,787.211197 915.353253,787.861317 C915.174977,790.292454 917.128267,791.21508 918.434336,792.513373 C919.740405,793.811666 920.662792,795.565433 923.030769,795.748401 C924.100428,795.835992 925.055758,797.541097 926.04403,798.539634 C927.774474,800.289508 927.81323,800.900698 926.266875,802.621375 C925.704917,803.25203 925.113891,803.86906 924.476359,804.414071 C923.687679,805.087549 923.697368,806.224285 924.100428,806.660294 C925.069322,807.713332 925.695228,808.750799 925.920011,810.191185 C925.972332,810.537656 927.64658,811.102131 928.003133,810.819893 C929.543675,809.632549 930.87106,808.164913 932.274018,806.798493 C931.962034,803.668574 934.145921,804.106529 936.072083,804.077332 C937.006097,804.063707 937.614562,803.518696 937.494419,802.502641 C937.368463,801.488531 937.872288,800.801429 938.736541,800.733302 C941.137461,800.538656 943.559696,801.079773 945.726143,799.109949 C946.493507,798.407274 948.906053,798.407274 949.752866,799.102163 C953.537366,802.173688 957.829567,799.917733 961.555933,800.795589 C963.536352,799.909947 964.150631,797.591705 966.28026,797.295842 C967.964198,794.041349 967.971949,794.041349 967.971949,791.226758 C967.975825,786.152319 967.971949,781.07788 967.971949,776.042371 C969.006728,775.001011 970.229472,774.150405 970.938703,772.970846 C971.874654,771.431191 972.405608,769.644334 973.205914,767.717332 C972.467617,766.975728 971.657622,766.239964 970.95808,765.406876 C970.45038,764.811257 969.607442,763.947026 969.748901,763.440945 C970.357366,761.194722 968.27812,760.021003 967.971949,758.19327 C970.210094,758.19327 972.457928,758.284754 974.696073,758.167966 C977.422541,758.020035 980.296281,758.905677 982.852223,757.61517 C985.16788,756.449236 987.504852,755.312499 989.801131,754.101797 C991.421122,753.249245 992.888027,751.978202 994.591343,751.479906 C996.145449,751.036112 997.93209,751.479906 999.606338,751.357279 C1000.90272,751.261902 1001.53444,752.112508 1002.41032,752.762628 C1003.40634,753.494499 1004.42368,753.138296 1005.26662,752.203992 C1006.45448,750.88818 1007.60747,751.14706 1008.72751,752.357763 C1009.48906,753.181118 1010.30487,753.955812 1011.14005,754.7889 C1012.4965,754.7889 1013.88977,754.709095 1015.27529,754.814204 C1017.03674,754.942671 1018.47652,754.635129 1019.69926,753.153868 C1020.03644,752.73927 1021.30181,753.085741 1022.14475,753.085741 C1023.21441,753.360193 1023.59615,752.429782 1024.17168,751.882825 C1025.937,750.193292 1025.87887,750.152416 1024.4856,747.791352 C1023.57871,746.251696 1023.53221,745.685274 1024.3829,744.906688 C1025.18514,744.178709 1026.02808,743.075062 1026.93109,742.991364 C1028.61696,742.837594 1029.89784,741.644409 1030.10325,740.66923 C1030.68264,737.922765 1032.67857,736.449289 1034.4749,734.859026 C1036.04257,733.455624 1035.57944,731.842003 1035.68408,730.226435 C1031.22329,727.431309 1025.68703,726.35102 1022.03236,721.270741 C1022.18157,718.775371 1022.36372,715.748615 1022.55556,712.725752 C1022.55944,712.622589 1027.83797,704.019206 1028.1829,703.631859 L1035.68408,703.631859 C1035.68408,701.987095 1035.75965,700.618728 1035.65695,699.263988 C1035.56587,697.938444 1036.22472,696.433825 1034.83726,695.277624" id="Fill-123" transform="translate(889.262471, 713.109888) rotate(-6.000000) translate(-889.262471, -713.109888) "></path>
        </g>
    </g>
</svg>