<svg xmlns="http://www.w3.org/2000/svg" width="179" height="232" viewBox="0 0 179 232">
    <path fill="#EAF2F5" fill-rule="evenodd" stroke="#BCCCD2" d="M177.858 114.797c-1.663-1.736-2.087-4.617-4.464-5.546-1.495-.575-3.044-.838-4.29-2.02-1.344-1.27-2.854-2.36-4.367-3.591 1.556-1.735 2.753-3.302 4.181-4.603 2.176-1.986 2.765-3.17 1.035-4.892-1.22-1.204-.895-3.293-2.703-3.921-1.933-3.281-.296-6.117 3.945-6.845l-.622-5.915c-2.407-1.71-4.217-4.77-7.969-3.502-.295.104-.86-.626-1.312-.952-1.305-.963-2.363-2.611-4.35-1.797-1.863.76-2.733-1.763-4.541-1.27-1.321.357-2.73.401-4.055.766-.263.074-.31.942-.458 1.445-1.008.327-2.071-.042-3.095.858-2.215 1.932-2.349 1.832-4.002.297-.574-.529-1.031-1.205-1.478-1.86-1.259-1.817-1.954-2.263-2.894-1.191-2.085 2.372-3.988 2.472-6.442.585-.702-.541-2.069-.012-2.953-.937-1.183-1.24-2.64-.153-3.963-.276-1.262 2.497-3.705 2.012-5.833 2.326-1.454-2.214-2.53-4.704-4.834-6.284-1.633-1.114-1.385-2.868-1.082-4.468.142-.749 1.2-1.488 1.083-2.085-.35-1.822 1.61-2.648 1.438-4.554-.223-2.502-2.17-3.076-3.454-4.41-1.101-1.134-.999-2.438.553-3.116.758-.334 1.89-.522 1.766-1.292-.33-2.075 1.34-2.928 2.167-4.316 3.616-.38 7.24-.816 10.883-1.11 1.035-.084 1.366-.813 1.923-1.387 1.573-1.606 1.341-4 2.504-5.78-.985-2.085 1.11-3.554 1.082-5.375-.03-1.713 1.382-2.733 1.568-4.492.173-1.65 2.248-3.094 3.482-4.63.71-.874 1.416-1.752 2.076-2.571l-1.312-12.48c-2.423-.601-4.59.183-6.77.372-.648.055-1.148 1.133-1.843 1.439-4.024 1.773-8.028 1.067-11.518-1.124-2.305-1.447-4.719-2.387-7.177-3.36l-1.678.176c-1.429-.055-1.859 1.231-2.367 2.085-1.027 1.701-2.533 1.914-4.234 2.058-1.041.084-2.28-.187-2.96 1.031.021.542.04 1.094.063 1.641.125 3.005-.51 3.561-3.084 2.192-1.461-.778-2.318-.831-3.51.38-2.739 2.79-3.324 6.583-4.886 9.912-2.34.475-5.01-.276-6.752 2.342-.4.604-2.016.433-2.481-1.1-.779-2.585-3.22-3.499-5.165-5.003l-6.472.68c-1.25-1.013-2.335-1.9-3.49-2.84l-5.026.527c-1.318 1.844-3.63 3.196-3.849 5.983 2.132 1.747 3.717 4.087 6.8 4.249.68.036 1.367.936 1.942 1.545.334.359.605.92.633 1.406.105 2.057-2.818 4.28-4.353 3.129-1.337-1.003-2.52-.855-3.876-.703-.505-1.784-1.898-2.947-3.496-2.938-1.75.004-2.649-2.246-4.507-1.35-1.317-1.04-2.626-2.095-3.96-3.111-.649-.496-1.298-1.057-2.043-1.337-.42-.16-1.368.051-1.493.343-.72 1.672-1.505 3.383-1.8 5.156-.354 2.137 1.04 4.343.105 6.58-2.46.263-4.876 1.55-7.088-.605-.274-.27-1.36-.248-1.544.016-1.701 2.422-4.328 2.026-6.721 2.378-.363.408-.736.82-1.091 1.242-2.698 3.156-2.76 3.235-5.762.95-1.193-.914-2.281-1.463-3.76-1.085-.845.216-1.624.06-2.226-.701-.232-2.207-.45-4.453-.73-6.688-.025-.202-.408-.358-.628-.54-.538-.022-1.073-.09-1.606-.059-2.238.13-4.649.129-5.564 2.75-.666 1.908-.407 3.616 1.399 5.114 1.02.846 1.133 2.738.451 3.828-.802 1.268-1.302 2.368-.954 3.824 1.188 5.021-.511 10.672 3.291 15.112.384 3.651.989 7.295 1.087 10.948.1 3.651 3.434 6.206 2.882 10.076-.412 2.881 1.84 6.019-.752 8.752.265 2.796.489 5.595.846 8.38.044.345.775.812 1.223.861 3.694.354 5.4 3.682 8.123 5.466 1.16.76 2.145.098 3.204.215.175 1.661.237 3.354.554 4.992.347 1.801-.36 3.88 1.586 5.307 1.553 1.143.645 3.113 1.141 4.644.158.48.33 1.232.672 1.35 1.627.571.863 2.707 2.106 3.255 1.545.691.905 2.498 2.066 3.331 1.135.8 2.112 1.831 3.27 2.586 1.106.724 1.735 2.282 3.41 2.044-.058 1.401 1.303 1.62 2.007 2.384.547.59 1.8 1.198 1.721 1.602-.621 3.277 3.109 4.897 2.785 8.211-.27 2.698.215 2.753 2.174 5.69l.978 9.306c1.965 1.598 3.451 2.821 4.96 4.025.632.51 6.17 2.393 7.253 2.35.858-.034 1.745-.04 2.1.748.322.717.22 1.628.307 2.449.057.542.169 1.086.164 1.629-.01 1.725 2.422 1.986 2.2 3.996-.174 1.586.244 3.243.457 4.86.1.771.223 1.59.578 2.261.165.302.912.294 1.392.427.14 2.164 1.106 4.466-1.046 6.238.207 1.97.46 3.945.608 5.914.108 1.51 2.34 1.642 2.067 3.35 1.78 1.492 2.18 3.613 2.605 5.727 2.693 1.674 1.566 4.553 2.08 6.888.425 1.93.46 3.937.667 5.905.178 1.694-.07 3.597.652 5.01.712 1.398 2.19 2.378 2.06 4.258-.029.463.274 1.087.632 1.408 1.26 1.133 2.572 2.99 3.93 3.047 2.22.097 4.184 1.204 6.16 1.255 3.913.094 7.85-.659 11.771-1.114.487-.059.938-.437 1.442-.688.639-3.692-1.906-7.64.793-11.196-.236-2.251-.524-4.503-.696-6.757-.169-2.212-.223-4.434-.325-6.644 2.09-1.923.898-4.273.556-6.34-.35-2.108.745-3.792 1.975-4.233 2.937-1.048 4.082-3.617 5.858-5.628 1.787-2.03 1.823-5.16 4.088-6.969.119-.092.019-.561-.076-.816-.826-2.26.42-3.823 1.89-5.152 1.874-1.706-.769-4.608 1.733-6.07.168-.091.258-.498.216-.728-.094-.523-.154-1.352-.466-1.484-1.754-.751-1.36-2.887-2.746-3.935-1.482-1.124-1.212-2.88-.7-4.659 2.391-.404 4.828-.768 7.238-1.271.242-.05.31-.941.457-1.446l4.125-.433c1.102-.116 2.35.056 3.266-.424 1.116-.573 1.68-1.83 3.262-2.126 1.041-.193 1.6-2.172 3.282-1.9 1.207-2.535 3.636-2.003 5.73-2.312 2.142.995 4.402 2.074 6.567 2.532 2.595.555 5.506-.385 8.148-.663 1.963 1.857 4.054 2.972 6.409 3.797 2.04.723 3.553.752 5.174-.912 1.198-1.226 1.515-1.202 2.787-.35 1.287.86 2.234 1.404 3.577.074.911-.896 2.151-1.465 3.28-2.2l-.4-3.8c-1.281-.965-3.058-1.947-4.365-3.365-1.395-1.523-2.342-3.453-3.639-5.444.972-1.095 1.702-2.363 2.795-3.048 1.45-.9 2.376.935 3.644 1.257.694.178 2.11-.535 2.068-1.065-.11-1.413-.505-2.841-.364-4.22.13-1.26 1.019-2.434 1.197-3.706.262-1.83-.966-3.717.697-5.563 1.239-1.377-.936-3.898 1.263-5.34.278-.188.386-1.259.147-1.51"/>
</svg>
