<svg xmlns="http://www.w3.org/2000/svg" width="279" height="250" viewBox="0 0 279 250">
    <path fill="#EAF2F5" fill-rule="evenodd" stroke="#BCCCD2" d="M277.368 125.727c-1.781-1.32-3.46-2.78-4.946-3.99-.251-2.396-.145-4.476-.78-6.294-.388-1.114-1.818-2.003-2.97-2.645-.595-.331-1.605.033-2.108.9-.633 1.09-1.674 1.552-2.765.962-.952-.516-1.952-.828-2.894-1.228-3.122-1.345-5.791-3.36-5.465-7.433.071-.878-.286-1.604-1.138-2.015-.547.057-1.115.064-1.664.18-3.143.667-5.716-.83-8.321-2.202-1.1-.577-1.372-1.539-1.544-2.744-.319-2.293-.438-2.279-2.383-2.321-2.477-.057-2.477-.057-3.164-2.367-.006-.026-3.067-5.47-3.07-5.468-2.134 1.164-3.163-2.375-5.376-1.253-.641.325-1.522.36-2.323-.326-2.792-2.388-5.704-4.626-8.5-7.01-.556-.473-1.044-1.332-1.091-2.042-.096-1.524-.678-2.553-1.896-3.472-2.682-2.028-5.256-4.194-7.777-6.229-.037-1.372-.452-2.667-.02-3.552 1.85-3.793 2.9-7.912 4.785-11.663.605-1.208.072-2.166.192-3.231l-.623-5.93c-.87-.703-1.803-1.355-2.615-2.136-2.162-2.079-4.26-2.19-6.44-.036-.351.348-.895.629-1.386.694-2.508.316-5.03.552-7.537.816-1.415-1.744-3.984-2.234-4.706-4.634-2.687.567-5.876-.37-8.025 1.539-2.447 2.173-5.377.866-7.996 2.087-1.473 1.83-2.944 3.926-4.699 5.754-1.775 1.853-2.086 4.32-3.066 6.488-.687 1.518 1.86 1.86 1.955 3.311.03.508-.018 1.165-.311 1.509-.298.354-.935.447-1.44.58-.233.058-.58.018-.764-.12-.876-.663-1.632-1.585-2.916-1.182-1.472.458-.904 1.694-1.101 2.709-.175.912-1.374 1.31-2.018.971-1.46-.77-2.736-1.893-4.157-2.918l-7.454.784-1.388-13.208c-1.092-.692-2.504-1.594-3.744-2.384l-.643-6.113c-2.382 1.362-3.458-.643-5.218-1.91-.242-2.304-.457-4.814-.78-7.312-.288-2.22-2.582-3.731-4.886-3.198-.744.169-1.581.511-2.07 1.05-.843.934-1.848 1.527-2.794.757-.733-.598-.964-1.81-1.534-2.987l-10.46 1.099c-1.396-1.15-2.485-2.042-3.565-2.931l-7.585.797c-.642-6.105-1.377-12.207-1.881-18.323-.202-2.455-1.19-4.09-3.385-5.062-2.404 1.061-4.833 2.137-6.362 4.411-.87 1.287-2.066 1.472-3.43 1.823-2.251.587-3.731 2.061-3.278 4.736.136.796.304 1.618-.45 2.288-1.4 1.24-1.934 3.364-3.93 4.34.012-.072.011-.248-.075-.33.02.114.033.224.059.339-.266.676-.714 1.277-.854 1.215-1.075-.49-.434-1.046.074-1.495.157-.138.576-.18.714-.067.004.001.003.005.007.009-.445-2.378.076-4.612-1.075-6.465-2.957-.287-5.338.23-7.697 2.112-2.193 1.753-4.302 3.22-4.648 6.25-.098.888-.728 1.341-1.706 1.385-1.387.062-2.767.274-3.837.386l-4.01 4.682c1.38 2.707-.714 4.796-1.218 7.08-.286 1.293-1.458 3.166-3.65 2.846-.645 1.784-2.648 1.715-3.812 2.802-1.346 1.267-2.312 4.025-1.194 5.25 1.208 1.32 1.713 2.581 2.16 4.24.453 1.691 1.65 3.301 2.859 4.636 1.094 1.21 1.292 2.006.53 3.546-1.247 2.533-1.081 3.873.548 5.076 1.607 1.188 2.26 3.064 3.523 4.304 1.956 1.925 1.123 4.197 1.707 6.25.23.803.202 1.681.29 2.521-1.003.333-2.264-.279-3.043.892-.303.456-.768 1.235-1.07 1.194-3.051-.419-4.37 1.806-5.966 3.698-.848 1.003-1.635 1.932-3 2.594-1.594.77-2.639 2.69-3.923 4.115-.034 3.624-3.596 5.277-4.666 8.051.294 2.797.461 5.32.854 7.812.245 1.518.013 2.852-1.204 3.674-1.826 1.236-1.004 3.605-2.401 4.997-1.203 1.197-.057 2.65-.204 3.975 3.064 1.749 1.809 4.94 2.488 7.489-2.12.313-4.405-.087-5.917 2.246-.377.582-2.354.725-3.168.278-1.692-.928-3.1-2.384-4.625-3.625.751-2.342-2.931-2.585-2.289-4.997.446-1.674-1.09-2.366-2.13-3.245-.992-.84-2.04-.918-2.868.065-2.345 2.795-4.367 5.916-6.999 8.384-1.066.999-2.698 1.558-3.693 2.902-1.14 1.542-2.393 2.999-3.396 4.243.195 1.855.528 3.266.445 4.649-.124 2.046 1.124 3.626 2.557 3.843 4.87.727 6.902 6.264 11.824 6.66.75 3.347 3.972 4.367 6.184 6.647.183 1.746.353 3.693.609 5.63.18 1.394-.55 1.686-1.718 2.19-2.19.939-3.285 2.782-2.613 5.32-.147.5-.148 1.3-.462 1.452-2.595 1.246-4.748 3.267-7.349 4.395-1.157.506-1.7 1.316-2.415 2.09-.913.985-.985 2.247-.191 2.905 1.734 1.425 3.511 2.8 5.18 4.124l1.254 11.938c-1.732 2.033-1.673 2.285-4.556 2.958-1.696.396-2.115 2.55-4.136 2.341-.674-.072-.753 1.18-.78 2.047-.105 3.139 1.235 5.339 4.139 6.664.24 2.288.66 4.505.654 6.725-.005 2.47 1.656 3.744 3.409 4.049 1.54.269 2.567.936 3.51 1.85 1.149 1.117 2.365 1.175 3.804.979 1.935-.27 3.213 1.132 3.823 2.528.624 1.425.79 3.24-.819 4.59-.846.705-1.332 1.846-2.165 2.573-1.61 1.397-.83 3.072-.748 5.117 1.12.822 2.493 1.789 3.818 2.814 1.304 1.006 2.565 2.077 3.476 2.811.49 3.294.866 6.053 1.374 8.794.042.23.934.305 1.433.45.557-.058 1.21.054 1.654-.2 2.145-1.23 4.925-4.648 6.04-7.444 1.083-2.71 1.686-5.66 3.948-7.757.033-3.434 2.725-5.308 4.633-7.517 1.938-2.233 1.797-3.679-.483-5.388-.74-.553.098-2.263 1.11-2.526.27-.07.561-.038.836-.1 2.366-.53 2.513-.54 2.465-2.995-.026-1.228.143-2.235 1.07-2.935 1.661-1.263 1.259-3.495 2.443-4.95l4.182-.44c.453-.245.956-.427 1.351-.744 2.47-1.97 4.47-1.938 6.374.054 1.098 1.143 1.058 3.003 2.727 3.85 1.465.741 2.723 1.903 3.794 2.675l.928 8.827c1.532 1.248 2.961 3.316 4.593 3.49 1.738.19 2.749 1.774 4.428 1.53 2.412.421 3.488-1.309 4.65-2.916.022-.255.087-.526.06-.787-.255-2.537-.525-5.071-.792-7.603-.089-.85-.21-1.69-.26-2.537-.106-1.654 1.579-3.978 3.398-3.913 3.342.122 5.39-2.156 7.836-3.677.855-.534 1.534-1.514 1.31-2.856-.22-1.357-.235-2.763-.155-4.137.017-.276.851-.503 1.308-.754.499.149 1.371.2 1.429.45.903 3.828 3.432 4.552 6.844 3.83.772-.164 1.649-.385 2.464.7.202 1.926.42 4.132.674 6.337.083.697 1.24 1.269 1.95.942.465-.212.873-.55 1.306-.825 3.898-2.482 6.371-2.284 8.707 1.496 1.257 2.035 3.256 2.888 4.746 4.457.25.266 1.346.237 1.53-.026 1.685-2.4 4.283-2.039 7.242-2.452.536-.784 1.075-2.51 2.146-2.967 4.493-1.909 5.75-5.926 7.125-9.956-.354-1.344 1.318-1.808 1.33-2.756.01-1.154.229-1.991.883-2.958.817-1.2.815-1.795-.34-2.703-1.307-1.029-1.28-2.275-1.43-3.595 1.768.072 3.213-.477 4.079-2.14l14.87-1.563c1.3 1.073 2.657 1.688 4.445 1.285 1.556-.354 3.187-.376 4.509-.515.357-.662.604-.905.583-1.122-.349-3.6-.734-7.192-1.112-10.789l7.953-.836c.402-.606.969-1.556 1.633-2.428.473-.62.816-1.456 1.876-1.374 1.776.14 2.842-.973 4.183-1.985 1.138-.858 3.199-.658 4.846-.615 1.676.045 2.27-1.208 3.305-2.033.545-.439 1.603-.235 2.427-.322-.467-2.72-1.777-4.414-3.693-4.741-.772-.132-4.42-2.295-4.718-2.877-.363-.695-.648-1.46-1.138-2.054-1.017-1.23-1.595-2.921-2.629-3.862-.998-.91-2.868-1.499-4.284-1.7-2.51-.355-3.862-2.135-5.473-3.504-1.593-1.343-3.123-.74-4.976-.68-.486-.439-1.144-.972-1.726-1.577-1.11-1.145-3.511-1.758-2.76-3.72.477-1.242 2.24-2.556 3.597-2.775 3.002-.482 5.018-1.957 6.555-4.428.439-.7 1.033-1.793 1.62-1.833 2.417-.168 2.905-2.4 4.321-3.61.375-.315.988-.487 1.495-.485 1.51-.003 2.602-.564 3.476-1.848.754-1.112 1.552-2.05 3.149-2.45 1.1-.276 1.844-1.973 2.764-3.023.893-1.021 2.544-.657 3.353-2.116.59-1.068 1.83-.803 2.846-.011 1.073.832 2.446 2.36 3.353 2.145 2.879-.675 5.07 2.422 7.942 1.064 1.489-.707 2.992.096 3.613 1.303 1.722 3.352 4.767 5.25 7.478 7.536.629.537 1.28.981 1.292 1.988.037 3.49 3.153 5.399 4.404 8.325.692 1.62 2.726 2.694 4.222 3.934 3.704 3.054 7.448 6.068 11.173 9.101.528.044 1.065.16 1.59.123 2.217-.177 4.556-.1 5.667-2.686.214-.502.618-1.148 1.058-1.28 1.06-.307 2.226-.582 3.294-.438 1.338.18 1.016 1.715 1.534 2.624 1.601.941 3.237.008 4.859.064-.711-2.52.639-5.729-2.483-7.44l-.534-5.076c1.708-1.737 4.054-1.142 6.118-1.447 4.15-.599 4.162-.498 8.64-3.468.435-1.637 3.583-.351 3.14-2.937-.337-1.016.244-2.238-.906-3.091"/>
</svg>
