<?xml version="1.0" encoding="UTF-8" standalone="no"?>
<svg width="557px" height="504px" viewBox="0 0 557 504" version="1.1" xmlns="http://www.w3.org/2000/svg" xmlns:xlink="http://www.w3.org/1999/xlink">
    <!-- Generator: sketchtool 47 (45396) - http://www.bohemiancoding.com/sketch -->
    <title>79F05EFD-1175-4078-8905-C0F859FC957A</title>
    <desc>Created with sketchtool.</desc>
    <defs></defs>
    <g id="Page-1" stroke="none" stroke-width="1" fill="none" fill-rule="evenodd">
        <g id="Главная-страница" transform="translate(-1040.000000, -182.000000)" stroke="#BCCCD2" fill="#EAF2F5">
            <path d="M1214.87432,320.220223 C1215.71338,320.220223 1217.02139,319.865966 1217.33337,320.274724 C1219.26922,322.836275 1221.88911,321.701484 1224.2629,321.843576 C1226.10768,319.998326 1224.07688,317.432883 1225.46821,315.521452 C1228.29932,318.859643 1228.38264,319.171078 1228.44853,326.207555 C1229.24883,327.007553 1229.93869,328.002197 1230.88433,328.533583 C1231.40753,328.829446 1232.37061,328.354508 1233.13604,328.226041 C1232.97326,327.825069 1232.85118,327.402686 1232.63802,327.03091 C1231.18856,324.399287 1231.50442,323.790043 1234.46342,323.620701 C1234.74827,323.605129 1235.03119,323.628487 1235.31217,323.614861 C1235.57959,323.59929 1235.85088,323.556467 1236.11442,323.525324 C1238.31187,321.32387 1240.50351,319.122416 1242.79978,316.815853 C1244.08841,316.815853 1245.51656,317.014392 1246.87301,316.774977 C1250.0258,316.224127 1253.65915,318.388598 1256.3333,315.126319 L1264.79949,315.126319 C1266.45436,316.430452 1265.38083,318.26597 1265.62499,319.842609 C1265.91372,321.660609 1267.63641,323.575932 1269.29128,323.607075 C1271.54687,323.653791 1273.80052,323.675202 1276.05416,323.597343 C1277.50944,323.546735 1278.61786,323.881527 1279.78441,324.92094 C1280.78624,325.816315 1282.507,325.691741 1283.67548,324.996853 C1287.05692,322.98226 1290.5837,321.282994 1294.11241,319.554531 C1295.10068,319.067915 1295.88742,318.40417 1297.07335,318.495654 C1297.86784,318.559887 1298.98401,318.801249 1299.27662,317.822176 C1299.58279,316.790549 1299.65448,315.5779 1299.4297,314.530701 C1299.27662,313.824133 1298.51894,313.125352 1297.86397,312.667932 C1296.2808,311.562339 1295.92037,310.083024 1296.08314,308.276703 C1296.11802,307.819283 1295.7169,307.313202 1295.49212,306.842157 C1294.27519,304.255302 1294.26356,304.249463 1295.7479,302.739005 C1297.31751,301.146795 1298.90069,299.566264 1300.36371,298.098628 C1302.21624,298.215416 1303.91568,297.660673 1305.14036,299.472833 C1307.03746,302.269906 1310.00227,302.048009 1312.50783,300.981345 C1313.76158,300.455799 1314.83318,299.665534 1316.25164,299.825144 C1317.2341,299.934146 1317.97046,299.503977 1318.08479,298.635853 C1318.45103,295.792065 1320.98759,294.785741 1322.46806,293.070904 C1323.90784,292.732219 1324.63257,293.578932 1325.43288,294.384769 C1327.14588,296.107392 1328.64186,298.180379 1331.29856,298.596923 C1332.10856,300.340958 1334.25757,299.546799 1335.4745,300.913219 C1336.48021,302.046063 1336.4182,303.431947 1337.19913,304.479146 C1337.87348,305.376467 1338.71835,306.164786 1339.57486,306.883033 C1340.40617,307.568189 1340.38098,308.644585 1340.0283,309.150666 C1339.24543,310.260152 1337.81147,311.097133 1338.60984,312.681557 C1339.23574,313.925349 1340.61739,313.224621 1341.65216,313.427054 C1343.59189,313.812454 1345.07236,315.472791 1345.20801,317.290791 C1345.38241,319.727767 1344.08796,321.397836 1341.55721,321.90197 C1340.76272,322.061581 1339.71825,321.767664 1339.15823,322.182262 C1338.66022,322.555983 1338.23003,323.922403 1338.51489,324.315589 C1339.48959,325.674223 1340.7666,326.81096 1341.96027,327.998304 C1342.89622,328.930662 1344.28562,329.043557 1344.83207,328.226041 C1345.54324,327.159377 1345.31265,326.195876 1344.38832,325.31802 C1344.09765,325.031889 1343.98526,324.553058 1343.79148,324.163765 C1346.62647,322.65136 1348.54875,323.967172 1350.24819,326.151107 L1350.24819,332.971527 C1352.24799,334.890743 1354.27492,336.844996 1356.37354,338.863482 C1359.1562,338.219202 1361.31684,340.163722 1363.61893,341.386103 C1364.61883,341.915542 1365.70786,342.892669 1366.48104,342.073206 C1368.24249,340.202651 1369.47105,340.233795 1371.30226,342.036223 C1372.40874,343.132084 1374.05973,342.063474 1373.95509,340.434281 C1373.82332,338.581245 1374.80966,336.407041 1372.6529,335.038675 C1372.53469,333.390018 1372.18395,331.719949 1372.33898,330.096596 C1372.67034,326.408041 1371.7712,323.081529 1369.61638,320.181294 C1368.82577,319.116576 1368.96916,318.131664 1368.90715,317.063054 C1368.82964,315.647973 1369.36641,315.192499 1370.843,315.104908 C1372.29828,315.013424 1373.57916,315.163302 1374.52674,316.48106 C1375.01506,317.156484 1375.70298,317.691763 1376.33469,318.33215 L1389.03883,318.33215 L1389.03883,311.289833 C1390.7809,309.415386 1392.12185,307.975 1393.41048,306.593009 C1395.64475,306.927801 1397.99335,305.740457 1399.84588,307.834855 C1400.26056,308.307846 1401.35541,308.261131 1402.14991,308.298114 C1404.5702,308.411009 1407.04476,307.873784 1409.14145,309.927307 C1409.65496,310.433388 1411.29627,310.030469 1412.3136,309.69957 C1413.31932,309.370617 1412.77092,308.237773 1412.94532,307.459187 C1412.99958,307.225611 1413.37551,307.083519 1413.51697,306.84605 C1414.51687,305.183767 1414.48586,305.092283 1413.11004,304.907369 C1412.04619,304.771116 1410.87189,305.325859 1409.89912,304.448003 C1409.21508,302.577448 1409.45924,300.667964 1409.74022,298.65921 C1410.67424,298.30106 1411.90473,298.180379 1412.57327,297.503009 C1414.14288,295.914692 1415.17959,296.276735 1416.7647,297.604225 C1418.38082,298.955073 1419.54155,298.073324 1419.67914,295.692795 C1419.71208,295.130266 1419.68301,294.561898 1419.68301,292.940491 C1417.69872,291.266529 1415.14084,289.107898 1413.08291,287.375542 C1412.65272,285.275304 1413.85221,284.734187 1414.35022,283.809615 C1414.65639,283.250979 1414.53625,282.050009 1414.11769,281.623733 C1413.70106,281.193564 1412.45119,281.018382 1411.94736,281.339549 C1410.58316,282.227137 1409.45537,283.488448 1408.12992,284.463628 C1407.85669,284.669953 1407.00407,284.414966 1406.66689,284.103531 C1406.33165,283.801829 1406.20376,283.159495 1406.165,282.653414 C1406.02354,281.160474 1408.18805,280.798431 1407.87219,279.101112 C1407.67066,278.007197 1407.83538,276.84321 1407.83538,275.167302 C1409.44762,273.522538 1411.39509,271.597482 1412.91626,270.053934 C1412.99571,267.636422 1411.48617,267.029125 1410.57541,266.077302 C1409.72084,265.189713 1409.18795,264.298232 1409.6724,263.155656 C1410.06577,262.23303 1411.05598,262.410159 1411.87566,262.408212 C1414.12544,262.406266 1416.3849,262.408212 1418.63854,262.406266 C1420.34574,261.542035 1420.9697,259.173185 1423.16134,259.023307 C1425.59327,258.857857 1425.86068,255.689009 1428.50964,255.465165 C1430.18001,255.328913 1431.87945,254.013101 1433.29597,252.88415 C1434.34432,252.043277 1435.36747,252.202887 1436.41581,252.23403 C1438.15207,252.290478 1439.68098,252.175636 1440.88629,250.600945 C1441.15758,250.242795 1442.5586,250.143525 1443.07018,251.079776 C1443.31434,251.525516 1443.44417,252.150332 1443.34922,252.640842 C1443.18451,253.520645 1442.62836,254.032566 1441.59939,253.92551 C1440.77583,253.835973 1439.92902,253.907992 1439.13259,253.907992 C1437.46028,255.648133 1438.53769,257.711388 1438.34004,259.589728 C1438.24508,260.510407 1440.20419,261.193617 1440.99093,260.539604 C1441.63234,260.000433 1442.17104,259.325009 1442.79889,258.752748 C1444.96533,256.788763 1446.39736,256.983409 1448.06773,259.470994 C1448.78665,260.541551 1448.30414,261.345442 1447.71699,262.402373 C1446.04662,265.388253 1446.40898,266.74494 1448.86804,268.769266 C1449.74392,269.483619 1451.4453,269.382403 1451.69139,268.434474 C1451.96269,267.36781 1451.91424,266.281681 1452.94708,265.538131 C1453.84621,264.882172 1454.67753,264.126943 1455.12709,263.75906 L1455.12709,254.649596 C1451.90261,251.593643 1454.29191,247.772728 1453.44509,244.607773 C1455.26661,243.027242 1462.36086,238.639906 1464.04286,238.708033 C1466.6298,238.809249 1468.19166,236.080302 1470.98789,236.794656 C1472.36759,237.14502 1473.57483,237.316309 1474.5728,238.441367 C1475.82073,239.856448 1475.97963,240.755716 1474.72588,241.937221 C1473.96045,242.657414 1473.39656,243.506073 1472.10793,243.807776 C1470.43756,244.199015 1469.81165,246.859836 1470.93363,248.30606 C1471.26499,248.73623 1472.62919,248.909465 1473.10977,248.584405 C1474.24919,247.801925 1475.14638,246.657403 1476.26448,245.530399 L1485.00003,245.530399 C1485.83716,244.397555 1486.83512,243.046707 1487.59861,242.003401 L1490.70876,242.003401 C1492.11559,242.003401 1494.00881,241.435033 1494.82462,242.135761 C1496.1365,243.260818 1497.67317,243.562521 1499.049,244.327482 C1501.95374,245.946943 1502.92651,245.789279 1504.82748,244.078334 C1506.48623,242.587341 1507.44349,240.730412 1508.50153,238.811195 C1509.42004,237.14502 1511.23381,235.994658 1512.54957,234.521182 C1512.84992,234.188337 1512.9255,233.392232 1512.74722,232.950384 C1511.82871,230.663285 1515.15008,229.845769 1514.47573,227.694923 C1516.336,226.667189 1515.74692,224.136782 1517.36691,222.947491 C1518.859,221.843844 1519.74263,220.195187 1521.9769,219.698838 C1523.60465,219.340688 1525.49011,217.363078 1526.06951,215.689116 C1526.86982,213.384499 1528.02862,212.380122 1530.10592,211.214189 C1532.20261,210.042416 1534.09777,209.571371 1536.2739,209.727088 C1538.06636,209.861394 1538.64769,207.494491 1540.66493,207.930499 C1542.28105,208.278917 1544.03087,207.998626 1545.71674,207.998626 L1550.81894,207.998626 C1552.22965,209.93536 1555.08207,210.809324 1555.09951,213.808829 C1556.86096,215.622936 1558.60304,217.452615 1560.3858,219.247257 C1561.4012,220.274992 1562.37591,220.115382 1563.86607,218.745069 C1564.06954,218.556262 1564.26331,218.346043 1564.46484,218.145557 C1564.86209,217.746531 1565.25934,217.345559 1565.955,216.648724 L1572.79733,216.648724 C1574.0317,215.03121 1573.83792,212.500803 1576.51013,212.849221 C1576.70779,212.368444 1577.04109,211.891559 1577.07791,211.397157 C1577.16511,210.268206 1577.10697,209.129523 1577.10697,207.998626 C1578.14563,208.226362 1579.22885,207.607386 1580.27719,208.561155 C1581.8468,209.991808 1583.97256,210.527086 1585.65456,212.05117 C1587.04589,213.310534 1589.24528,214.081334 1591.154,214.929994 C1593.07628,215.776707 1594.95788,217.419525 1595.64579,219.580103 C1596.13605,221.139223 1595.89577,222.904669 1594.21183,224.05503 C1593.92697,224.251624 1593.90566,225.16257 1594.06649,225.633615 C1595.19429,228.880322 1591.25089,231.077883 1592.3438,234.283713 C1590.73156,235.182981 1590.91759,237.113876 1589.98939,238.400491 C1588.58062,240.381994 1586.29403,241.49148 1585.43559,244.163979 C1584.65272,246.591223 1582.70912,248.613602 1582.1336,251.282208 C1581.9185,252.265174 1580.22294,252.590234 1580.50973,253.983904 C1580.60856,254.4822 1580.84497,255.282197 1581.15501,255.354217 C1582.45721,255.652026 1583.80591,255.725992 1585.38327,255.90896 C1585.49372,257.900195 1585.60611,259.807733 1585.68556,261.333763 C1587.20091,263.007724 1588.50698,264.469521 1589.76267,265.859298 L1605.09445,265.859298 C1606.13504,267.151752 1607.94493,267.906981 1607.57288,269.983861 C1609.81296,272.572662 1610.40398,276.627152 1614.34545,277.713281 C1614.34545,278.56194 1614.69619,279.850501 1614.2815,280.179454 C1612.75258,281.409621 1612.6867,282.908401 1612.59562,284.652435 C1612.48517,286.820799 1613.34942,289.119576 1612.1073,291.13417 C1611.69261,291.213975 1611.43295,291.270422 1611.16941,291.311298 C1609.54942,291.546821 1607.80154,290.754609 1606.28812,291.776504 C1604.5073,292.977474 1604.26313,294.76433 1604.04223,296.825639 C1603.89302,298.26797 1602.52494,299.801786 1600.58134,299.788161 C1599.13962,299.776482 1598.06996,300.159936 1596.84528,301.090347 C1594.75635,302.69229 1594.15563,305.142891 1592.80112,307.130234 C1591.70433,308.747748 1592.27598,310.86745 1592.54145,312.763309 C1593.42121,314.01878 1595.13034,314.610506 1595.40163,316.338968 C1593.47934,317.42315 1590.67343,315.852352 1589.47006,318.762319 C1589.04181,319.795893 1588.72207,320.817788 1589.58051,321.680073 C1590.53003,322.639681 1591.30708,324.023619 1593.00652,323.609022 C1595.11096,323.097101 1596.05273,324.732133 1597.08169,325.948675 C1597.45375,326.382737 1597.4053,327.638208 1597.03906,328.152075 C1596.22713,329.292705 1595.09546,330.199758 1594.0975,331.204135 C1594.19245,333.10778 1593.34757,335.190499 1594.60714,336.8703 C1595.89189,338.587084 1596.10311,340.858611 1598.09128,342.293157 C1600.3488,343.926242 1602.13932,346.213341 1604.18756,348.270756 C1604.18756,349.341313 1604.65263,350.8362 1604.10424,351.525249 C1602.25171,353.864902 1601.65875,356.815746 1600.02325,359.198221 C1599.23457,360.342743 1598.1998,361.436658 1597.03906,362.174369 C1595.43457,363.200157 1596.01978,365.183606 1594.72728,366.384576 C1593.13636,367.873624 1592.70229,368.241506 1590.62111,366.8673 C1589.58439,366.180197 1588.56899,365.63324 1587.74737,366.57533 C1586.34053,368.194791 1584.38918,369.24199 1583.75746,371.712056 C1583.16837,374.034191 1580.98449,374.912048 1578.49249,374.655114 C1577.44221,374.548058 1576.23109,374.300857 1575.43272,375.484309 L1575.43272,380.720304 C1575.73889,380.998649 1576.23691,381.315923 1576.56439,381.757771 C1577.84527,383.49402 1580.26363,384.373823 1580.49616,386.919801 C1578.65139,389.582568 1575.9133,387.593279 1573.68871,388.237559 C1573.19458,388.381598 1572.73145,388.642424 1572.23731,388.858482 C1571.84394,389.999112 1572.35552,391.805433 1570.15613,391.64193 C1569.03802,391.562125 1567.89085,391.515409 1566.77469,391.653609 C1564.6063,391.922221 1563.12389,394.653114 1564.16449,396.443863 C1564.56367,397.132913 1565.35041,397.508581 1565.2884,398.546048 C1565.17795,400.513925 1565.25934,402.487643 1565.25934,404.383501 C1566.1294,405.261358 1566.92777,406.061356 1567.7242,406.865247 C1568.69116,407.828748 1569.64843,408.792249 1570.33634,409.485191 C1570.33634,411.163045 1570.3344,412.291996 1570.33634,413.426786 C1570.36153,417.847212 1570.8983,419.600979 1574.36307,423.624326 C1575.63619,425.097801 1575.44629,427.209718 1577.24649,428.451564 C1579.07577,429.714821 1580.49229,431.583429 1582.26536,433.368339 C1581.7596,435.534756 1583.17419,438.228666 1580.54655,440.165401 C1580.13961,440.46321 1580.49616,441.784861 1580.49616,442.637414 C1580.43222,444.354197 1581.99214,444.916726 1582.92034,445.849084 C1584.35818,447.297255 1583.91248,448.889465 1583.62182,450.473889 C1583.56562,450.771698 1582.74206,451.075347 1582.26149,451.092866 C1581.77704,451.114277 1581.17633,450.898219 1580.8159,450.573159 C1578.50024,448.515743 1578.46536,448.574137 1574.22354,449.430583 C1572.38265,449.806251 1570.29759,448.556619 1568.64271,450.275349 C1568.64271,451.688484 1568.72798,453.109405 1568.61946,454.516701 C1568.49932,456.136161 1569.15042,457.860731 1567.89085,459.657319 L1544.04637,459.657319 C1543.61618,460.153669 1543.27901,460.358048 1543.27126,460.570212 C1543.23831,462.545876 1543.23056,464.529326 1543.25963,466.510829 C1543.28676,468.679193 1542.79069,471.014953 1544.94551,472.597431 C1544.18008,477.14827 1546.69533,482.107868 1543.25382,486.323915 C1543.93979,489.80809 1542.21904,492.618788 1540.58161,495.390557 C1540.13398,496.151626 1539.86075,496.807585 1539.86463,497.646512 C1539.87238,500.192491 1539.94407,502.742362 1539.83362,505.288341 C1539.77742,506.662546 1540.85871,507.14527 1541.45749,508.02702 C1542.19385,509.109255 1543.57743,508.593442 1544.3196,509.259133 C1545.51328,510.312172 1546.98793,511.227011 1546.71471,513.368125 C1546.54612,514.633328 1546.04811,516.16909 1547.33286,517.313613 C1548.77845,518.586602 1548.5963,520.772484 1550.27442,522.070778 C1552.70635,523.953011 1554.79916,526.271253 1556.86096,528.24497 C1556.50247,530.534015 1557.53144,532.575859 1556.12654,534.306268 C1555.55296,534.35493 1555.00844,534.425003 1554.4678,534.450307 C1553.89615,534.471718 1553.33225,534.432788 1552.77417,534.456146 C1550.32093,534.578773 1548.4219,536.165144 1548.34826,538.27706 C1548.27269,540.211848 1548.33082,542.154422 1548.33082,543.808919 C1541.49818,550.670215 1540.6068,551.149045 1533.48349,551.896489 C1533.04167,553.473127 1532.53397,555.041979 1533.87298,556.49015 C1535.44647,558.193309 1535.37283,559.925664 1533.92143,561.669698 L1525.33315,561.669698 C1523.68022,564.017137 1521.61066,565.691099 1518.40362,565.081855 C1517.89786,564.986478 1517.21963,565.040979 1516.83401,565.319324 C1516.46777,565.58015 1516.17904,566.241949 1516.20423,566.705208 C1516.27012,567.754354 1515.7566,568.344133 1514.87491,568.423938 C1513.48358,568.550459 1511.92754,568.098878 1510.69316,568.562137 C1509.52662,569.003985 1508.52478,570.193277 1507.77098,571.281352 C1507.38148,571.847773 1507.68378,572.846311 1508.44145,573.482806 C1509.98006,574.76942 1509.83472,576.702262 1509.03442,577.992769 C1508.27287,579.217097 1507.64115,580.213688 1507.67797,581.710521 C1507.76323,585.626812 1507.70897,589.54505 1507.70897,593.112923 C1509.03829,594.455985 1510.03432,595.452576 1511.03228,596.455007 C1510.63309,596.754763 1510.2591,597.286148 1509.8386,597.321185 C1508.6488,597.432133 1507.51713,597.511938 1507.72447,599.115827 C1507.87756,600.334315 1506.90866,602.132851 1509.09255,602.450125 C1512.34804,602.919223 1512.95456,605.097319 1512.7976,607.892446 C1512.71815,609.270544 1512.7821,610.660322 1512.7821,611.818469 C1513.40607,612.447178 1513.81494,612.830632 1514.20056,613.241337 C1516.79913,616.022838 1516.88246,617.613101 1514.54742,620.234992 C1513.9874,620.867594 1513.25298,621.375621 1512.83054,622.080242 C1512.58057,622.490947 1512.56119,623.440823 1512.84605,623.697756 C1514.02422,624.752741 1514.70826,626.504561 1516.83789,626.333272 C1518.15559,626.212591 1519.6128,625.817459 1521.37813,627.053465 C1520.48481,630.41696 1522.73458,634.413056 1519.55273,637.759033 L1519.55273,642.434446 C1521.44595,644.332251 1523.04075,645.926407 1524.63555,647.512778 L1524.63555,651.769701 C1524.63555,652.053885 1524.75182,652.439285 1524.61617,652.606681 C1523.53876,653.867992 1521.39169,653.326874 1520.55457,655.0203 C1518.38231,654.366287 1517.58781,657.542921 1515.4078,656.873337 C1514.33039,658.420778 1512.8131,658.862626 1511.0439,658.568709 C1509.98006,658.389634 1509.60607,659.281116 1509.02667,659.820287 C1507.36986,661.336585 1505.74599,662.895705 1504.39342,664.166748 C1504.03686,666.521973 1505.01932,668.554084 1503.5466,670.477193 C1500.29112,670.477193 1496.94068,670.453836 1493.5825,670.492765 C1492.78994,670.500551 1491.58076,670.477193 1491.29203,670.938506 C1490.28632,672.548234 1488.30202,671.937043 1487.06378,673.213925 C1485.593,674.72633 1482.97504,673.056262 1481.57209,674.029495 C1480.09355,675.047497 1478.85724,675.637277 1477.10161,675.648955 C1476.43501,675.652848 1475.68702,676.353576 1475.11925,676.886908 C1473.67366,678.237756 1472.14862,679.545782 1470.96463,681.104902 C1469.66825,682.817793 1467.99788,682.276675 1466.31782,682.383731 C1465.15515,681.262566 1463.9479,680.112204 1462.8453,679.053326 L1455.9991,679.053326 C1454.73372,681.889328 1451.02092,679.479602 1449.63153,682.046992 C1446.87405,682.656236 1444.34718,682.810007 1442.12066,680.363298 C1440.32821,678.393474 1437.12117,678.152112 1435.87711,675.621705 L1423.87445,675.621705 C1421.4619,678.613424 1418.19092,676.752602 1414.76878,677.494206 C1413.92197,676.211484 1413.11004,674.243606 1412.44344,674.097621 C1408.99611,673.377429 1405.9751,674.963799 1403.77959,672.353587 C1401.32053,672.174512 1398.30146,671.238262 1396.55939,672.744827 C1394.24761,674.745795 1391.41456,672.651397 1389.61048,674.4402 C1387.89554,676.139465 1385.981,675.323896 1384.14398,675.573043 C1382.00272,675.308324 1379.78008,676.090803 1377.67952,675.179857 C1377.74153,673.319035 1376.19711,672.328283 1375.73592,670.880112 C1375.17202,669.136078 1376.5401,667.020268 1374.83678,665.373557 C1374.02485,665.373557 1373.19742,665.394968 1372.36417,665.369664 C1368.80639,665.285966 1367.29104,663.937065 1367.2174,660.715662 C1367.17865,659.082576 1367.20965,657.443651 1367.20965,656.069446 C1365.71174,654.296215 1364.41536,652.851936 1362.13652,653.472859 L1362.13652,646.397452 C1360.75682,645.356093 1358.74345,643.835902 1357.05564,642.557073 C1357.05564,641.143938 1356.98976,640.289439 1357.07308,639.448566 C1357.24942,637.500152 1356.90256,636.297236 1354.46676,636.297236 C1353.67033,636.297236 1352.87389,634.819868 1351.97864,633.922546 L1351.97864,631.510874 C1351.97864,630.666107 1351.99608,629.811609 1351.97864,628.964896 C1351.89337,625.959551 1349.39363,623.960529 1346.41912,624.597024 C1345.96762,624.696294 1345.25064,625.251037 1345.26614,625.550793 C1345.37659,627.335703 1344.72743,628.077307 1342.88654,628.011127 C1341.54559,627.960519 1340.1155,628.038377 1338.85206,628.451028 C1334.21493,629.963433 1334.30601,629.982898 1332.41279,626.261253 C1332.02717,625.500185 1331.57373,624.859797 1331.67062,624.01503 C1331.96322,621.659806 1330.04481,620.162973 1329.37821,618.158112 C1328.86858,616.622349 1326.97536,616.254467 1325.44451,615.625758 C1324.2392,615.127463 1323.41177,613.720167 1322.59402,612.900705 C1319.59432,611.908007 1316.1625,614.14839 1313.83134,610.965917 C1312.14547,610.981489 1310.23287,610.498765 1308.84154,611.152778 C1307.57616,611.742557 1305.85734,612.929902 1306.27591,615.059337 C1304.41951,616.100696 1304.71792,618.378063 1303.47386,619.872949 C1301.95851,621.708467 1303.11925,624.201891 1302.92353,626.395559 C1302.75301,628.351758 1302.89059,630.329369 1302.89059,632.215495 C1301.01287,634.183373 1301.009,634.267071 1297.89691,634.708919 C1296.91833,634.849065 1296.50945,635.503078 1295.81766,635.876799 C1294.15892,636.797478 1294.85652,639.000878 1293.44581,640.011095 C1292.30252,640.826664 1292.72883,642.054885 1292.76371,643.107923 C1292.82766,644.859743 1292.74627,646.471418 1291.05652,647.506938 C1291.61073,650.741966 1287.00267,651.298656 1287.40766,654.514219 C1287.42704,654.675776 1286.54341,655.033925 1286.04734,655.154606 C1285.05131,655.395968 1284.41184,654.796457 1284.30139,653.916654 C1284.1018,652.269943 1284.66569,650.179437 1283.85376,649.038808 C1282.65427,647.359007 1281.3172,645.317163 1278.86977,644.914245 C1277.33504,646.084071 1275.83519,647.228594 1274.34504,648.369223 C1271.25039,647.623726 1269.98501,650.233938 1268.11505,651.785272 L1261.40061,651.785272 C1259.9899,653.206193 1258.6257,654.636846 1257.19174,656.003266 C1255.87016,657.256791 1253.44599,657.225647 1252.03141,655.923461 C1250.81448,654.810082 1249.68668,653.587701 1248.72166,652.620307 C1248.72166,645.414487 1248.91738,638.617424 1248.62671,631.832041 C1248.50269,628.939591 1251.16521,626.928891 1250.41529,624.040334 C1251.51402,622.78681 1252.6108,621.537178 1253.78898,620.190223 L1253.78898,610.140615 C1252.20581,607.363007 1248.61702,607.339649 1246.67924,604.801457 C1244.81896,602.366427 1242.30759,600.433585 1240.00937,598.208773 C1240.73992,596.826782 1239.4881,595.197589 1240.94726,594.154283 C1242.39479,593.120709 1241.97622,591.220958 1243.20672,589.922664 C1244.21243,588.873519 1244.16011,586.806371 1242.76878,585.443844 C1240.75736,583.472073 1238.71299,581.537285 1236.87597,579.77184 C1236.87597,575.150928 1236.6163,570.880379 1236.96898,566.664332 C1237.18795,564.182587 1235.65904,562.518358 1234.82191,560.727609 C1233.82007,558.551459 1231.4831,556.957302 1229.58407,555.283341 C1229.07443,554.829814 1228.03965,554.99721 1227.25097,554.855118 C1225.94684,554.617649 1225.3345,555.666795 1224.4218,556.23711 C1222.91808,557.161681 1221.59069,556.410345 1221.67402,554.751955 C1221.7651,553.144174 1221.03842,551.3943 1222.2883,549.93445 C1222.84638,549.878003 1223.38896,549.798197 1223.92767,549.759268 C1226.32471,549.572407 1227.36336,548.235185 1226.71421,546.117429 C1226.25301,544.603078 1224.98764,543.550039 1224.59814,541.872185 C1224.37336,540.906737 1223.18743,539.513067 1221.46668,539.520853 C1220.36795,539.524746 1219.99396,540.054185 1219.94551,542.771452 C1219.93389,543.622058 1220.273,544.698454 1219.87575,545.268769 C1219.12195,546.351005 1217.96509,547.894553 1216.94969,547.910125 C1214.3298,547.952947 1211.47544,548.994307 1209.03964,546.627403 C1208.24321,545.860495 1206.43719,546.053195 1204.71256,546.946624 C1204.71256,550.096007 1204.73194,553.440037 1204.70869,556.78212 C1204.68737,558.987467 1204.60211,561.081866 1206.31705,562.95826 C1206.88482,563.585022 1206.3558,565.223947 1204.70481,565.044872 C1203.63127,564.931977 1203.08869,565.523703 1203.05963,566.415185 C1203.017,567.491581 1202.90267,568.819071 1203.43943,569.622962 C1204.91603,571.841934 1205.72021,574.374287 1207.03403,576.624403 C1208.30134,578.792767 1208.70053,580.507604 1206.87707,582.49884 C1206.00119,583.452609 1206.35193,585.040925 1205.10981,586.041409 C1204.18354,586.790799 1204.90828,587.863302 1205.50899,588.904662 C1207.02628,591.604412 1206.80537,592.65745 1204.85014,594.660364 C1203.66809,595.865227 1202.39884,596.982499 1201.2943,598.016073 L1201.2943,605.038925 C1199.93591,606.483204 1198.58721,607.364953 1196.42077,607.769818 C1193.99659,608.231131 1191.33795,609.416529 1189.47573,611.855452 C1189.47573,615.898264 1189.44667,620.131829 1189.49705,624.355662 C1189.50868,625.430112 1189.39628,627.012589 1189.99894,627.46417 C1191.50266,628.59312 1190.7353,630.67584 1192.28165,631.71136 C1193.43851,632.484107 1194.31051,633.671452 1195.59914,634.971692 L1201.10246,634.971692 C1201.19548,636.06366 1201.16447,636.887015 1201.34662,637.663656 C1201.73999,639.357082 1199.88359,639.880681 1199.63168,641.214011 C1199.06391,644.24466 1196.05259,645.317163 1194.55855,647.691853 C1194.68838,651.575054 1194.78333,651.761915 1197.80628,653.455341 C1198.02719,653.576022 1198.4225,653.369696 1198.64147,653.488431 C1202.5403,655.625651 1202.60425,662.339015 1198.45932,663.534146 C1194.31439,664.723437 1194.54305,667.471848 1194.52755,670.549212 C1194.52755,671.020257 1194.12449,671.499088 1193.8687,672.077189 L1188.66186,672.077189 C1187.16008,670.401281 1185.4897,668.536566 1184.2999,667.216861 C1181.53855,666.780853 1179.50969,667.81248 1177.69592,666.342898 C1178.65513,663.680131 1176.04105,661.955561 1175.86665,659.506906 C1175.79689,658.537566 1173.87654,658.226131 1173.09949,658.868465 C1171.20045,660.44121 1169.98352,662.8159 1167.47215,663.670399 L1167.47215,650.917148 C1166.6796,650.12299 1165.87929,649.330778 1164.91427,648.369223 C1163.4183,648.369223 1161.74792,648.384795 1160.07755,648.369223 C1158.16883,648.353651 1156.0954,648.832482 1154.83196,646.730298 C1153.14802,646.704994 1151.46408,646.638814 1149.78208,646.683583 C1147.83073,646.738084 1146.13129,646.650493 1144.44735,645.097212 C1143.50365,644.219356 1141.51354,645.106945 1139.87611,643.898189 C1138.57198,642.924955 1136.18463,643.403786 1134.26621,643.283105 C1133.73139,643.250015 1133.18493,643.364857 1132.63266,643.403786 C1131.04174,645.011568 1129.45081,646.615457 1127.70099,648.369223 C1125.6198,648.369223 1123.35066,648.127861 1121.16289,648.439296 C1118.76391,648.781874 1117.07416,647.3629 1115.05498,646.784799 C1113.23153,646.25536 1111.13871,646.669958 1109.14279,646.669958 C1107.79409,648.384795 1105.42999,649.291848 1104.90291,651.627609 C1104.70138,652.530769 1104.51536,653.330767 1103.65692,653.426144 C1102.58144,653.546825 1101.33545,653.591594 1100.40918,653.159478 C1099.45192,652.704005 1098.76206,651.650966 1097.98501,650.827611 C1097.09557,649.885521 1095.89995,649.564354 1095.15196,650.555105 C1093.83427,652.29914 1092.07282,651.405711 1090.55553,651.824202 C1088.5286,652.378945 1087.89882,649.943915 1086.1645,650.072382 C1083.87791,650.226152 1085.12004,647.795015 1084.12207,647.166307 C1081.67077,645.634437 1084.12207,641.934204 1081.15338,640.731287 C1081.14951,639.598444 1081.14563,638.463654 1081.14563,637.334703 L1081.14563,633.869992 C1081.51381,633.509896 1081.87812,633.066101 1082.3335,632.739095 C1084.43406,631.240315 1084.94951,628.702122 1086.12187,626.644707 C1087.1489,624.822814 1085.44558,623.100191 1084.54257,621.45348 C1084.43018,621.235476 1084.48832,620.887058 1084.53482,620.614553 C1084.91463,618.457868 1083.95155,617.52551 1081.85486,617.620887 C1080.80652,615.86712 1079.10514,616.030624 1077.4212,616.055928 C1074.60172,616.096803 1071.7803,616.104589 1068.96663,616.030624 C1068.50544,616.018945 1068.06556,615.510917 1067.60824,615.22284 C1067.60824,614.66615 1067.64119,614.095836 1067.60049,613.535253 C1067.45128,611.590733 1065.87005,609.434048 1064.44771,609.270544 C1062.72889,609.075898 1061.59723,610.533801 1061.28912,611.54791 C1060.8008,613.14596 1059.56061,614.271018 1059.17693,615.777583 C1058.1654,619.781465 1054.43904,620.77611 1051.60212,622.590217 C1050.391,623.366857 1048.18386,623.259801 1046.71501,622.740095 C1045.33531,622.253478 1043.79671,621.070026 1043.90716,619.049594 C1041.49074,615.660795 1039.84749,612.03842 1040.5296,607.71921 C1040.69431,606.701208 1040.01802,606.191234 1039.43087,605.624812 C1038.18681,604.44136 1039.11889,602.944527 1038.83016,601.628716 C1040.50247,600.593195 1040.62455,599.000985 1040.5451,597.229701 C1040.44627,594.969853 1041.04698,592.527037 1040.37263,590.489086 C1039.73704,588.583495 1038.56274,586.695422 1037.57834,584.850172 C1035.80721,581.55675 1037.24311,578.701283 1040.72337,576.959195 C1044.07187,575.285234 1044.07187,575.267716 1045.93796,575.263823 C1049.57519,575.252144 1053.20467,575.263823 1056.69075,575.263823 C1057.83792,573.776722 1059.50829,573.044851 1059.20018,570.876487 C1058.92114,568.933913 1059.14592,566.923212 1059.14592,564.939763 C1059.14592,562.677968 1059.48504,560.338315 1059.05097,558.164112 C1058.58397,555.861442 1060.84149,554.833707 1060.83761,552.902812 C1060.82986,549.243454 1060.83374,545.586043 1060.83374,542.105761 C1060.06444,541.331067 1059.46566,540.727662 1058.86495,540.130097 C1056.74501,538.000662 1054.86535,535.427433 1051.29788,535.925728 C1049.92593,534.146658 1047.29635,534.290696 1046.00191,532.330604 C1044.25015,529.708713 1041.25045,528.943752 1038.63056,527.678549 C1036.43117,526.617724 1035.24912,525.204589 1035.37314,522.567127 C1035.45259,520.790003 1036.40598,519.573461 1036.95631,518.107771 C1037.69074,516.136 1037.13459,513.669827 1037.13459,511.501463 C1036.45443,510.816307 1035.94091,510.096114 1035.24331,509.636748 C1033.52449,508.51169 1033.0478,506.286878 1033.88492,505.257197 C1035.71419,503.003189 1035.36927,500.640178 1035.44484,498.205148 C1037.69849,496.30929 1037.06871,493.699078 1037.14234,490.861129 C1039.3553,488.71223 1041.85117,486.427078 1044.1707,483.984262 C1045.58335,482.491322 1047.08513,481.917114 1049.15081,481.557018 C1051.02078,481.220279 1053.1756,480.297654 1054.6677,478.61396 C1055.79549,477.348756 1057.11706,476.262628 1058.22354,474.979906 C1059.26025,473.775043 1060.64383,472.984778 1061.00233,471.009114 C1061.26005,469.61739 1063.22884,468.613013 1064.15704,467.244647 C1064.55042,466.6646 1064.21905,465.594043 1064.21905,464.741491 C1065.54644,461.492838 1068.70503,459.873377 1070.78428,457.290416 C1072.99917,454.542005 1074.52421,451.318656 1077.27006,448.893358 C1078.58775,447.729371 1080.48291,448.204309 1081.46537,446.615992 C1082.19398,445.440326 1083.53105,446.144947 1084.58714,446.063195 C1085.98623,445.958086 1087.395,446.037891 1088.76114,446.037891 C1090.92177,443.733275 1091.0361,443.743007 1091.25701,441.103598 C1091.38103,439.645694 1092.01469,439.215525 1093.31494,439.223311 C1094.38072,439.22915 1095.57246,439.552264 1096.37665,438.35908 C1096.37665,436.153733 1096.59368,433.866634 1096.32045,431.641823 C1096.05497,429.467619 1097.53544,428.072003 1098.78532,427.690495 C1100.50026,427.172735 1101.87221,426.433078 1102.7636,425.086122 C1103.79837,423.509484 1105.64702,423.953279 1106.97053,422.822382 C1111.09027,419.309009 1115.67508,416.613152 1121.48457,417.097823 C1124.2401,417.323613 1127.02276,417.132859 1129.56127,417.132859 C1131.18513,414.579095 1133.71976,413.981529 1135.6246,412.51584 C1136.67489,411.704163 1137.886,411.834576 1138.7832,412.118761 C1140.50589,412.654039 1142.46306,413.335302 1143.58891,414.614131 C1144.65857,415.82094 1142.57545,416.897337 1142.21308,418.061324 C1141.85847,419.192221 1141.50967,420.831146 1142.86806,422.232602 C1146.04409,422.232602 1149.44297,422.588806 1152.72752,422.1236 C1155.46949,421.736253 1157.51773,423.108512 1159.60473,424.038923 C1166.61759,427.172735 1166.54201,427.340131 1171.7566,427.338185 C1172.3205,427.334292 1172.8747,427.338185 1173.45604,427.338185 C1174.17302,426.156679 1175.49266,425.59999 1176.00423,424.120675 C1176.80454,421.833576 1176.99444,421.905596 1179.30428,423.06569 C1182.08307,424.461307 1182.99383,424.385394 1185.07114,422.403891 C1185.68542,421.818005 1186.26869,421.206814 1186.93529,420.533337 C1188.82464,420.533337 1190.79343,420.599516 1192.74866,420.508033 C1193.81057,420.461317 1195.17283,421.125063 1195.87431,419.990272 C1196.86452,418.374705 1198.9457,419.182489 1200.05993,417.666191 C1201.38538,415.865709 1203.1914,414.42727 1204.77069,412.815596 C1206.03995,411.527035 1206.96815,412.155743 1208.30716,412.971313 C1210.85729,414.530433 1213.59732,413.792722 1214.56234,411.400514 C1215.15724,409.928985 1215.03516,408.410741 1214.01201,406.76987 C1212.4424,404.243356 1212.80864,402.943116 1214.8375,401.05699 C1216.00018,399.98254 1216.79273,398.579137 1218.78865,398.275489 C1220.15286,398.069163 1221.01517,396.377684 1221.75541,394.734866 C1224.39274,388.827339 1226.38284,387.056054 1232.46169,383.094994 C1234.05261,382.057527 1235.66291,380.821521 1235.21334,378.396223 C1235.01957,377.347078 1235.1804,376.229806 1235.1804,375.065818 C1232.8163,372.813756 1230.57816,370.686268 1228.3497,368.564619 L1228.3497,361.000649 C1225.50309,355.338377 1219.59671,354.234731 1216.473,349.678052 C1217.37601,346.306771 1215.75989,343.416268 1213.99844,340.702893 C1213.08768,339.299491 1213.15163,338.526743 1214.00232,337.117501 C1215.52348,334.620185 1215.16886,333.55936 1213.28921,331.354013 C1212.61098,330.550122 1211.27972,330.151097 1211.47932,328.718497 C1211.2681,327.338452 1213.21945,326.91023 1213.0683,326.141375 C1212.61874,323.741382 1213.98681,322.092724 1214.87432,320.220223" id="Fill-1" transform="translate(1323.983254, 445.152314) rotate(-6.000000) translate(-1323.983254, -445.152314) "></path>
        </g>
    </g>
</svg>