<?xml version="1.0" encoding="UTF-8" standalone="no"?>
<svg width="353px" height="337px" viewBox="0 0 353 337" version="1.1" xmlns="http://www.w3.org/2000/svg" xmlns:xlink="http://www.w3.org/1999/xlink">
    <!-- Generator: sketchtool 47 (45396) - http://www.bohemiancoding.com/sketch -->
    <title>2A7C192C-F6AB-4EC6-B2D0-91FF613AAF3B</title>
    <desc>Created with sketchtool.</desc>
    <defs></defs>
    <g id="Page-1" stroke="none" stroke-width="1" fill="none" fill-rule="evenodd">
        <g id="Главная-страница" transform="translate(-1114.000000, -549.000000)" stroke="#BCCCD2" fill="#EAF2F5">
            <path d="M1293.74605,778.37504 C1292.18032,780.261166 1291.96717,782.310796 1292.16094,784.535608 C1292.30628,786.267963 1290.87619,786.939494 1289.9073,787.815404 C1289.46936,788.210537 1288.37063,788.154089 1287.69047,787.928299 C1286.96573,787.69083 1286.44059,786.884993 1285.71586,786.579398 C1285.32249,786.404216 1284.63651,786.633899 1284.20632,786.892779 C1283.24518,787.461147 1282.3693,788.161875 1281.39266,788.852871 C1283.01652,792.047023 1284.32647,794.593002 1285.53177,796.956012 C1284.11912,799.906856 1281.76277,800.325346 1279.21264,800.358436 C1278.08485,801.228507 1278.51117,802.511229 1278.66619,803.496141 C1279.10219,806.240659 1276.87567,807.879584 1276.18194,810.141378 C1275.92228,810.991984 1271.24252,813.775432 1270.11279,813.656697 C1268.20407,813.47373 1266.93094,814.156939 1265.76827,815.540877 C1264.86526,816.617273 1263.92156,817.765689 1262.7647,818.507293 C1261.35787,819.404614 1262.12717,821.162273 1260.96256,822.145239 L1255.66658,822.145239 C1254.52329,823.507766 1253.27148,825.016278 1251.52165,827.114569 C1251.52165,827.638169 1251.56622,829.024053 1251.51003,830.402151 C1251.45189,831.739374 1251.88208,833.125259 1250.59539,834.28146 C1249.40559,835.342284 1249.72145,837.304323 1248.21966,838.413809 C1246.91553,839.388989 1245.31104,839.534974 1243.97009,840.599691 C1242.90625,841.442511 1240.76499,840.924751 1238.56948,841.045432 C1237.80987,842.00504 1236.77315,843.322798 1235.97478,844.333014 L1229.51613,844.333014 C1229.51613,845.171942 1229.71379,846.082888 1229.46188,846.828385 C1229.18671,847.659526 1228.27207,847.772421 1227.40782,847.754903 C1226.3401,847.721813 1225.25881,847.552471 1224.412,848.584098 C1223.12725,850.15295 1221.4685,849.378256 1219.89114,849.15052 C1218.88155,847.626436 1219.56365,845.936903 1219.36212,844.333014 L1219.36212,840.076091 C1220.1508,839.293612 1220.95499,838.5014 1221.91807,837.539845 L1226.74703,837.539845 C1227.30899,837.539845 1228.01435,837.753957 1228.40384,837.491184 C1229.31654,836.887779 1230.18661,836.130603 1230.80864,835.2508 C1230.96366,835.036689 1229.93857,834.1491 1229.78936,833.495087 C1229.61884,832.780734 1229.56458,831.710177 1229.96958,831.283901 C1230.38814,830.836214 1231.57019,830.653246 1232.14184,830.935483 C1233.07197,831.385117 1233.55642,832.650321 1234.91287,832.438156 C1235.71705,832.317475 1236.83322,832.605552 1237.30217,832.161757 C1239.32328,830.258113 1241.15643,828.142303 1243.06515,826.104353 C1242.88687,823.684894 1245.10176,822.925772 1246.35164,821.567139 C1247.41548,820.416777 1248.20804,818.637706 1250.26209,818.836246 C1252.92267,816.366179 1255.58326,813.890273 1258.29422,811.371545 C1258.29422,809.648922 1257.7187,807.659633 1258.42405,806.371072 C1259.56735,804.296139 1260.72615,802.20174 1261.57684,800.033376 C1262.03222,798.86355 1262.83058,798.254306 1263.52819,797.456254 C1264.65211,796.187158 1265.90198,795.040689 1267.09566,793.839719 C1268.08974,792.843128 1269.88026,791.87768 1269.92676,790.834374 C1270.05078,788.111267 1273.1338,787.430004 1273.3489,785.467965 C1273.54849,783.632447 1275.1181,782.865539 1275.35838,781.123451 C1275.59867,779.4164 1276.97838,777.880638 1277.82906,776.249498 C1278.67394,774.622252 1279.87149,773.051453 1280.18154,771.321044 C1280.49352,769.650976 1280.99929,768.354629 1281.80347,766.857796 C1282.63478,765.325927 1281.99337,762.994059 1281.99337,761.018396 L1281.99337,757.625704 C1283.718,757.705509 1284.05711,755.903081 1285.37481,755.194567 C1285.37481,752.695303 1285.65191,750.12986 1285.29149,747.659794 C1284.97175,745.438875 1286.37471,744.084134 1287.11107,742.429638 C1288.66517,738.941569 1288.90934,738.918211 1293.37981,739.309451 C1293.5329,739.527456 1293.81582,739.73962 1293.81582,739.959571 C1293.84101,747.885584 1293.83519,755.807704 1293.83519,763.73177 C1293.83519,764.012062 1293.82357,764.298192 1293.84101,764.582376 C1293.93596,766.079209 1291.79858,766.433466 1292.10475,768.128839 C1292.30628,769.222753 1292.21133,770.388687 1292.12994,771.515691 C1292.02142,772.991113 1292.43611,774.092813 1293.45345,775.252907 C1294.03672,775.920545 1294.23825,777.781368 1293.74605,778.37504 M1459.73116,745.462233 C1458.70995,743.256886 1457.20816,741.950807 1454.61928,742.303117 C1453.79184,742.412119 1452.93534,742.318689 1451.94707,742.318689 C1449.72636,737.199481 1452.38307,733.049614 1454.69098,728.975659 C1454.39062,726.614595 1452.35013,725.808757 1451.12351,724.372265 C1449.93758,722.972755 1448.7284,723.469104 1447.67037,724.672021 C1447.48047,724.882239 1447.30219,725.143066 1447.07159,725.2618 C1446.02325,725.77956 1444.47302,725.074939 1444.51759,724.047205 C1444.56022,722.723608 1444.04089,721.283222 1445.36053,720.158164 C1446.59877,719.109019 1446.72279,717.343573 1447.57154,715.977154 C1448.43386,714.583483 1448.59663,712.021933 1447.33901,710.468653 C1445.97093,708.779119 1446.22672,706.10662 1443.85874,705.082779 C1443.00999,704.716843 1441.14584,705.016599 1441.19428,705.964528 C1441.32799,708.753815 1439.51616,708.387879 1437.89229,708.28861 C1436.58235,708.212697 1434.39458,706.340196 1434.35583,705.314408 C1434.27638,703.620982 1434.23375,701.917824 1434.35777,700.23413 C1434.49729,698.505668 1433.18541,697.781582 1432.19907,696.925136 C1431.70881,696.49886 1430.40855,696.286695 1430.01518,696.619541 C1428.30218,698.065766 1426.78295,699.747513 1425.0215,701.514905 C1424.09137,701.514905 1422.98683,701.536316 1421.89198,701.511012 C1418.85546,701.423421 1418.51829,700.860892 1419.85342,698.203965 C1421.33583,695.247282 1421.25444,694.194244 1419.35735,692.419066 C1418.76245,691.866269 1418.30126,691.112987 1417.28004,691.295954 C1416.73358,691.393278 1416.13287,691.208363 1415.60192,691.330991 C1413.25138,691.879894 1411.63139,690.458974 1410.8524,688.781119 C1410.25168,687.506184 1409.98427,685.485751 1411.73409,684.247798 C1412.90064,683.42055 1412.10421,682.151453 1412.33287,681.108147 C1410.19355,680.843428 1407.96897,681.625907 1405.86841,680.714961 C1405.93235,678.854139 1404.38794,677.861441 1403.92481,676.415216 C1403.36091,674.671181 1404.72899,672.555372 1403.02761,670.908661 C1402.21568,670.908661 1401.38824,670.928126 1400.55499,670.904768 C1396.99528,670.82107 1395.48186,669.472169 1395.40823,666.24882 C1395.36753,664.61768 1395.40048,662.978755 1395.40048,661.60455 C1393.90257,659.831318 1392.60619,658.385094 1390.32735,659.007963 L1390.32735,651.932556 C1388.94764,650.891196 1386.93428,649.371006 1385.24647,648.090231 C1385.24647,646.679042 1385.18058,645.822597 1385.26391,644.98367 C1385.43831,643.035256 1385.09338,641.83234 1382.65758,641.83234 C1381.86115,641.83234 1381.06472,640.354972 1380.16946,639.45765 L1380.16946,637.045978 C1380.16946,636.201211 1380.18497,635.346712 1380.16946,634.499999 C1380.0842,631.494655 1377.58445,629.495633 1374.60801,630.132128 C1374.15844,630.231398 1373.44146,630.786141 1373.45697,631.085897 C1373.56742,632.872753 1372.91632,633.612411 1371.07542,633.546231 C1369.73641,633.493676 1368.30632,633.571535 1367.04289,633.984186 C1362.40576,635.49659 1362.49684,635.516055 1360.60362,631.794411 C1360.218,631.035288 1359.76262,630.394901 1359.86144,629.550134 C1360.15405,627.194909 1358.2337,625.698076 1357.56904,623.693216 C1357.0594,622.157453 1355.16425,621.789571 1353.63339,621.158916 C1352.42809,620.662567 1351.60065,619.255271 1350.78485,618.435809 C1347.78515,617.443111 1344.35139,619.683494 1342.02217,616.501021 C1340.33435,616.516593 1338.4237,616.033869 1337.03236,616.687882 C1335.76699,617.275715 1334.04817,618.465006 1334.46673,620.592494 C1332.61033,621.6358 1332.90875,623.913166 1331.66275,625.408053 C1330.14934,627.241625 1331.31008,629.736995 1331.11242,631.930663 C1330.9419,633.886862 1331.08142,635.864473 1331.08142,637.750599 C1329.2037,639.718477 1329.19982,639.802175 1326.0858,640.244023 C1325.10915,640.382222 1324.70028,641.034288 1324.00849,641.411903 C1322.34974,642.330635 1323.04735,644.535982 1321.63664,645.546199 C1320.49334,646.361768 1320.91772,647.589989 1320.95454,648.643027 C1321.01655,650.394847 1320.93516,652.006522 1319.24735,653.040096 C1319.79961,656.275124 1315.19155,656.83376 1315.59655,660.049323 C1315.61787,660.210879 1314.73424,660.569029 1314.23816,660.68971 C1313.24214,660.931072 1312.60073,660.329614 1312.49222,659.449811 C1312.29069,657.805047 1312.85458,655.712595 1312.04265,654.571965 C1310.84316,652.894111 1309.50802,650.850321 1307.0606,650.447402 C1305.52587,651.619175 1304.02602,652.763697 1302.53586,653.904327 C1299.43928,653.15883 1298.17584,655.769042 1296.30394,657.320376 L1289.5895,657.320376 C1288.18073,658.741297 1286.81652,660.170004 1285.38256,661.53837 C1284.06099,662.791894 1281.63682,662.760751 1280.22223,661.458565 C1279.0053,660.345186 1277.87751,659.120858 1276.91055,658.155411 C1276.91055,650.94959 1277.10821,644.152528 1276.8156,637.367145 C1276.69352,634.474695 1279.3541,632.463995 1278.60612,629.575438 C1279.70484,628.321914 1280.79969,627.072282 1281.97981,625.725327 L1281.97981,615.675719 C1280.3947,612.896164 1276.80785,612.874753 1274.87006,610.33656 C1273.00979,607.90153 1270.49841,605.968689 1268.19826,603.743877 C1268.9288,602.361886 1267.67893,600.730747 1269.13808,599.689387 C1270.58561,598.655813 1270.16705,596.754115 1271.39755,595.455822 C1272.40132,594.406676 1272.35094,592.341475 1270.95961,590.978948 C1268.94818,589.007177 1266.90188,587.072389 1265.06485,585.306944 C1265.06485,580.686032 1264.80519,576.415483 1265.15981,572.199436 C1265.37684,569.717691 1263.84792,568.053462 1263.01274,566.260766 C1262.0109,564.086563 1259.67393,562.492406 1257.7749,560.816498 C1257.26526,560.364918 1256.23048,560.532314 1255.43986,560.390222 C1254.13767,560.152753 1253.52533,561.201899 1252.61069,561.772214 C1251.10891,562.696785 1249.78152,561.945449 1249.86291,560.287059 C1249.95398,558.679278 1249.22731,556.927458 1250.47912,555.467608 C1251.03721,555.413106 1251.57785,555.333301 1252.11849,555.294372 C1254.51554,555.107511 1255.55613,553.768342 1254.90503,551.652533 C1254.44384,550.138181 1253.17652,549.085143 1252.78703,547.407288 C1252.56418,546.441841 1251.37826,545.046224 1249.6575,545.055957 C1248.55878,545.05985 1248.18285,545.589288 1248.13634,548.306556 C1248.12471,549.157162 1248.46382,550.233558 1248.06658,550.803873 C1247.31278,551.886109 1246.15398,553.429657 1245.14052,553.443282 C1242.51869,553.488051 1239.66627,554.529411 1237.23047,552.162507 C1236.43404,551.395599 1234.62802,551.588299 1232.90339,552.481727 C1232.90339,555.629164 1232.92083,558.975141 1232.89951,562.317224 C1232.8782,564.522571 1232.79293,566.616969 1234.50788,568.49531 C1235.07565,569.120126 1234.54663,570.759051 1232.89564,570.579976 C1231.8221,570.467081 1231.27952,571.058807 1231.25045,571.950288 C1231.20782,573.026685 1231.09349,574.354175 1231.62832,575.158066 C1233.10685,577.375091 1233.91104,579.909391 1235.22486,582.15756 C1236.49217,584.327871 1236.89135,586.040762 1235.06596,588.033944 C1234.19202,588.987712 1234.54082,590.576029 1233.30063,591.576513 C1232.37437,592.325903 1233.0991,593.398406 1233.69982,594.439766 C1235.21711,597.139515 1234.9962,598.192554 1233.04097,600.195468 C1231.85892,601.400331 1230.58773,602.515657 1229.48513,603.551177 L1229.48513,610.574029 C1228.12674,612.018308 1226.7761,612.902004 1224.60965,613.304922 C1222.18548,613.766235 1219.52877,614.951633 1217.66462,617.390556 C1217.66462,621.433368 1217.63749,625.666933 1217.68788,629.890766 C1217.6995,630.965216 1217.58517,632.547693 1218.18976,632.997327 C1219.69349,634.128224 1218.92612,636.210944 1220.47054,637.246464 C1221.62934,638.019211 1222.4994,639.206556 1223.78803,640.506796 L1229.29135,640.506796 C1229.3863,641.596817 1229.3553,642.422119 1229.53551,643.19876 C1229.92888,644.892186 1228.07442,645.413839 1227.82057,646.749115 C1227.2528,649.779764 1224.24341,650.850321 1222.74744,653.226957 C1222.87921,657.110158 1222.97416,657.297019 1225.99711,658.990445 C1226.21608,659.111126 1226.61139,658.9048 1226.8323,659.023535 C1230.72919,661.160755 1230.79507,667.872173 1226.65014,669.06925 C1222.50328,670.258541 1222.73194,673.006952 1222.71837,676.08237 C1222.71837,676.553415 1222.31531,677.034192 1222.05952,677.610346 L1216.85075,677.610346 C1215.3509,675.936385 1213.68053,674.07167 1212.48879,672.750019 C1209.73132,672.315957 1207.70052,673.347584 1205.88675,671.878002 C1206.84401,669.213288 1204.23188,667.490665 1204.05747,665.040064 C1203.98771,664.070723 1202.06543,663.761235 1201.29031,664.403569 C1199.39128,665.976314 1198.17435,668.351004 1195.66298,669.205503 L1195.66298,678.531025 C1193.38414,679.109126 1191.7312,680.962162 1189.16945,681.222989 C1186.39841,681.511066 1184.24359,684.446338 1183.84441,687.554845 C1183.69132,688.792798 1183.50142,689.544134 1181.99576,689.65119 C1179.30029,689.841944 1179.27317,689.894498 1176.9517,692.261402 C1177.63767,694.951419 1175.69407,698.235109 1178.68214,700.738265 C1179.09876,701.086682 1178.90499,702.41028 1178.70539,703.200545 C1178.26358,704.903704 1180.1723,707.511969 1177.39157,708.21659 C1175.13793,708.790798 1173.99463,706.363554 1172.98698,704.919276 C1171.20034,702.373297 1169.71793,699.513937 1168.67347,696.582558 C1167.78208,694.106653 1166.51864,692.890111 1163.93557,693.003006 C1162.7419,693.057507 1162.15475,693.302762 1161.71681,694.731468 C1160.66846,698.12416 1158.75199,701.086682 1155.70191,703.208331 C1154.18656,703.109062 1152.46968,703.696894 1151.21593,701.982057 C1150.39625,700.856999 1149.19288,700.018072 1148.28406,698.951408 C1147.16402,697.631704 1145.71261,698.285717 1144.39686,698.114428 C1143.14698,699.961625 1139.1939,698.863817 1139.62796,702.538747 C1137.29486,704.541661 1137.3123,707.840922 1135.50047,710.153325 C1134.87844,710.939697 1134.85131,712.197115 1134.22928,712.983488 C1133.38053,714.06183 1132.22949,714.892972 1131.22377,715.817543 C1132.78563,717.635543 1134.71761,718.780066 1135.04509,721.294901 C1135.22531,722.657428 1138.00797,721.076897 1138.10292,723.235528 C1138.16105,724.640877 1138.11067,726.054012 1138.11067,727.467147 L1138.11067,732.971755 C1135.56829,735.523573 1132.78176,738.264199 1130.06498,741.071004 C1128.73372,742.452995 1127.52841,743.961507 1126.26497,745.407732 C1126.58471,748.724511 1123.13157,751.358081 1124.79419,754.731308 C1123.47456,756.123032 1122.32739,757.33568 1121.17247,758.554169 L1121.17247,768.687475 C1119.77145,770.092824 1118.37818,771.490387 1116.95197,772.926879 C1115.02774,772.926879 1113.06089,772.959969 1111.09791,772.915201 C1109.39072,772.876271 1108.23386,774.349747 1107.99938,775.307408 C1107.4258,777.596453 1106.68363,780.426616 1109.25313,782.096685 C1111.09403,783.291815 1110.61346,785.61395 1112.16757,786.871368 C1113.4155,787.891316 1114.40184,789.049464 1114.74095,790.904447 C1114.89791,791.799822 1116.09159,793.390085 1117.80265,793.329745 L1125.35615,793.329745 C1127.81133,795.455286 1129.63673,798.338004 1133.01817,799.295665 C1135.12842,799.895177 1136.88987,801.098094 1138.30251,802.840181 C1139.53301,804.360372 1140.90884,805.757935 1141.99594,806.962798 C1144.09262,806.834331 1145.48783,806.826545 1147.10782,805.785186 C1149.9835,803.941882 1153.16341,806.10246 1153.33781,809.499044 C1153.38238,810.339918 1153.34556,811.184685 1153.34556,812.033344 C1153.14791,812.512175 1153.03358,813.349156 1152.74097,813.415336 C1151.44459,813.718984 1150.09977,813.806575 1148.87121,813.95256 C1148.61155,814.269835 1148.28987,814.480053 1148.28987,814.686378 C1148.26468,820.603638 1148.26856,826.51895 1148.26856,832.43037 C1149.30915,832.661999 1150.4912,831.922342 1151.41359,833.018203 C1151.92129,833.63134 1152.47356,834.102385 1153.46183,834.18219 C1157.21532,834.481946 1160.49794,835.480483 1162.82135,837.896049 C1164.25531,839.388989 1166.60972,838.770012 1167.67163,840.73789 C1167.88091,841.125237 1169.22573,840.868303 1170.04542,840.940323 C1171.67316,841.070736 1173.82023,840.626942 1174.81044,841.498959 C1176.36067,842.865378 1178.25001,841.966111 1179.36424,842.773894 C1180.71488,843.751021 1182.25736,844.079974 1183.55761,844.961723 C1184.2184,845.407464 1184.62534,846.182158 1185.64655,846.05953 C1187.04951,845.882402 1188.28582,846.036173 1189.37098,847.285805 C1190.5104,848.597723 1192.54701,847.015246 1193.95191,848.459524 C1194.81035,849.345166 1196.21718,849.687745 1197.3566,850.25222 L1197.3566,860.539297 C1198.32356,861.493066 1199.49205,862.363136 1200.29623,863.492087 C1205.38486,870.590852 1205.35967,870.606423 1210.47737,873.239993 C1212.88991,873.086222 1213.47706,875.468697 1215.18038,876.640471 C1217.24606,876.640471 1219.48227,876.681346 1221.71266,876.630738 C1222.49553,876.605434 1223.69114,876.597648 1223.97406,876.130496 C1224.97977,874.514929 1227.15203,875.386946 1228.17325,873.821987 C1228.90573,872.696929 1230.70787,873.426854 1231.66902,872.044862 C1232.67667,870.590852 1234.62027,871.819072 1236.22863,870.923697 C1241.55367,867.965068 1241.65638,868.144143 1246.02415,868.144143 C1251.0469,868.136357 1256.07158,868.144143 1260.84823,868.144143 C1263.45843,870.995717 1266.55308,873.021989 1267.65568,876.640471 L1280.30168,876.640471 C1283.7742,878.150929 1285.71005,881.405421 1288.23886,883.937775 C1289.51586,885.21271 1291.44978,884.673539 1292.42836,886.238498 C1293.18603,887.449201 1294.49792,886.787402 1295.5482,886.812706 C1298.64478,886.896404 1301.75106,886.765991 1304.8457,886.8711 C1307.24081,886.950905 1309.94596,885.958207 1311.75973,888.543115 C1313.07161,888.293967 1314.63153,889.197128 1315.67988,887.828762 C1316.74372,886.44677 1318.85785,887.091051 1319.86356,885.489109 C1320.08447,885.148477 1321.7781,885.156263 1321.99125,885.496894 C1322.99309,887.120248 1325.19829,886.361126 1326.15362,887.854066 C1326.71364,888.735815 1328.01971,888.864282 1328.32976,888.482775 C1329.47305,887.104676 1331.35658,887.248715 1332.496,886.199569 C1335.19534,883.711984 1337.71253,881.0317 1340.38667,878.341682 L1345.3416,878.341682 C1347.15537,875.741203 1349.87021,876.850689 1352.25756,876.648256 C1352.81758,876.605434 1353.8233,876.776723 1353.87755,876.61322 C1354.56159,874.429284 1358.4081,875.90276 1358.28602,872.578194 C1358.24145,871.509584 1360.33039,870.721265 1359.85369,869.047303 C1361.45431,867.982586 1361.72753,866.425413 1361.58995,864.648288 C1361.54926,864.188922 1361.89612,863.614715 1362.23136,863.242939 C1363.17312,862.193794 1364.11295,861.095987 1365.23105,860.264845 C1366.03524,859.651708 1367.14171,859.457062 1368.08348,859.011321 C1370.29643,857.969961 1372.40087,856.784563 1373.98404,854.828363 C1374.68746,853.950507 1375.54978,853.20501 1376.35783,852.412798 C1377.93907,850.873143 1379.52418,850.540297 1381.52591,851.688712 C1384.92673,853.666323 1388.5504,855.176781 1392.0016,857.051229 C1394.38701,858.349522 1394.79589,858.382612 1397.13673,856.951959 C1397.89829,856.484807 1398.84005,856.580184 1399.34194,856.179211 C1401.29717,854.627877 1403.05474,852.825449 1404.86851,851.139809 C1405.7502,851.139809 1406.79855,850.806963 1407.40507,851.19431 C1410.54623,853.183599 1414.47412,853.191385 1417.52033,855.435661 C1418.97367,856.508164 1420.6983,857.354877 1422.41905,857.866798 C1423.71156,858.246359 1425.21916,857.944657 1426.62599,857.944657 C1427.75572,857.944657 1428.89127,858.028355 1430.00356,857.921299 C1431.34451,857.7831 1432.79979,858.456578 1434.47403,857.090158 C1433.55358,855.030796 1434.95461,853.300387 1436.01458,851.443458 C1436.36919,850.830321 1439.20224,848.839085 1441.43069,847.721813 C1443.53126,846.664882 1445.51749,845.333498 1447.67425,844.41282 C1448.42223,844.091653 1449.19153,844.056616 1449.47833,843.418175 L1449.47833,836.595809 C1448.38735,835.499948 1447.38939,834.499464 1446.39531,833.495087 C1446.32167,832.961755 1446.19571,832.428423 1446.19184,831.885359 C1446.17246,829.619672 1446.18021,827.355931 1446.18021,825.090244 C1446.18021,823.110687 1446.66466,820.96568 1446.06782,819.18077 C1445.16869,816.475181 1448.15094,815.355963 1447.91066,813.04356 C1447.73819,811.36376 1447.58705,809.57885 1447.97267,807.974961 C1448.25558,806.775937 1450.11392,806.067423 1449.55002,804.41682 C1448.86017,802.410012 1450.85416,801.561353 1451.3793,800.060627 C1452.69893,796.278642 1452.93922,796.366233 1452.94697,793.92731 C1452.95472,791.373545 1452.62336,788.769173 1453.04579,786.289374 C1453.47598,783.737556 1451.18552,782.513229 1450.8154,780.331239 C1450.58674,779.048518 1448.88536,777.851441 1446.90494,777.785261 C1446.08138,777.754117 1445.20163,776.704972 1444.22111,776.214462 C1441.15747,774.661181 1439.54523,773.148777 1442.95961,770.16679 C1445.62794,767.840762 1447.63937,764.701111 1451.25334,763.583839 C1452.6408,760.93859 1456.07068,761.109879 1457.74881,758.79553 C1459.3688,756.572665 1462.08364,755.282158 1463.10485,752.522068 C1461.98094,750.170736 1460.83183,747.831083 1459.73116,745.462233" id="Fill-119" transform="translate(1285.272197, 716.870726) rotate(-6.000000) translate(-1285.272197, -716.870726) "></path>
        </g>
    </g>
</svg>