<?xml version="1.0" encoding="UTF-8" standalone="no"?>
<svg width="210px" height="390px" viewBox="0 0 210 390" version="1.1" xmlns="http://www.w3.org/2000/svg" xmlns:xlink="http://www.w3.org/1999/xlink">
    <!-- Generator: sketchtool 47 (45396) - http://www.bohemiancoding.com/sketch -->
    <title>2C308AF1-E6D9-4AB8-A621-70750BC75744</title>
    <desc>Created with sketchtool.</desc>
    <defs></defs>
    <g id="Page-1" stroke="none" stroke-width="1" fill="none" fill-rule="evenodd">
        <g id="Главная-страница" transform="translate(-983.000000, -467.000000)" stroke="#BCCCD2" fill="#EAF2F5">
            <path d="M1188.25878,689.461451 L1188.25878,698.786974 C1185.97994,699.365075 1184.32895,701.218111 1181.76525,701.478938 C1178.99615,701.767015 1176.8394,704.702287 1176.44021,707.810794 C1176.28713,709.048747 1176.09916,709.800083 1174.59156,709.907139 C1171.89804,710.097893 1171.86897,710.150447 1169.5475,712.517351 C1170.23348,715.207368 1168.28987,718.491057 1171.27794,720.994214 C1171.69457,721.342631 1171.50273,722.666229 1171.3012,723.456494 C1170.85938,725.159653 1172.7681,727.767918 1169.98738,728.472539 C1167.73373,729.046747 1166.59043,726.619503 1165.58278,725.175224 C1163.79614,722.629246 1162.31374,719.769886 1161.26927,716.836561 C1160.37789,714.362601 1159.11445,713.14606 1156.53138,713.258955 C1155.3377,713.313456 1154.75055,713.558711 1154.31261,714.987417 C1153.26427,718.380109 1151.34779,721.342631 1148.29772,723.46428 C1146.7843,723.36501 1145.06549,723.952843 1143.81174,722.238006 C1142.99399,721.112948 1141.79062,720.274021 1140.87986,719.207357 C1139.76176,717.887653 1138.31036,718.541666 1136.99266,718.370376 C1135.74279,720.217573 1131.7897,719.119766 1132.22376,722.794696 C1129.89067,724.79761 1129.91004,728.096871 1128.09628,730.409274 C1127.47425,731.195646 1127.44712,732.453064 1126.82509,733.239436 C1125.97634,734.317779 1124.82723,735.14892 1123.81958,736.073492 C1125.38143,737.893439 1127.31341,739.036015 1127.6409,741.55085 C1127.82305,742.913376 1130.60377,741.332845 1130.69872,743.491477 C1130.75686,744.89488 1130.70648,746.309961 1130.70648,747.723096 L1130.70648,753.227704 C1128.1641,755.779522 1125.37756,758.520147 1122.66078,761.326952 C1121.32952,762.708944 1120.12422,764.217456 1118.86078,765.661734 C1119.18245,768.98046 1115.72737,771.61403 1117.39193,774.98531 C1116.07036,776.37898 1114.92319,777.591629 1113.77021,778.810117 L1113.77021,788.943424 C1112.36725,790.348773 1110.97398,791.746336 1109.54777,793.182828 C1107.62548,793.182828 1105.65669,793.215918 1103.69371,793.171149 C1101.98652,793.13222 1100.82966,794.605696 1100.59713,795.563357 C1100.0216,797.852402 1099.27943,800.682565 1101.84894,802.352633 C1103.68984,803.547764 1103.20926,805.869899 1104.76337,807.127317 C1106.01324,808.147265 1106.99764,809.305413 1107.33675,811.158449 C1107.49371,812.05577 1108.68739,813.646034 1110.39846,813.585693 L1110.39846,817.988601 C1108.15256,819.339449 1105.60243,818.665972 1103.20926,818.615364 C1100.86454,818.562809 1098.15745,819.68592 1096.24485,817.229479 C1093.48157,817.141888 1090.70666,817.0251 1087.94143,817.009529 C1086.96866,817.001743 1085.02119,819.456237 1085.01343,820.592974 C1084.98631,823.674231 1085.00568,826.757434 1085.00568,829.688813 C1083.16091,832.423599 1079.7194,832.647443 1077.81261,835.160332 C1076.1248,837.377357 1073.73163,839.049372 1071.98181,841.225522 C1070.68931,842.844982 1068.14693,842.0917 1067.26717,844.153008 C1065.32938,843.473691 1064.66666,845.885364 1062.94784,845.930132 C1061.04881,845.976848 1060.18843,847.757865 1059.21566,848.968567 C1057.75651,850.770995 1055.52611,851.084376 1053.79373,852.347633 C1052.67175,853.169042 1050.59444,852.680479 1048.71479,852.789481 C1046.49215,850.442042 1044.20556,848.028424 1042.17088,845.877578 C1039.24676,845.951543 1036.7877,845.455194 1034.70264,847.500931 C1034.1775,848.022584 1032.54395,847.662488 1031.5208,847.354946 C1030.54803,847.057137 1031.20687,845.620644 1030.78056,845.213833 C1029.45705,843.948629 1028.85634,842.580263 1029.14894,840.793406 L1029.14894,836.526751 C1031.12355,834.683447 1032.68541,832.269828 1035.62309,831.722871 C1035.84206,831.681995 1040.21371,827.220693 1040.3106,827.0241 C1041.73488,824.106346 1043.05063,821.453312 1046.68399,820.225092 C1049.92397,819.123391 1050.17201,816.785685 1048.53457,813.509781 C1046.13172,808.696169 1045.70734,807.436805 1046.13947,803.485477 C1046.27511,802.257257 1047.65288,801.126359 1047.6742,799.929282 C1047.72846,797.266516 1048.61015,794.303993 1046.07358,792.133683 C1047.25951,788.400359 1043.63778,785.383336 1044.43809,781.803783 C1045.064,778.996978 1042.89174,777.289927 1042.20382,775.030079 C1041.79301,773.673391 1040.24859,772.266096 1038.17516,772.770231 C1036.90203,773.077773 1036.16955,772.184344 1035.35762,771.396025 C1034.40035,770.461721 1033.69693,769.015496 1031.08479,769.593597 C1030.00351,770.956124 1028.44553,772.935681 1027.27704,774.422781 L1021.47918,774.422781 C1020.21962,773.165364 1018.91936,772.050038 1017.87102,770.726441 C1017.24511,769.942015 1017.09978,768.793599 1016.61921,767.859295 C1015.11548,764.961006 1015.29376,764.036434 1016.937,762.027681 C1018.93099,759.584865 1021.73303,758.68949 1024.39749,757.482681 C1026.67245,756.456893 1027.81962,754.833539 1027.47276,752.248631 C1027.36424,751.429169 1027.45532,750.576616 1027.45532,749.689027 C1025.4594,748.135747 1024.18627,746.163976 1023.07398,743.882717 C1022.00238,741.67737 1018.49499,742.109486 1017.30325,739.616062 L1017.30325,731.968394 C1018.3729,732.242845 1018.75465,731.312434 1019.33017,730.765477 C1021.0955,729.075944 1021.03543,729.035068 1019.64409,726.672057 C1018.73915,725.134349 1018.6907,724.567927 1019.54333,723.78934 C1020.34363,723.061361 1021.18657,721.955768 1022.08958,721.87207 C1023.77546,721.718299 1025.05634,720.527062 1025.26174,719.551882 C1025.84308,716.805417 1027.83706,715.331942 1029.63339,713.741678 C1031.20106,712.338276 1030.73599,710.724655 1030.84451,709.109087 C1026.38178,706.312015 1020.84552,705.233672 1017.19085,700.151447 C1017.34006,697.658023 1017.52222,694.629321 1017.71406,691.608404 C1017.71793,691.505242 1022.99647,682.901858 1023.34333,682.514511 L1030.84451,682.514511 C1030.84451,680.869747 1030.91814,679.501381 1030.81544,678.14664 C1030.72437,676.821096 1031.38321,675.314531 1029.99576,674.160276 C1028.37577,674.160276 1026.69377,674.243974 1025.01758,674.144704 C1023.11661,674.027916 1021.14007,674.674143 1018.99106,673.494584 C1018.99106,671.705781 1018.7934,669.749582 1019.03757,667.845938 C1019.41156,664.846432 1017.32844,662.855197 1016.25103,660.496079 C1015.60768,659.09073 1014.01676,658.113603 1013.32303,657.418715 C1008.10263,656.433803 1003.20584,658.654721 998.979522,655.458623 C996.727812,655.458623 994.470289,655.509231 992.222455,655.443051 C989.91455,655.384657 987.71516,652.248899 988.565849,650.059124 C989.222759,648.361805 990.300169,646.833828 991.119854,645.185171 C992.265086,642.866929 992.704964,640.398809 990.844688,638.34334 C989.515365,636.869865 991.129543,634.90004 989.691704,633.718535 C987.810112,632.167201 988.77513,630.102 988.523218,628.256749 L992.701089,628.256749 C994.187372,625.887899 996.555349,626.629503 998.68304,626.565269 C999.795331,626.52634 1000.92119,626.454321 1002.02766,626.588627 C1003.07794,626.703469 1003.38605,625.780843 1004.07203,625.42464 C1005.99044,624.431942 1004.93628,621.617351 1006.99615,620.749227 C1007.04266,619.090837 1007.51354,617.292302 1007.02134,615.81104 C1006.55434,614.413477 1005.36841,613.163845 1003.46163,612.881608 C1001.96565,612.659711 1000.8398,611.361417 999.30507,610.824192 C998.012566,610.366773 996.731688,608.998406 996.921591,606.878704 C997.18513,603.822751 996.985538,600.725923 996.985538,597.650505 L1001.22154,597.650505 C1002.61287,596.249049 1004.00808,594.847593 1005.4091,593.446137 C1004.48478,591.182396 1008.10844,590.499186 1007.19574,588.239338 C1008.9475,585.837398 1009.96484,582.843732 1012.5983,581.148359 C1014.42563,579.972693 1013.8191,578.199462 1013.95087,575.994115 C1012.57892,574.744484 1010.83491,573.307991 1009.30987,571.672959 C1008.89131,571.223325 1008.9475,570.160554 1009.08121,569.432576 C1009.13547,569.13282 1009.96484,568.766884 1010.42216,568.788295 C1011.4395,568.831117 1012.03052,568.379537 1012.20299,567.497788 C1012.76301,564.504122 1014.5884,563.209721 1017.48152,563.684659 C1019.87081,564.075899 1021.00248,562.47201 1022.37637,561.086126 C1022.37637,558.279321 1022.357,555.443319 1022.39575,552.617049 C1022.4035,551.820944 1022.20779,551.054036 1022.92864,550.277396 C1025.55435,547.425822 1023.77158,545.298334 1021.55669,543.270115 L1014.71436,543.270115 C1013.42961,541.868659 1012.09253,540.416595 1010.62757,538.826332 C1010.57525,535.026828 1010.56749,535.022935 1012.22624,531.34606 C1013.09825,529.397646 1014.55159,527.663344 1013.95862,525.2361 C1013.69702,524.179169 1013.91018,523.005449 1013.91018,521.944625 C1011.04031,519.061908 1008.2499,516.260942 1005.45173,513.444404 C1005.62032,511.054143 1004.88784,508.570451 1007.03297,506.407927 C1007.73832,505.697466 1007.11242,503.680927 1007.14924,502.269738 C1007.20156,500.767066 1004.9576,500.412809 1005.54281,498.493593 C1006.54077,496.113064 1009.54628,495.036668 1010.58687,492.597745 C1010.31171,490.133518 1007.47672,489.553471 1007.28294,487.778293 C1007.05816,485.722824 1005.57769,485.016257 1004.61461,483.745214 C1003.42093,482.182201 1003.43643,480.087803 1004.69406,478.544254 C1004.87621,478.32625 1005.10487,478.151068 1005.28896,477.94085 C1007.64337,475.239154 1007.68213,474.729179 1006.00594,471.531135 C1005.28121,470.131625 1005.01573,468.539415 1003.80655,467.320927 C1003.13414,466.643556 1004.24837,465.127259 1005.3064,465.01631 C1007.49029,464.792466 1009.74781,465.530177 1011.96076,464.615338 C1012.11772,463.19831 1012.27081,461.861087 1012.42002,460.539436 C1013.96637,459.398807 1015.69101,460.15209 1017.30325,459.928246 C1018.2857,462.285417 1020.4599,464.348672 1017.82451,467.237229 C1016.54751,468.630899 1016.906,470.775905 1018.61125,472.352543 C1020.39402,473.989522 1022.38025,475.513606 1022.84338,478.19389 C1022.9674,478.91603 1024.11457,479.647901 1023.99055,480.189019 C1023.36658,482.869304 1026.51937,484.461514 1025.80626,487.120387 C1025.68999,487.523306 1026.05817,488.408948 1026.35272,488.494593 C1027.05807,488.689239 1028.18005,488.846903 1028.56567,488.45761 C1030.25154,486.750558 1031.85216,485.109687 1032.96832,482.727212 C1034.38678,479.688777 1035.97965,476.632824 1037.47562,473.596336 C1038.13447,472.270792 1038.91152,470.997803 1039.94436,470.499507 C1041.63605,469.681991 1043.74824,469.72092 1045.51356,470.518972 C1046.43595,470.933569 1047.81178,472.362276 1047.63932,472.860571 C1046.63748,475.706306 1049.98985,477.294623 1049.42402,479.797779 C1048.76711,482.713586 1051.84432,484.68925 1051.15059,487.550556 C1052.60393,489.175856 1054.05533,490.799209 1055.187,492.062466 C1057.61893,492.866357 1058.15375,490.057606 1060.05472,490.513079 C1061.52938,490.865389 1062.50409,489.769529 1063.70939,489.177803 C1065.0736,488.510164 1066.94744,488.889726 1068.60425,488.84885 C1068.8329,488.84301 1069.18752,489.022085 1069.27084,489.205053 C1070.46065,491.840569 1073.62118,489.389967 1075.07646,491.552492 C1076.0221,492.959788 1077.67503,491.965143 1078.97529,492.231809 C1080.48482,489.874638 1082.86055,490.622081 1085.00568,490.532543 C1085.00568,491.383149 1085.33704,492.455653 1084.94367,493.033753 C1084.01547,494.404066 1082.04474,495.408443 1081.78896,496.800167 C1081.43046,498.77583 1080.04688,499.564149 1079.01017,500.770959 C1077.90369,502.051734 1076.58212,503.137863 1075.45433,504.405012 C1073.96223,506.088706 1071.80741,507.011332 1069.93551,507.346124 C1067.87176,507.708167 1066.36998,508.282374 1064.95733,509.775314 C1062.6378,512.216184 1060.14193,514.501336 1057.92897,516.652182 C1057.85534,519.49013 1058.48512,522.100342 1056.23147,523.996201 C1056.1559,526.431231 1056.50082,528.794242 1054.67155,531.046304 C1053.83443,532.077931 1054.31112,534.302743 1056.02994,535.425854 C1056.72754,535.887167 1057.24106,536.607359 1057.92122,537.290569 C1057.92122,539.46088 1058.47737,541.927053 1057.74101,543.898824 C1057.19261,545.364514 1056.23922,546.581055 1056.15977,548.358179 C1056.03575,550.993696 1057.2178,552.408777 1059.41719,553.469601 C1062.03708,554.734805 1065.03678,555.499766 1066.7866,558.119711 C1068.08298,560.079803 1070.71256,559.937711 1072.08451,561.716781 C1075.65198,561.216539 1077.53163,563.791715 1079.65157,565.921149 C1080.25229,566.518715 1080.85107,567.120173 1081.62037,567.896813 C1081.62037,571.377096 1081.61649,575.034507 1081.62424,578.693865 C1081.62812,580.62476 1079.3706,581.650548 1079.8376,583.955164 C1080.26973,586.129368 1079.93255,588.469021 1079.93255,590.728869 C1079.93255,592.714265 1079.70777,594.724965 1079.98681,596.667539 C1080.29492,598.833957 1078.62455,599.565828 1077.47738,601.054875 C1073.9913,601.054875 1070.36182,601.043197 1066.72459,601.054875 C1064.8585,601.058768 1064.8585,601.076287 1061.51,602.750248 C1058.02974,604.492336 1056.59384,607.345856 1058.36497,610.641224 C1059.34937,612.486475 1060.52367,614.374548 1061.15926,616.278192 C1061.83361,618.31809 1061.2329,620.760905 1061.33173,623.020753 C1061.41118,624.790092 1061.2891,626.384248 1059.61678,627.419768 C1059.90552,628.73558 1058.97344,630.230466 1060.2175,631.415865 C1060.80465,631.982287 1061.48094,632.490314 1061.31622,633.510263 C1060.63412,637.829473 1062.27737,641.451848 1064.69379,644.840646 C1064.58334,646.859132 1066.12194,648.044531 1067.50164,648.531147 C1068.97049,649.048908 1071.17763,649.15791 1072.38875,648.381269 C1075.22567,646.567162 1078.95203,645.572518 1079.96356,641.568636 C1080.34724,640.06207 1081.58743,638.937012 1082.07575,637.338963 C1082.38386,636.324854 1083.51552,634.86695 1085.23434,635.061597 C1086.65668,635.2251 1088.23791,637.381785 1088.38712,639.326306 C1088.42588,639.886888 1088.39487,640.457203 1088.39487,641.011946 C1088.85219,641.30197 1089.29207,641.809997 1089.75326,641.81973 C1092.56693,641.895642 1095.38835,641.887856 1098.20783,641.84698 C1099.88983,641.81973 1101.59315,641.656227 1102.64149,643.41194 C1104.73818,643.316563 1105.70126,644.246974 1105.32145,646.405606 C1105.27495,646.678111 1105.21681,647.026529 1105.3292,647.244533 C1106.23221,648.891244 1107.93553,650.613867 1106.9085,652.43576 C1105.73614,654.493175 1105.21875,657.031368 1103.11819,658.528201 C1102.66475,658.855207 1102.30044,659.300948 1101.93226,659.659098 L1101.93226,663.125755 C1101.93226,664.254706 1101.93614,665.389496 1101.94001,666.52234 C1104.9087,667.725257 1102.4574,671.423543 1104.9087,672.957359 C1105.90666,673.586068 1104.66454,676.017205 1106.95113,675.863434 C1108.68545,675.734967 1109.31523,678.169997 1111.34216,677.615254 C1112.85945,677.196764 1114.6209,678.090192 1115.93859,676.346158 C1116.68464,675.355406 1117.88219,675.676573 1118.77164,676.616717 C1119.54869,677.442019 1120.23661,678.495057 1121.19581,678.950531 C1122.12207,679.3807 1123.36807,679.337878 1124.44354,679.21525 C1125.30199,679.12182 1125.48607,678.319875 1125.68954,677.418661 C1126.21662,675.080955 1128.58072,674.173901 1129.92942,672.46101 C1131.92534,672.46101 1134.01816,672.046413 1135.84161,672.575852 C1137.86079,673.153952 1139.55054,674.572927 1141.94952,674.230349 C1144.13535,673.918914 1146.40643,674.160276 1148.48762,674.160276 C1150.23744,672.404563 1151.82837,670.802621 1153.41929,669.194839 C1153.97156,669.153963 1154.51802,669.041068 1155.05284,669.072212 C1156.97125,669.194839 1159.35861,668.716008 1160.66274,669.689242 C1162.30017,670.897997 1164.29028,670.010409 1165.23398,670.888265 C1166.91792,672.441546 1168.61736,672.529137 1170.56871,672.472689 C1172.25071,672.429867 1173.93465,672.496047 1175.61859,672.521351 C1176.88203,674.623535 1178.95546,674.144704 1180.86418,674.160276 C1182.53455,674.173901 1184.20493,674.160276 1185.7009,674.160276 C1186.66592,675.12183 1187.46622,675.914042 1188.25878,676.708201 L1188.25878,689.461451 Z" id="Fill-111" transform="translate(1088.318885, 656.362057) rotate(-6.000000) translate(-1088.318885, -656.362057) "></path>
        </g>
    </g>
</svg>