<?xml version="1.0" encoding="UTF-8" standalone="no"?>
<svg width="321px" height="320px" viewBox="0 0 321 320" version="1.1" xmlns="http://www.w3.org/2000/svg" xmlns:xlink="http://www.w3.org/1999/xlink">
    <!-- Generator: sketchtool 47 (45396) - http://www.bohemiancoding.com/sketch -->
    <title>BBBBC612-4095-429F-9A2E-57C01A537AE7</title>
    <desc>Created with sketchtool.</desc>
    <defs></defs>
    <g id="Page-1" stroke="none" stroke-width="1" fill="none" fill-rule="evenodd">
        <g id="Главная-страница" transform="translate(-1556.000000, -153.000000)" stroke="#BCCCD2" fill="#EAF2F5">
            <path d="M1859.17584,486.133534 C1858.17012,485.092174 1858.07711,483.503857 1857.34075,482.676609 C1855.64131,480.792429 1855.44366,479.521386 1857.37563,477.816281 C1857.72637,477.508739 1857.59654,476.122855 1857.20123,475.630399 C1856.492,474.735024 1855.87385,474.007046 1855.91648,472.734056 C1856.02306,469.907787 1855.94748,467.081517 1855.94748,464.255247 C1853.61439,462.380799 1854.39919,459.739444 1854.26161,457.323879 C1851.03325,453.911722 1851.03325,453.911722 1850.72708,450.314652 C1848.53932,448.113198 1846.35156,445.91953 1844.10372,443.661628 C1844.10372,442.593018 1844.57267,440.954093 1844.01265,440.442172 C1842.31514,438.883052 1842.24345,437.086463 1842.41785,435.116639 C1842.56318,433.530268 1842.04967,431.971148 1843.53595,430.445119 C1844.92534,429.022251 1843.90994,426.704009 1844.09597,424.794525 C1844.17542,423.982849 1843.93126,423.091367 1844.98348,422.447086 C1845.85742,422.450979 1847.10342,422.620322 1847.45803,421.255849 C1847.66731,420.450011 1847.39602,419.688943 1846.70423,419.031037 C1845.70046,418.06559 1844.74319,417.384326 1843.24334,417.078731 C1842.44885,416.917174 1842.09424,414.871438 1841.39469,413.777523 C1840.59245,412.51232 1839.38908,412.043221 1837.8311,412.14833 C1837.12768,412.198939 1836.25956,411.799913 1835.67241,411.3386 C1833.69974,409.773641 1833.35481,407.225716 1832.32197,405.111853 C1831.88403,404.195067 1832.29484,402.885095 1832.24833,401.754198 C1832.13401,399.07002 1832.81804,396.311877 1830.67873,393.878793 C1830.09545,393.220887 1830.1439,391.256902 1831.39183,390.071504 C1834.04079,387.568348 1836.57154,384.932832 1839.07904,382.419943 C1839.02865,382.235029 1837.0928,375.406823 1837.0928,375.406823 C1834.98255,375.064245 1833.62998,373.102206 1831.28525,373.022401 C1828.34951,372.921185 1825.95634,370.894913 1823.47209,369.56353 C1821.10799,368.292487 1818.85241,366.223393 1817.43007,363.946026 C1815.94379,361.559658 1814.40712,358.933874 1813.77153,356.191303 C1813.31227,354.174763 1813.13399,351.774769 1814.06995,349.497403 C1814.9187,349.429277 1815.71513,349.3339 1816.51543,349.302757 C1817.36418,349.26772 1818.23038,349.421491 1819.04618,349.271613 C1821.72421,348.775264 1822.95277,344.827829 1821.47423,342.622483 C1819.66821,339.953877 1816.43211,339.422491 1814.36836,337.25802 C1812.60304,335.412769 1810.92685,335.007904 1808.54144,336.440504 C1806.01844,337.960695 1805.86923,337.7096 1803.41405,336.48138 C1800.61976,335.079924 1797.81384,333.6882 1795.01568,332.290637 C1795.01568,331.441977 1794.86453,330.560228 1795.03699,329.750498 C1795.68034,326.760725 1793.82394,324.569003 1792.57019,322.283851 C1791.28543,319.951984 1789.66157,319.850767 1787.95825,321.530568 C1786.35183,323.116939 1784.77447,324.726667 1783.1816,326.326662 C1782.85412,327.642474 1783.74938,329.135414 1782.5867,330.332491 C1780.68961,330.741249 1778.8022,330.824947 1777.09695,330.332491 C1774.60883,328.241986 1772.49664,326.106712 1772.7408,322.669251 C1770.76232,321.736894 1771.82229,318.850283 1769.75661,317.97048 C1769.85544,316.446397 1768.54937,315.576326 1768.10561,314.418178 C1767.53397,312.950542 1767.96028,311.08972 1767.96028,309.441063 C1766.41005,307.531579 1763.84054,306.280001 1764.49939,303.159814 C1764.58271,302.768575 1763.94518,301.816752 1763.8076,301.845949 C1760.68776,302.544731 1761.77098,299.153986 1760.31571,298.287808 C1759.18404,298.287808 1758.05624,298.287808 1756.93039,298.289754 C1755.73671,295.955941 1754.53335,293.631859 1753.35323,291.292206 C1752.2952,289.186129 1752.16537,287.259127 1753.88806,286.206089 C1756.56415,284.578842 1755.50418,281.688339 1756.77343,279.586155 C1757.9206,279.586155 1759.06777,279.40708 1760.13162,279.619245 C1762.2438,280.041628 1763.17782,278.468883 1764.20678,277.256234 C1764.58271,276.822172 1764.53039,275.570594 1764.16803,275.05478 C1763.35997,273.916097 1762.23605,273.01099 1761.16446,271.932647 C1761.16446,268.627547 1761.15283,265.244587 1761.18383,261.859682 C1761.18771,261.64557 1761.49582,261.433405 1761.66441,261.223187 C1765.26675,260.960414 1765.27451,260.946789 1766.83249,262.340459 C1767.46227,262.904934 1767.93509,263.775005 1768.66176,264.061136 C1769.28379,264.310283 1770.2178,264.070868 1770.88634,263.765273 C1771.19251,263.62902 1771.33784,262.788146 1771.2739,262.303476 C1771.20801,261.822699 1770.74488,261.404208 1770.52591,260.931217 C1768.8846,257.388647 1765.87134,254.011527 1769.464,249.89475 C1769.89225,249.404241 1769.61515,248.27529 1769.61903,247.438309 C1769.63453,244.894277 1769.66359,242.348298 1769.60546,239.80232 C1769.57639,238.638333 1769.79536,237.735172 1770.64605,236.81644 C1771.70796,235.668024 1771.38435,233.585305 1773.08379,232.758056 C1774.78517,231.921076 1774.38792,229.857821 1775.46921,228.651011 C1776.58344,227.399433 1777.67829,226.124498 1778.5561,225.124014 L1790.83199,225.124014 C1791.48309,224.470001 1792.02373,223.790684 1792.69227,223.292388 C1793.54877,222.650054 1793.39956,221.768305 1793.26392,221.003343 C1793.18447,220.543977 1792.50818,220.216971 1792.18457,219.767337 C1790.78548,217.82671 1788.18303,216.886566 1788.13653,213.776112 C1788.09971,211.455924 1785.93714,209.501671 1786.50103,206.831119 C1786.84402,205.201926 1786.38671,203.765433 1785.16202,202.270547 C1784.33265,201.264223 1784.4993,199.278827 1785.81118,197.727493 C1787.09981,196.20341 1786.87503,195.77908 1786.02046,194.893438 C1784.46636,193.299281 1782.88318,191.732375 1781.52286,190.371795 C1781.18762,187.884211 1782.42974,185.425823 1780.05208,183.798577 C1779.89124,181.330457 1779.72847,178.864283 1779.57151,176.507112 C1779.07156,176.004924 1778.6685,175.605898 1778.27125,175.202979 C1776.91092,173.820988 1775.06227,172.547999 1777.47869,170.478904 C1777.82943,170.179148 1778.05034,169.540707 1778.06197,169.052144 C1778.1201,166.79035 1778.0891,164.528555 1778.0891,162.262868 C1777.5252,162.262868 1776.8993,162.424425 1776.41097,162.231725 C1775.19986,161.76068 1774.10113,160.84584 1772.86676,160.631729 C1771.22158,160.349491 1769.50082,160.623943 1767.81495,160.542191 C1766.76273,160.491583 1765.71826,160.841947 1764.6796,159.919322 C1761.79424,157.3422 1759.70143,159.177718 1757.76945,161.441459 L1757.76945,164.834151 C1757.76945,167.095945 1757.76945,169.353847 1757.76558,171.619534 C1756.09133,172.645322 1756.28704,174.325123 1755.97312,175.983513 C1755.63789,177.710029 1754.62442,179.419026 1753.53539,180.857465 C1752.76802,181.877414 1752.69051,182.823397 1752.69826,183.923151 C1752.70214,185.618523 1752.50448,187.341146 1752.74864,189.003429 C1753.02187,190.907074 1750.55313,191.485174 1750.95813,193.402444 C1751.11703,194.142101 1751.01432,195.459859 1750.58801,195.687596 C1749.70244,196.172266 1748.51264,196.065211 1747.46817,196.279322 C1745.62146,196.658883 1744.32895,195.699275 1743.09652,194.568378 C1739.64532,195.023851 1735.85501,193.309014 1732.82043,196.271536 C1731.16362,196.244286 1729.4293,195.967887 1728.36933,197.752797 C1726.50906,197.692457 1725.50141,199.039412 1724.26703,200.117754 C1723.05979,201.176632 1722.40288,203.140617 1720.43021,203.039401 C1717.9014,202.908988 1719.37218,199.459849 1717.22705,198.901213 C1717.25418,197.758637 1716.75811,196.923602 1716.11864,195.952316 C1715.0141,194.278354 1714.86101,191.522157 1716.15739,189.785909 C1717.58942,187.866692 1717.5371,186.344555 1716.50619,184.520716 C1710.67539,184.398089 1710.69089,184.435071 1707.07692,186.052585 C1705.05193,186.959639 1702.95524,189.50951 1700.8915,186.066211 L1694.1945,186.066211 C1693.48915,187.346986 1691.96411,187.751851 1691.7122,189.404401 C1691.38471,191.494907 1690.08833,192.855487 1687.80562,192.863273 C1684.73422,192.871059 1683.19949,194.327016 1683.27507,197.47056 C1683.28476,198.103161 1678.14962,205.951316 1677.6768,206.138176 C1677.19235,206.330877 1676.64008,206.472969 1676.12657,206.451557 C1673.54931,206.346448 1672.11147,207.477345 1671.39061,210.035003 C1670.73177,212.380495 1669.02457,213.704093 1666.41437,213.260298 C1665.34859,213.079277 1664.97653,213.924044 1664.36226,214.441804 C1662.65119,215.888029 1662.37021,218.151769 1661.39356,220.000913 C1660.84517,221.052005 1660.94012,222.753217 1662.38184,223.742022 C1663.56583,224.549806 1662.75777,225.834474 1662.98643,226.873887 C1662.14155,226.873887 1660.76572,226.554667 1660.54675,226.928388 C1659.42671,228.804782 1657.18081,228.458311 1655.71778,229.781909 C1652.40998,232.785307 1650.00325,233.53859 1646.41059,233.686521 C1645.33318,233.73129 1643.73063,233.49966 1643.28687,234.091386 C1642.15908,235.58238 1640.15735,234.967296 1639.07994,236.378485 C1637.90176,237.929819 1636.49493,239.309864 1635.44271,240.477744 C1632.93133,240.477744 1630.96254,240.456333 1629.0015,240.483583 C1626.8428,240.510834 1624.53102,240.032003 1622.95948,242.177009 C1620.91705,241.781877 1619.45014,243.027615 1617.7197,243.769219 C1615.00486,244.927367 1612.76477,242.969221 1612.20282,239.508403 C1611.53622,235.446127 1608.68961,234.223746 1605.17446,236.471915 C1604.74039,236.746367 1604.22107,236.878727 1603.7405,237.079213 C1603.7405,237.927872 1604.0893,239.216433 1603.67655,239.545386 C1602.1457,240.773607 1602.07981,242.272386 1601.98874,244.01642 C1601.88022,246.186731 1602.74253,248.485508 1601.50041,250.500101 C1601.08766,250.579907 1600.82606,250.636354 1600.56252,250.67723 C1598.94253,250.912752 1597.19659,250.12054 1595.68124,251.140489 C1593.90041,252.343405 1593.65818,254.130262 1593.43534,256.19157 C1593.28613,257.631956 1591.91805,259.167718 1589.97445,259.154093 C1588.53274,259.142414 1587.46308,259.525868 1586.23839,260.456279 C1584.14946,262.058221 1583.55068,264.508823 1582.19423,266.496166 C1581.09744,268.11368 1581.66909,270.233382 1581.93457,272.129241 C1582.81432,273.384712 1584.52539,273.974491 1584.79474,275.7049 C1582.87246,276.789082 1580.06654,275.218283 1578.86511,278.128251 C1578.43492,279.161825 1578.11519,280.181774 1578.97363,281.044059 C1579.92508,282.003667 1580.7002,283.387605 1582.39964,282.974954 C1584.50407,282.461086 1585.44584,284.098065 1586.4748,285.314607 C1586.84686,285.748669 1586.79842,287.002193 1586.43217,287.518007 C1585.62024,288.658637 1584.48857,289.56569 1583.49061,290.568121 C1583.58556,292.471765 1582.74262,294.556431 1584.00025,296.236232 C1585.285,297.953016 1585.49816,300.222596 1587.48439,301.659089 C1589.74192,303.290228 1591.53243,305.577326 1593.58067,307.636688 C1593.58067,308.707245 1594.04768,310.202131 1593.49735,310.891181 C1591.64482,313.228887 1591.05186,316.181677 1589.41637,318.564153 C1588.62769,319.708675 1587.59485,320.80259 1586.43217,321.538354 C1584.82768,322.564142 1585.41483,324.549538 1584.12233,325.750508 C1582.52947,327.239555 1582.09734,327.607438 1580.01422,326.233232 C1578.9775,325.546129 1577.9621,324.997226 1577.14048,325.941262 C1575.73365,327.560722 1573.78423,328.607922 1573.15057,331.077988 C1572.56149,333.400123 1570.3776,334.276033 1567.88754,334.021046 C1566.83532,333.912044 1565.62421,333.666789 1564.82777,334.848294 L1564.82777,340.08429 C1565.13201,340.364581 1565.63196,340.679909 1565.95944,341.121757 C1567.24032,342.861898 1569.65674,343.739754 1569.88928,346.285733 C1568.0445,348.9485 1565.30835,346.959211 1563.08183,347.603491 C1562.58769,347.745583 1562.12456,348.008356 1561.63042,348.222468 C1561.23705,349.363097 1561.75057,351.171365 1559.54924,351.007862 C1558.43114,350.928056 1557.28397,350.881341 1556.1678,351.017594 C1554.00135,351.288153 1552.51701,354.017099 1553.5576,355.809795 C1553.95678,356.498844 1554.74353,356.874513 1554.68152,357.911979 C1554.573,359.879857 1554.65439,361.853575 1554.65439,363.749433 C1555.52252,364.62729 1556.32282,365.425341 1557.11732,366.229232 C1558.08233,367.19468 1559.04154,368.158181 1559.73139,368.851123 C1559.73139,370.527031 1559.72752,371.657928 1559.73139,372.792718 C1559.75465,377.213144 1560.29141,378.964964 1563.75618,382.990258 C1565.0293,384.463733 1564.8394,386.57565 1566.63961,387.817495 C1568.46888,389.080752 1569.8854,390.94936 1571.65848,392.734271 C1571.15271,394.898742 1572.56924,397.594598 1569.93966,399.529386 C1569.53272,399.829142 1569.88928,401.150793 1569.88928,402.001399 C1572.38321,402.053954 1575.42166,402.458819 1576.35374,399.58778 C1577.28194,396.69533 1579.33599,395.216016 1581.11488,393.503125 C1582.50234,393.503125 1583.65145,393.662735 1584.73661,393.464196 C1586.4283,393.156654 1586.87593,395.37368 1588.24982,395.153729 C1590.92784,394.719667 1592.74742,396.625258 1594.88093,397.505061 C1597.31479,398.503598 1599.67502,399.887536 1601.42096,402.139598 C1602.60495,403.659789 1604.25982,404.814044 1605.3663,405.822313 L1605.3663,416.522041 C1603.28512,417.789191 1603.64942,419.866071 1603.76956,421.763877 C1603.90133,423.638324 1602.97119,425.672382 1604.44004,427.387219 C1606.35651,427.449506 1608.81362,428.38381 1609.99374,426.951211 C1611.82689,424.724453 1615.37498,427.317146 1616.47951,424.107423 C1617.59374,424.113262 1619.30481,423.655842 1619.72725,424.206692 C1621.20384,426.10839 1623.29278,425.347322 1624.93408,426.038318 C1626.08513,426.522988 1627.13347,427.330772 1628.42985,427.782352 C1629.7398,428.233932 1628.88717,430.236847 1630.18355,431.250956 C1631.66983,432.414943 1630.52266,434.412018 1630.82108,436.008121 L1635.90196,436.008121 C1635.85546,434.832455 1636.42323,434.266033 1637.58978,434.308855 C1637.53552,432.592071 1639.11869,431.385262 1640.0062,431.225652 C1642.01375,430.869448 1642.71523,430.104487 1642.93807,428.173592 C1643.05821,427.210091 1644.77122,427.213984 1645.0522,427.568241 C1646.43578,429.322007 1647.35235,428.68162 1648.84833,427.587705 C1650.60784,426.291358 1651.38295,425.767759 1651.12135,424.270926 C1651.03609,423.760951 1650.96827,423.027133 1650.6214,422.813022 C1648.19723,421.285046 1650.73186,417.569241 1647.74766,416.346859 C1647.27678,414.665112 1649.23007,413.989688 1649.3444,412.794557 C1649.50524,410.972665 1650.11951,410.266097 1651.87127,410.505513 C1653.04945,410.667069 1654.04741,410.423761 1654.79927,409.39408 C1655.45812,408.487026 1656.19448,407.646153 1656.5801,407.165375 C1659.67087,406.947371 1662.18224,407.463185 1664.50759,406.719635 C1664.64905,405.057352 1664.76725,403.716236 1664.87383,402.415996 C1667.04609,402.268065 1669.07108,401.680232 1670.84803,402.114294 C1673.4156,402.737163 1674.82631,400.506513 1676.9385,400.348849 C1677.32606,400.321598 1677.764,400.893859 1678.17675,401.191669 C1677.57797,401.791181 1677.01795,402.435461 1676.37073,402.974632 C1675.98123,403.299692 1675.44253,403.694825 1674.99684,403.661735 C1673.59969,403.550787 1673.10556,404.693363 1672.31494,405.401877 C1671.04181,406.556131 1671.06313,407.562455 1672.38664,408.878266 C1673.14044,409.62571 1673.75084,410.449065 1675.0821,410.560014 C1678.73677,410.857823 1681.98062,409.929358 1684.82917,408.031553 C1685.39695,405.477789 1684.48425,402.927917 1685.28455,400.537656 C1686.92198,400.348849 1688.25906,400.197024 1689.8713,400.008217 L1689.8713,391.383423 C1691.20256,389.051555 1693.57635,388.989268 1694.71577,387.745476 C1696.35707,385.964459 1698.61072,387.597545 1700.10476,385.962513 C1700.19583,384.163977 1700.29466,382.264226 1700.38961,380.267151 C1701.94759,379.288078 1703.94739,380.708999 1705.17595,379.181022 C1705.21664,378.910463 1705.32709,378.632119 1705.29221,378.379078 C1705.07518,376.938692 1706.18747,374.739185 1703.29823,374.797579 C1701.03877,372.782986 1698.43438,372.703181 1695.67691,373.407802 C1694.28558,374.811204 1692.82836,376.154266 1691.52229,377.631635 C1690.80531,378.445258 1689.97981,378.248665 1689.22214,378.124091 C1688.88303,378.067643 1688.42183,377.296842 1688.41408,376.843316 C1688.38889,375.151836 1688.1021,373.802934 1686.97043,372.288583 C1685.98991,370.970825 1687.17971,368.393703 1685.04039,367.200519 C1685.364,365.573273 1683.87191,364.816097 1683.40296,363.638485 C1682.91464,362.421943 1683.29638,360.853091 1683.29638,359.439956 C1683.29638,355.196658 1683.01734,350.931949 1683.39909,346.721742 C1683.62387,344.257515 1682.45345,342.567981 1681.58532,340.637086 C1679.96726,337.022498 1679.93432,337.036123 1679.91494,334.544645 C1679.90332,332.876523 1679.91107,331.208401 1679.91107,329.740765 C1678.71351,328.537849 1677.71943,327.537365 1676.52575,326.340288 L1676.52575,321.526675 C1678.77552,319.63471 1678.14962,317.02839 1678.24845,313.544215 C1680.22693,311.891665 1682.79643,309.752498 1684.86212,308.031821 C1685.28068,304.818204 1684.33698,302.248868 1685.67792,299.975395 L1692.61133,299.975395 C1693.98328,298.607029 1695.6866,297.450827 1695.16533,295.076138 C1694.98512,294.268354 1695.22153,293.55984 1696.20593,293.398283 C1697.20389,294.398767 1698.13984,296.179784 1699.20175,296.251804 C1702.16269,296.444504 1701.97278,298.198271 1701.93597,300.208971 C1701.9224,301.265902 1701.62204,303.270763 1702.64713,303.146189 C1706.20298,302.727699 1704.69925,306.690705 1706.73393,307.410898 C1707.19125,307.576348 1707.53811,308.057125 1708.56126,308.921356 C1709.34413,307.601652 1710.15606,306.215767 1711.02225,304.746185 C1712.29538,306.182677 1713.32047,306.904817 1713.68671,307.876104 C1714.04908,308.861016 1713.65958,310.145684 1715.3067,310.192399 C1717.53322,310.254686 1717.01002,308.609922 1717.1883,307.303842 C1717.27743,306.548613 1717.6243,305.791438 1718.00023,305.106281 C1719.25592,302.77636 1719.31599,300.526245 1717.93628,298.196324 C1717.01002,296.619686 1715.93455,295.008011 1715.54699,293.271763 C1715.07998,291.194883 1716.14577,288.72287 1713.76229,287.208519 L1713.76229,279.568637 L1713.76229,272.783253 C1713.56851,271.706857 1714.22348,271.249438 1715.10517,271.097613 C1716.17871,270.914645 1717.28906,270.943842 1718.32578,270.66939 C1718.60676,270.593478 1718.83542,269.727301 1718.80053,269.24263 C1718.76759,268.75796 1718.4091,267.913193 1718.14169,267.895675 C1716.481,267.769155 1714.80288,267.827549 1712.9581,267.827549 C1711.35749,265.684489 1709.34801,264.076707 1708.07682,261.427566 C1706.82501,258.813461 1703.88732,257.009086 1701.89333,255.048994 C1702.01348,253.009097 1701.56972,251.391583 1703.27304,250.052414 C1705.1682,248.56142 1706.64673,246.698652 1707.64081,244.265568 C1708.53607,242.054382 1710.90792,241.532729 1713.66733,242.708395 C1713.96575,246.686973 1713.56851,250.883555 1713.88049,255.043155 C1716.46938,257.647527 1719.17453,260.150684 1721.62195,262.88547 C1723.67795,265.174515 1726.21064,266.622686 1728.98361,267.638742 C1731.39034,268.516598 1732.65378,269.939465 1732.3728,272.539945 C1732.27591,273.491767 1732.6344,274.243104 1733.49866,274.439697 C1734.28734,274.622665 1735.16128,274.433857 1735.7368,275.333125 L1735.7368,280.386153 C1734.63226,281.552086 1733.48315,282.766682 1732.38055,283.926776 C1732.38055,287.424577 1732.65766,290.848412 1732.31079,294.213853 C1731.94455,297.725279 1733.33201,300.518459 1734.89968,303.371979 C1735.77943,304.981707 1736.89754,306.540827 1737.38392,308.273183 C1737.98657,310.381206 1736.50029,313.075116 1737.98657,314.784114 C1740.04257,317.139339 1738.95353,319.615245 1739.08142,321.99772 C1739.32752,326.231286 1739.157,330.490155 1739.157,335.118853 C1740.19565,336.080408 1741.28275,337.481864 1742.70703,338.309112 C1744.62931,339.438063 1743.80575,341.952898 1745.5827,343.186958 C1746.15435,343.585984 1745.7823,345.275517 1745.93538,346.363592 C1746.27256,348.736335 1745.33467,351.140221 1747.31702,353.4935 C1748.72773,355.171354 1746.48959,358.544581 1749.24512,360.278883 C1748.90601,362.381067 1750.24502,364.658433 1748.22778,366.624365 C1746.67755,368.128984 1748.6851,371.264742 1745.92957,372.438461 C1745.92957,373.573251 1745.84818,374.711934 1745.94119,375.835046 C1746.10203,377.658885 1745.35017,378.367399 1743.54803,378.25645 C1743.23798,378.238932 1742.68183,378.935767 1742.57138,379.389294 C1742.06174,381.454495 1743.17016,383.708504 1745.20096,384.999011 C1749.54354,384.65254 1748.63278,389.42917 1751.0027,391.009701 C1751.0182,392.703127 1751.02983,394.394607 1751.03758,396.088033 C1753.12264,397.357129 1752.69051,399.42233 1752.69826,401.349333 C1752.70214,403.027187 1752.69826,404.710881 1752.69826,406.213553 C1754.73875,408.673887 1757.07766,410.431547 1758.40117,413.411587 C1759.55222,415.992602 1762.6643,417.516686 1763.68746,420.570692 C1763.95875,421.362904 1764.81525,422.612536 1766.23759,422.408157 C1766.4895,423.618859 1765.41209,425.52445 1767.57466,425.738562 C1768.87298,425.867029 1769.53958,426.591114 1770.30888,427.352183 C1771.71184,428.74196 1772.94621,430.36726 1774.52938,431.486478 C1776.21526,432.675769 1778.23831,433.376498 1780.10246,434.312748 C1780.56947,434.552163 1781.01709,434.844133 1781.44728,435.141943 C1783.44127,436.49863 1784.27452,439.45726 1787.28778,439.406652 C1789.08992,441.183776 1790.89594,442.953114 1792.69227,444.734131 C1794.29482,446.322448 1795.87412,447.93023 1797.46504,449.528279 C1799.06371,451.130221 1800.4783,452.991044 1802.29788,454.248461 C1803.97795,455.408555 1806.38274,455.56038 1807.94072,456.811958 C1809.84363,458.339934 1812.54878,458.536527 1813.9343,460.880074 C1814.62803,462.061579 1815.88178,462.902453 1816.86424,463.918508 C1817.45139,464.521913 1818.1238,464.753542 1818.97255,464.97544 C1823.58836,466.182249 1824.89637,466.736992 1827.25272,469.353044 C1828.61692,470.857662 1830.28923,471.488318 1831.97511,472.321405 C1834.13962,473.395855 1836.21111,474.569575 1837.89311,476.455701 C1840.13126,478.986108 1842.79184,481.152525 1844.94666,483.741326 C1846.13646,485.154461 1848.00836,484.897527 1849.0664,486.10823 C1850.20969,487.416256 1851.61265,487.032802 1852.92841,486.982193 C1854.42244,486.923799 1855.54636,487.293628 1856.61602,488.408954 C1856.96095,488.772943 1858.18369,488.623065 1858.81347,488.315523 C1859.70098,487.875622 1859.60603,486.569542 1859.17584,486.133534" id="Fill-7" transform="translate(1706.355823, 323.643049) rotate(-6.000000) translate(-1706.355823, -323.643049) "></path>
        </g>
    </g>
</svg>