<?xml version="1.0" encoding="utf-8"?>
<!-- Generator: Adobe Illustrator 21.1.0, SVG Export Plug-In . SVG Version: 6.00 Build 0)  -->
<svg version="1.1" id="Слой_1" xmlns="http://www.w3.org/2000/svg" xmlns:xlink="http://www.w3.org/1999/xlink" x="0px" y="0px"
	 viewBox="0 0 79 71" style="enable-background:new 0 0 79 71;" xml:space="preserve">
<style type="text/css">
	.st0{fill:#4689B9;}
</style>
<g>
	<path class="st0" d="M39.6,70.8c-0.1,0-0.3,0-0.4,0c0,0,0,0,0,0C14.6,70.7,4.6,60.2,4.6,34.7c0-0.4,0.3-0.7,0.7-0.7S6,34.3,6,34.7
		c0,24.6,9.7,34.6,33.4,34.7c23.8-0.1,33.1-9.8,33.1-34.7c0-0.4,0.3-0.7,0.7-0.7s0.7,0.3,0.7,0.7C73.9,60.2,64,70.7,39.6,70.8
		C39.6,70.8,39.6,70.8,39.6,70.8z M70.8,35.4c-0.4,0-0.7-0.3-0.7-0.7C70.1,16.3,56.1,1.4,39,1.4S7.9,16.3,7.9,34.7
		c0,0.4-0.3,0.7-0.7,0.7s-0.7-0.3-0.7-0.7C6.5,15.6,21.1,0,39,0s32.5,15.6,32.5,34.7C71.5,35.1,71.2,35.4,70.8,35.4z"/>
</g>
<g>
	<path class="st0" d="M39.2,47.9c-19.7,0-34.6-5.7-34.6-13.2c0-0.4,0.3-0.7,0.7-0.7S6,34.3,6,34.7c0,6.6,14.6,11.8,33.2,11.8
		c18.4,0,33.3-5.3,33.3-11.8c0-0.4,0.3-0.7,0.7-0.7s0.7,0.3,0.7,0.7C73.9,42.2,59,47.9,39.2,47.9z"/>
</g>
<g>
	<path class="st0" d="M39,70.4c-0.4,0-0.7-0.3-0.7-0.7V59.1C17.3,58.8,5.4,49.7,4.8,41.1c0-0.4,0.3-0.7,0.7-0.8
		c0.4,0,0.7,0.3,0.8,0.7C6.8,49,18.9,57.4,38.3,57.7V35.4H0.7c-0.4,0-0.7-0.3-0.7-0.7S0.3,34,0.7,34h77c0.4,0,0.7,0.3,0.7,0.7
		s-0.3,0.7-0.7,0.7h-38v22.3c19.4-0.1,32-8.7,32.6-16.7c0-0.4,0.4-0.7,0.8-0.7c0.4,0,0.7,0.4,0.7,0.8c-0.7,8.8-13.5,18-34,18.1v10.6
		C39.7,70.1,39.4,70.4,39,70.4z"/>
</g>
<g>
	<path class="st0" d="M55.6,68.5c-0.1,0-0.1,0-0.2,0c-0.4-0.1-0.6-0.5-0.5-0.9c0-0.1,1.8-8,1.8-16.4c0-8.3-1.8-15.9-1.8-15.9
		c-0.1-0.4,0.1-0.8,0.5-0.9c0.4-0.1,0.8,0.1,0.9,0.5c0,0.1,1.8,7.8,1.8,16.3c0,8.6-1.8,16.7-1.8,16.8C56.2,68.3,55.9,68.5,55.6,68.5
		z M22.3,68.2c-0.3,0-0.6-0.2-0.7-0.6c0-0.1-1.7-7.9-1.7-16.5c0-8.5,1.8-16.2,1.8-16.3c0.1-0.4,0.5-0.6,0.9-0.5
		c0.4,0.1,0.6,0.5,0.5,0.9c0,0.1-1.8,7.6-1.8,15.9c0,8.4,1.7,16.1,1.7,16.1c0.1,0.4-0.2,0.8-0.5,0.9C22.4,68.2,22.4,68.2,22.3,68.2z
		"/>
</g>
</svg>
