<?xml version="1.0" encoding="utf-8"?>
<!-- Generator: Adobe Illustrator 21.1.0, SVG Export Plug-In . SVG Version: 6.00 Build 0)  -->
<svg version="1.1" id="Слой_1" xmlns="http://www.w3.org/2000/svg" xmlns:xlink="http://www.w3.org/1999/xlink" x="0px" y="0px"
	 viewBox="0 0 77 77" style="enable-background:new 0 0 77 77;" xml:space="preserve">
<style type="text/css">
	.st0{fill:#4689B9;}
</style>
<g>
	<g>
		<path class="st0" d="M47.2,13.9c-0.9,0-1.8-0.4-2.4-1.1c-0.6-0.7-1-1.6-0.9-2.5c0-0.9,0.4-1.7,1.1-2.4c0.7-0.6,1.6-1,2.5-0.9
			c0,0,0,0,0,0c1.8,0.1,3.1,1.5,3.3,3.3c0.1,1.9-1.3,3.4-3.3,3.6L47.2,13.9z M47.2,8.5c-0.5,0-1,0.2-1.3,0.5
			c-0.4,0.4-0.6,0.8-0.6,1.4c0,0.6,0.2,1.1,0.5,1.5c0.4,0.4,0.8,0.6,1.4,0.6h0.2c1.1-0.1,2-1,1.9-2c-0.1-1-0.9-1.9-1.9-1.9
			C47.3,8.5,47.3,8.5,47.2,8.5z"/>
	</g>
	<g>
		<path class="st0" d="M59,37.1c-1.8,0-3.7,0-5.7-0.1c-2.7,0-5.5-0.1-7.6,0c0,0-0.1,0-0.1,0c-4.5-0.8-12.9-3.8-15.7-9.8
			c-1.5-3.3-1.1-6.9,1.3-10.7c0.2-0.3,0.6-0.5,1-0.2c0.3,0.2,0.5,0.6,0.2,1c-2.1,3.4-2.5,6.6-1.2,9.4c2.1,4.7,9,7.9,14.5,8.9
			c2.1,0,4.9,0,7.6,0.1c2.7,0,5.5,0.1,7.7,0.1c1.1,0.1,1.9-0.1,2.3-0.5c0.4-0.4,0.4-1.1,0.4-1.7c-2.6-1-5.1-2-7.7-2.9
			c-2.7-1-5.4-2.1-8.1-3.1c-0.2-0.1-0.4-0.3-0.4-0.5c0-0.2,0-0.5,0.2-0.7c2.7-2.6,5.7-5,8.7-7.3c2.7-2.1,5.5-4.3,8-6.7
			c0.1-0.1,0.1-0.2,0.1-0.2c-0.2-0.4-1.7-1.2-11.5-0.6c-0.4,0-0.8,0-1,0.1c-0.4,0-0.7-0.3-0.8-0.7c0-0.4,0.3-0.7,0.7-0.8
			c0.2,0,0.6,0,1-0.1c8.4-0.5,12-0.1,12.8,1.3c0.2,0.3,0.4,0.9-0.2,1.7c0,0-0.1,0.1-0.1,0.1c-2.5,2.4-5.4,4.6-8.1,6.8
			c-2.6,2-5.3,4.2-7.7,6.4c2.3,0.9,4.7,1.8,7,2.7c2.7,1,5.4,2.1,8.1,3.1c0.2,0.1,0.4,0.3,0.5,0.6c0.1,1,0.2,2.4-0.7,3.3
			c-0.7,0.7-1.8,1.1-3.3,1C60.4,37.1,59.7,37.1,59,37.1z"/>
	</g>
	<g>
		<path class="st0" d="M43.3,76.7c-5.7,0-8.6-2.8-11.3-5.5c-1.4-1.4-2.9-2.9-4.8-4C15.8,66.9,6.9,62.1,2.8,54
			c-4.4-8.4-3-19.1,3.8-29.2C15.3,12,30,10,44.6,9.8c0,0,0,0,0,0c0.4,0,0.7,0.3,0.7,0.7c0,0.4-0.3,0.7-0.7,0.7
			c-14.2,0.2-28.5,2.1-36.8,14.4C1.3,35.3-0.1,45.5,4,53.4C8,61,16.5,65.5,27.4,65.8c0.1,0,0.2,0,0.3,0.1c2.2,1.2,3.8,2.8,5.3,4.3
			c2.8,2.8,5.2,5.2,10.6,5.1c1-2.1-0.3-8.4-4.9-13.2c-0.2-0.2-0.2-0.4-0.2-0.6c0-0.2,0.2-0.4,0.4-0.5c5.1-2.4,6.8-10.7,6-15.2
			c-0.9,0.5-1.8,1-2.6,1.5c-3.7,2.1-7.2,4-10.9,8.9c0,0-0.1,0.1-0.1,0.1c-1.9,1.4-3.6,1.8-5.3,1.2c-5-2-6.9-13-6.9-13.5
			c-0.1-0.4,0.2-0.8,0.6-0.8c0.4-0.1,0.8,0.2,0.8,0.6c0.6,3.7,2.6,11,6,12.4c1.2,0.5,2.4,0.2,3.8-0.9c3.9-5,7.7-7.2,11.3-9.2
			c1.1-0.6,2.3-1.3,3.4-2c0.2-0.1,0.4-0.1,0.6-0.1c0.2,0.1,0.4,0.3,0.4,0.5c1.3,4.2,0,13.9-5.7,17.4c4.7,5.4,5.9,12.4,4.2,14.6
			c-0.1,0.2-0.3,0.3-0.6,0.3C43.9,76.7,43.6,76.7,43.3,76.7z"/>
	</g>
	<g>
		<path class="st0" d="M27.3,67.2c-0.2,0-0.3-0.1-0.4-0.2c-6.2-5-12.7-10.9-11.4-18.6C17.3,38.1,34.7,36.7,44,35.9
			c0.7-0.1,1.3-0.1,1.9-0.2c0.4,0,0.7,0.3,0.8,0.7c0,0.4-0.3,0.7-0.7,0.8c-0.6,0.1-1.2,0.1-1.9,0.2c-8.3,0.7-25.6,2.1-27.2,11.3
			c-1.2,6.9,5,12.5,10.8,17.2c0.3,0.2,0.4,0.7,0.1,1C27.7,67.1,27.5,67.2,27.3,67.2z M20.9,35.7c-2.6,0-4.9-1.9-9.5-6.8
			c-0.2-0.2-0.2-0.5-0.2-0.7c0.1-0.3,0.3-0.4,0.6-0.5l17.5-2.9c0.4-0.1,0.8,0.2,0.8,0.6s-0.2,0.8-0.6,0.8l-16.2,2.7
			c6.3,6.8,7.2,6.3,13.4,3.3c1.4-0.7,3.2-1.6,5.4-2.5c0.4-0.2,0.8,0,0.9,0.4c0.2,0.4,0,0.8-0.4,0.9c-2.1,0.9-3.8,1.8-5.3,2.5
			C24.5,34.9,22.6,35.7,20.9,35.7z M3,31.7c-0.3,0-0.6-0.2-0.7-0.5C0,22.5,3.6,18.7,5.9,16.1c0.2-0.2,0.4-0.5,0.6-0.7
			c0.1-0.1,0.1-0.2,0.1-0.2c-0.1-0.5-1.3-1.4-2.1-2c-1.3-1-2.5-1.8-2.2-2.9c0.3-1,1.5-1.5,6.8-1.7c2.7-0.1,3.4-0.7,3.6-1
			c0.4-0.7-0.5-2.1-1-3c-0.3-0.4-1-1.8-0.2-2.6c0.7-0.8,2.4-1,9.4,2.5c0.1,0.1,0.2,0.1,0.3,0.1C23.7,5,24,4.7,24,4.6
			c0-0.2-0.2-0.8-0.4-1.1c-0.4-0.8-0.8-1.7-0.3-2.4c0.5-0.8,1.6-0.8,1.9-0.8c4.2-0.1,14,5.3,15.9,9.4c0.2,0.4,0,0.8-0.4,1
			c-0.4,0.2-0.8,0-1-0.4C38.3,7,29.4,1.7,25.4,1.7c0,0-0.1,0-0.1,0c-0.6,0-0.8,0.2-0.8,0.2c0,0.1,0.3,0.7,0.4,1
			c0.4,0.8,0.8,1.8,0.3,2.6c-0.6,0.8-1.8,1-4.3,0.6c-0.1,0-0.1,0-0.6-0.3c-5.8-3-7.3-2.9-7.6-2.8c0,0.1,0.1,0.4,0.4,0.9
			c0.8,1.4,1.8,3.1,1,4.5c-0.6,1.1-2.1,1.6-4.8,1.7c-4,0.1-5.1,0.5-5.4,0.7c0.2,0.3,1.1,0.9,1.6,1.3C6.7,13,8,14,8.1,15.1
			c0,0.5-0.1,0.9-0.4,1.3c-0.2,0.2-0.4,0.5-0.7,0.7c-2.3,2.5-5.4,5.8-3.3,13.7c0.1,0.4-0.1,0.8-0.5,0.9C3.1,31.7,3.1,31.7,3,31.7z
			 M70.4,29.1c-0.3,0-0.6,0-0.8-0.1c-1.6-0.2-3.2-1.1-4.1-2.5c-0.7-1-1.1-2.2-1.2-3.4l-0.1,0.1c-0.3,0.3-0.7,0.3-1,0s-0.3-0.7,0-1
			l1.5-1.5c0.1-0.3,0.3-0.7,0.5-1.1c0.2-0.3,0.6-0.4,0.9-0.3l1.1-1.1c0.3-0.3,0.7-0.3,1,0s0.3,0.7,0,1L66,21.5
			c-0.1,0.3-0.1,0.5-0.2,0.8c-0.2,1.2,0.1,2.4,0.8,3.4c0.8,1,1.9,1.7,3.2,1.9c1.3,0.2,2.5-0.2,3.5-0.9c1-0.8,1.7-1.9,1.8-3.1
			c0.2-1.5-0.3-3.1-1.3-4c-3-2.6-3-3.9-2.8-5.9l0-0.3l0.4-2.7c-1.1-0.7-1.7-2-1.6-3.4C70,6.4,70.5,5.6,71.2,5
			c0.7-0.5,1.6-0.8,2.6-0.6l0,0c0.9,0.1,1.7,0.6,2.3,1.4c0.5,0.7,0.8,1.6,0.6,2.6c-0.1,0.9-0.6,1.7-1.4,2.3
			c-0.7,0.5-1.6,0.8-2.5,0.6l-0.3,2.6c-0.2,1.5-0.3,2.4,2.3,4.6c1.4,1.2,2.2,3.3,1.8,5.3C76.2,26.8,73.5,29.1,70.4,29.1z M73.3,5.8
			c-1,0-1.9,0.7-2,1.7c-0.1,1.1,0.6,2.1,1.7,2.3c0.5,0.1,1.1-0.1,1.5-0.4c0.4-0.3,0.7-0.8,0.8-1.3c0.1-0.5-0.1-1.1-0.4-1.5
			c-0.3-0.4-0.8-0.7-1.3-0.8c0,0,0,0,0,0C73.5,5.8,73.4,5.8,73.3,5.8z"/>
	</g>
</g>
</svg>
