<?xml version="1.0" encoding="utf-8"?>
<!-- Generator: Adobe Illustrator 21.1.0, SVG Export Plug-In . SVG Version: 6.00 Build 0)  -->
<svg version="1.1" id="Слой_1" xmlns="http://www.w3.org/2000/svg" xmlns:xlink="http://www.w3.org/1999/xlink" x="0px" y="0px"
	 viewBox="0 0 32 40" style="enable-background:new 0 0 32 40;" xml:space="preserve">
<style type="text/css">
	.st0{fill:#F06262;}
</style>
<g>
	<path class="st0" d="M11.1,16c0.1-0.1,0.3-0.2,0.5-0.4c0.2-0.2,0.2-0.3,0.2-0.6s-0.1-0.5-0.2-0.6c-0.1-0.1-0.3-0.3-0.6-0.3
		c-0.2,0-0.5,0-1,0H9.2v2H10C10.6,16.1,11,16.1,11.1,16z"/>
	<path class="st0" d="M25.5,0H0v40h32V6.5L25.5,0z M14.4,12.8H17c0.6,0,1,0,1.4,0.1c0.4,0.1,0.8,0.3,1.1,0.7
		c0.3,0.4,0.5,0.7,0.7,1.2s0.2,1,0.2,1.7c0,0.6-0.1,1.1-0.2,1.5c-0.2,0.5-0.4,0.9-0.8,1.3c-0.3,0.2-0.6,0.4-1,0.6
		c-0.3,0.1-0.7,0.2-1.3,0.2h-2.7V12.8z M7.7,12.8H10c0.9,0,1.5,0,1.7,0.1c0.4,0.1,0.8,0.3,1,0.7c0.3,0.4,0.4,0.8,0.4,1.4
		c0,0.4-0.1,0.8-0.2,1.1c-0.1,0.3-0.4,0.5-0.6,0.7s-0.5,0.3-0.7,0.3c-0.3,0.1-0.8,0.1-1.5,0.1H9.2V20H7.7V12.8z M26.1,33H6v-1h20.1
		V33z M26.1,29H6v-1h20.1V29z M26.5,14H23v1.7h3V17h-3v3h-1.4v-7.2h4.9V14z"/>
	<path class="st0" d="M18.4,18.4c0.2-0.1,0.3-0.4,0.4-0.7c0.1-0.3,0.1-0.8,0.1-1.3s0-1-0.1-1.3c-0.1-0.3-0.2-0.5-0.4-0.7
		c-0.2-0.2-0.4-0.3-0.7-0.3c-0.2,0-0.6-0.1-1.2-0.1h-0.7v0.1v4.7h1.1c0.4,0,0.7,0,0.9-0.1C18,18.6,18.2,18.5,18.4,18.4z"/>
</g>
</svg>
